<?xml version="1.0" standalone="no"?>
<!DOCTYPE svg PUBLIC "-//W3C//DTD SVG 20010904//EN"
 "http://www.w3.org/TR/2001/REC-SVG-20010904/DTD/svg10.dtd">
<svg version="1.0" xmlns="http://www.w3.org/2000/svg"
 width="260.000000pt" height="260.000000pt" viewBox="0 0 260.000000 260.000000"
 preserveAspectRatio="xMidYMid meet">
<metadata>
Created by potrace 1.11, written by Peter Selinger 2001-2013
</metadata>
<g transform="translate(0.000000,260.000000) scale(0.100000,-0.100000)"
fill="#000000" stroke="none">
<path d="M0 1300 l0 -1300 1300 0 1300 0 0 1300 0 1300 -1300 0 -1300 0 0
-1300z m1523 366 c101 -49 148 -138 155 -293 l5 -103 -248 0 -248 0 6 -56 c12
-115 94 -194 202 -194 64 0 143 23 180 52 27 21 28 21 42 2 8 -10 21 -31 28
-45 18 -33 6 -46 -80 -86 -54 -25 -70 -28 -170 -28 -100 0 -115 3 -162 28
-105 55 -167 149 -186 283 -30 217 61 397 232 461 59 22 178 12 244 -21z m783
1 c62 -32 118 -92 153 -166 24 -52 26 -66 26 -196 0 -130 -2 -144 -26 -196
-35 -74 -91 -134 -152 -166 -61 -31 -171 -41 -245 -23 -101 24 -196 119 -229
230 -25 82 -23 247 5 323 37 103 115 184 205 213 67 22 201 13 263 -19z
m-1961 -31 l7 -55 33 33 c55 55 99 71 195 71 116 0 177 -33 223 -120 21 -37
22 -57 25 -287 l3 -247 30 -5 c97 -19 89 -14 89 -62 l0 -44 -185 0 -185 0 0
44 c0 41 2 45 30 50 17 3 44 9 61 12 l31 6 -4 222 c-3 191 -6 226 -23 260 -47
96 -209 100 -288 7 l-27 -33 0 -228 c0 -254 -7 -231 73 -245 36 -6 37 -7 37
-50 l0 -45 -185 0 -185 0 0 44 c0 41 2 45 30 50 17 3 44 9 60 12 l30 6 -2 271
-3 271 -30 7 c-16 4 -42 10 -57 13 -25 6 -28 10 -28 51 l0 45 119 0 120 0 6
-54z"/>
<path d="M1315 1581 c-50 -21 -104 -97 -120 -168 l-7 -33 178 0 177 0 -6 52
c-8 63 -43 119 -90 141 -37 18 -99 21 -132 8z"/>
<path d="M2074 1571 c-80 -37 -117 -120 -117 -266 0 -146 37 -229 117 -266
153 -70 278 50 278 266 0 216 -125 336 -278 266z"/>
</g>
</svg>
