<?xml version="1.0" encoding="utf-8"?>
<!-- Generator: Adobe Illustrator 16.0.0, SVG Export Plug-In . SVG Version: 6.00 Build 0)  -->
<!DOCTYPE svg PUBLIC "-//W3C//DTD SVG 1.1//EN" "http://www.w3.org/Graphics/SVG/1.1/DTD/svg11.dtd">
<svg version="1.1" xmlns="http://www.w3.org/2000/svg" xmlns:xlink="http://www.w3.org/1999/xlink" x="0px" y="0px" width="176px"
	 height="176px" viewBox="0 0 176 176" enable-background="new 0 0 176 176" xml:space="preserve">
<g id="Layer_2">
	
		<rect x="0.5" y="0.5" fill-rule="evenodd" clip-rule="evenodd" fill="none" stroke="#E0DDC5" stroke-miterlimit="10" width="175" height="175"/>
</g>
<g id="Layer_3">
	<g>
		<rect x="3.125" y="71.5" fill-rule="evenodd" clip-rule="evenodd" fill="none" width="169.75" height="33"/>
		<path d="M30.503,76.604h-0.559c-0.271-1.574-0.686-2.59-1.244-3.047c-0.508-0.423-1.481-0.635-2.92-0.635h-1.473V87.42
			c0,0.999,0.186,1.71,0.559,2.133c0.389,0.389,1.108,0.617,2.158,0.686v0.508h-6.982v-0.508c1.083-0.085,1.811-0.364,2.184-0.838
			c0.305-0.406,0.457-1.185,0.457-2.336V72.922h-1.523c-1.422,0-2.396,0.229-2.92,0.686c-0.525,0.423-0.931,1.422-1.219,2.996
			h-0.584l0.152-4.545h13.762L30.503,76.604z"/>
		<path d="M41.319,86.43c-0.305,0.999-0.787,1.888-1.447,2.666c-1.016,1.235-2.243,1.854-3.682,1.854
			c-1.405,0-2.531-0.567-3.377-1.701c-0.83-1.1-1.244-2.632-1.244-4.596c0-2.319,0.592-4.122,1.777-5.408
			c0.948-0.999,2.031-1.506,3.25-1.523c1.151,0,2.09,0.364,2.818,1.092c0.846,0.83,1.337,2.074,1.473,3.732h-8.15
			c0.034,2.438,0.474,4.266,1.32,5.484c0.694,1.016,1.6,1.523,2.717,1.523c1.727,0,3.14-1.083,4.24-3.25L41.319,86.43z
			 M39.085,81.834c-0.237-2.149-1.236-3.233-2.996-3.25c-1.558-0.017-2.649,1.066-3.275,3.25H39.085z"/>
		<path d="M48.124,90.746H42.36v-0.457c0.795-0.085,1.362-0.288,1.701-0.609c0.321-0.339,0.482-0.905,0.482-1.701V75.105
			c0-1.32-0.517-1.98-1.549-1.98c-0.136,0-0.364,0.017-0.686,0.051v-0.482c0.813-0.186,2.022-0.601,3.631-1.244V88.08
			c0,0.83,0.161,1.396,0.482,1.701c0.338,0.287,0.905,0.457,1.701,0.508V90.746z"/>
		<path d="M65.821,90.746h-6.018v-0.508c0.66-0.034,1.125-0.102,1.396-0.203c0.423-0.187,0.635-0.542,0.635-1.066
			c0-0.423-0.144-1.032-0.432-1.828l-0.914-2.514H53.38l-1.27,3.225c-0.136,0.339-0.203,0.711-0.203,1.117
			c0,0.541,0.203,0.896,0.609,1.066c0.186,0.102,0.542,0.169,1.066,0.203v0.508h-4.646v-0.508c0.22-0.034,0.44-0.076,0.66-0.127
			c0.203-0.051,0.397-0.195,0.584-0.432c0.474-0.609,1.092-1.946,1.854-4.012l5.129-13.939h0.102l6.018,16.021
			c0.372,1.016,0.778,1.701,1.219,2.057c0.254,0.203,0.694,0.347,1.32,0.432V90.746z M60.159,83.688l-3.199-9.318l-3.352,9.318
			H60.159z"/>
		<path d="M85.118,90.746h-5.129v-0.432c0.711-0.102,1.176-0.263,1.396-0.482c0.305-0.322,0.457-0.931,0.457-1.828v-5.357
			c0-2.2-0.728-3.301-2.184-3.301c-1.27,0-2.319,0.618-3.148,1.854v6.602c0,0.999,0.22,1.692,0.66,2.082
			c0.288,0.271,0.745,0.414,1.371,0.432v0.432h-5.23v-0.432c0.643-0.051,1.108-0.195,1.396-0.432
			c0.338-0.339,0.508-0.956,0.508-1.854v-5.535c0-2.099-0.703-3.148-2.107-3.148c-0.762,0-1.523,0.305-2.285,0.914
			c-0.644,0.508-0.965,0.855-0.965,1.041v7.287c0,1.083,0.651,1.658,1.955,1.727v0.432h-5.23v-0.432
			c0.643-0.018,1.108-0.145,1.396-0.381c0.389-0.339,0.584-0.956,0.584-1.854v-6.551c0-1.405-0.423-2.107-1.27-2.107
			c-0.254,0-0.466,0.025-0.635,0.076v-0.457c1.134-0.372,2.167-0.762,3.098-1.168h0.025v2.514c1.727-1.743,3.14-2.615,4.24-2.615
			c0.677,0,1.21,0.254,1.6,0.762c0.271,0.39,0.516,0.999,0.736,1.828c1.422-1.727,2.852-2.59,4.291-2.59
			c1.083,0,1.819,0.559,2.209,1.676c0.254,0.728,0.381,1.82,0.381,3.275v5.611c0,1.27,0.626,1.93,1.879,1.98V90.746z"/>
		<path d="M95.579,86.43c-0.305,0.999-0.787,1.888-1.447,2.666c-1.016,1.235-2.243,1.854-3.682,1.854
			c-1.405,0-2.531-0.567-3.377-1.701c-0.83-1.1-1.244-2.632-1.244-4.596c0-2.319,0.592-4.122,1.777-5.408
			c0.948-0.999,2.031-1.506,3.25-1.523c1.151,0,2.091,0.364,2.818,1.092c0.847,0.83,1.337,2.074,1.473,3.732h-8.15
			c0.034,2.438,0.474,4.266,1.32,5.484c0.694,1.016,1.6,1.523,2.717,1.523c1.727,0,3.14-1.083,4.24-3.25L95.579,86.43z
			 M93.345,81.834c-0.237-2.149-1.235-3.233-2.996-3.25c-1.558-0.017-2.649,1.066-3.275,3.25H93.345z"/>
		<path d="M104.263,79.193c0,0.593-0.254,0.889-0.762,0.889c-0.305,0-0.635-0.102-0.99-0.305c-0.355-0.22-0.644-0.321-0.863-0.305
			c-0.321,0.034-0.753,0.432-1.295,1.193c-0.524,0.762-0.787,1.38-0.787,1.854l0.025,5.408c0,0.948,0.229,1.6,0.686,1.955
			c0.321,0.254,0.872,0.397,1.65,0.432v0.432h-5.738v-0.432c0.762-0.136,1.27-0.322,1.523-0.559c0.339-0.322,0.508-0.872,0.508-1.65
			v-6.5c0-1.303-0.415-1.955-1.244-1.955c-0.305,0-0.55,0.025-0.736,0.076v-0.432c0.745-0.271,1.862-0.753,3.352-1.447v3.25
			l0.279-0.432c0.762-1.083,1.32-1.811,1.676-2.184c0.474-0.474,0.965-0.711,1.473-0.711
			C103.848,77.771,104.263,78.246,104.263,79.193z"/>
		<path d="M110.407,90.746h-5.814v-0.432c0.88-0.034,1.464-0.203,1.752-0.508c0.355-0.373,0.533-1.108,0.533-2.209v-5.941
			c0-1.303-0.432-1.955-1.295-1.955c-0.203,0-0.482,0.042-0.838,0.127v-0.457c0.813-0.254,1.989-0.728,3.529-1.422v9.648
			c0,0.982,0.144,1.667,0.432,2.057c0.271,0.372,0.838,0.592,1.701,0.66V90.746z M108.376,72.744c0,0.796-0.347,1.193-1.041,1.193
			c-0.321,0-0.575-0.144-0.762-0.432c-0.152-0.237-0.229-0.491-0.229-0.762c0-0.237,0.085-0.491,0.254-0.762
			c0.169-0.254,0.415-0.381,0.736-0.381c0.288,0,0.542,0.11,0.762,0.33C108.283,72.169,108.376,72.439,108.376,72.744z"/>
		<path d="M126.53,87.598c-0.372,0.644-0.99,1.287-1.854,1.93c-1.422,1.032-3.021,1.549-4.799,1.549
			c-2.234,0-4.097-0.745-5.586-2.234c-1.743-1.743-2.615-4.24-2.615-7.49c0-2.996,0.863-5.408,2.59-7.236
			c1.574-1.659,3.495-2.488,5.764-2.488c0.897,0,1.845,0.152,2.844,0.457s1.515,0.457,1.549,0.457c0.44,0,0.736-0.288,0.889-0.863
			l0.66-0.051l0.203,6.119l-0.533,0.051c-0.813-3.571-2.615-5.357-5.408-5.357c-0.796,0-1.608,0.144-2.438,0.432
			c-0.914,0.355-1.634,0.813-2.158,1.371c-1.405,1.574-2.116,3.961-2.133,7.16c-0.017,2.844,0.753,5.062,2.311,6.652
			c1.32,1.354,2.911,2.031,4.773,2.031c2.082,0,3.961-0.981,5.637-2.945L126.53,87.598z"/>
		<path d="M138.769,84.271c0,1.625-0.44,3.089-1.32,4.393c-1.032,1.523-2.396,2.285-4.088,2.285c-1.558,0-2.844-0.635-3.859-1.904
			c-0.999-1.27-1.498-2.86-1.498-4.773c0-1.811,0.474-3.343,1.422-4.596c0.999-1.303,2.276-1.955,3.834-1.955
			c1.642,0,2.971,0.584,3.986,1.752C138.261,80.658,138.769,82.257,138.769,84.271z M137.296,85.059
			c0-1.879-0.397-3.436-1.193-4.672c-0.778-1.235-1.786-1.854-3.021-1.854c-0.931,0-1.727,0.33-2.387,0.99
			c-0.762,0.779-1.151,1.888-1.168,3.326c-0.034,1.828,0.279,3.428,0.939,4.799c0.762,1.642,1.854,2.463,3.275,2.463
			c0.863,0,1.608-0.305,2.234-0.914C136.855,88.334,137.296,86.955,137.296,85.059z"/>
		<path d="M147.706,79.193c0,0.593-0.254,0.889-0.762,0.889c-0.305,0-0.635-0.102-0.99-0.305c-0.355-0.22-0.644-0.321-0.863-0.305
			c-0.321,0.034-0.753,0.432-1.295,1.193c-0.524,0.762-0.787,1.38-0.787,1.854l0.025,5.408c0,0.948,0.229,1.6,0.686,1.955
			c0.321,0.254,0.872,0.397,1.65,0.432v0.432h-5.738v-0.432c0.762-0.136,1.27-0.322,1.523-0.559c0.339-0.322,0.508-0.872,0.508-1.65
			v-6.5c0-1.303-0.415-1.955-1.244-1.955c-0.305,0-0.55,0.025-0.736,0.076v-0.432c0.745-0.271,1.862-0.753,3.352-1.447v3.25
			l0.279-0.432c0.762-1.083,1.32-1.811,1.676-2.184c0.474-0.474,0.965-0.711,1.473-0.711
			C147.291,77.771,147.706,78.246,147.706,79.193z"/>
		<path d="M159.132,83.764c0,1.794-0.432,3.386-1.295,4.773c-0.981,1.574-2.26,2.361-3.834,2.361c-1.066,0-2.031-0.475-2.895-1.422
			v1.93c0,0.947,0.178,1.582,0.533,1.904c0.339,0.321,0.965,0.482,1.879,0.482v0.584h-5.738v-0.559
			c0.762-0.034,1.295-0.246,1.6-0.635c0.237-0.339,0.355-0.863,0.355-1.574V81.479c0-1.235-0.44-1.854-1.32-1.854
			c-0.288,0-0.474,0.009-0.559,0.025v-0.482c0.745-0.22,1.837-0.686,3.275-1.396l-0.025,2.59l0.254-0.381
			c0.981-1.456,2.243-2.184,3.783-2.184c1.117,0,2.057,0.542,2.818,1.625C158.742,80.522,159.132,81.97,159.132,83.764z
			 M157.685,84.627c0-1.252-0.22-2.319-0.66-3.199c-0.644-1.27-1.676-1.904-3.098-1.904c-0.524,0-1.092,0.203-1.701,0.609
			c-0.677,0.423-1.05,0.906-1.117,1.447v6.424c0,0.406,0.313,0.83,0.939,1.27c0.626,0.457,1.286,0.686,1.98,0.686
			C156.466,89.959,157.685,88.182,157.685,84.627z"/>
	</g>
</g>
<g id="Layer_4">
	<g>
		<path fill="#231F20" d="M173.903,68.097c0,0,0.031,0.386,0.092,1.134c0.015,0.188,0.03,0.397,0.048,0.629
			c-0.011,0.237-0.022,0.498-0.035,0.78c-0.013,0.283-0.027,0.589-0.043,0.916c-0.038,0.323-0.108,0.663-0.166,1.027
			c-0.221,1.457-0.791,3.206-1.762,5.099c-0.967,1.895-2.313,3.962-4.137,6.005c-3.636,4.087-8.795,8.387-15.334,12.313
			c-6.533,3.921-14.317,7.683-23.149,10.857c-8.825,3.198-18.713,5.707-29.297,7.49c-2.652,0.438-5.333,0.811-8.083,1.161
			c-2.701,0.322-5.488,0.575-8.305,0.805c-5.614,0.433-11.364,0.661-17.208,0.619c-5.844-0.035-11.777-0.369-17.757-0.932
			c-2.989-0.298-5.988-0.675-8.991-1.127c-3.004-0.456-5.998-1.067-8.995-1.728c-5.959-1.425-11.939-3.26-17.457-6.291
			c-2.754-1.502-5.399-3.319-7.63-5.664c-0.552-0.588-1.059-1.228-1.563-1.866c-0.434-0.693-0.959-1.331-1.3-2.09l-0.562-1.106
			l-0.43-1.172l-0.212-0.588l-0.141-0.61l-0.138-0.611L1.28,92.841l-0.034-0.153c-0.015-0.083-0.015-0.032-0.042-0.224l-0.114-1.156
			l-0.057-0.579l0.014-0.65l0.042-1.308l0.188-1.239c0.088-0.839,0.387-1.616,0.586-2.426c0.281-0.774,0.567-1.555,0.912-2.3
			c1.404-2.977,3.376-5.588,5.56-7.918c4.422-4.641,9.651-8.229,14.999-11.369c5.389-3.085,10.979-5.66,16.617-7.861
			c5.638-2.207,11.32-4.07,16.974-5.653c5.65-1.6,11.291-2.85,16.842-3.876c5.559-1.041,11.013-1.798,16.366-2.336
			c10.709-1.097,20.899-1.37,30.272-0.706c9.37,0.636,17.893,2.1,25.259,4.064c7.373,1.96,13.527,4.662,18.155,7.586
			c2.318,1.46,4.188,3.074,5.641,4.63c1.456,1.554,2.486,3.079,3.101,4.419c0.156,0.333,0.317,0.642,0.443,0.941
			c0.104,0.308,0.201,0.596,0.292,0.862c0.09,0.267,0.173,0.512,0.248,0.735c0.048,0.231,0.091,0.44,0.13,0.627l0.228,1.135
			L173.903,68.097z M173.505,68.137c0-0.002-0.08-0.372-0.235-1.092c-0.039-0.181-0.084-0.383-0.133-0.606
			c-0.076-0.216-0.16-0.453-0.251-0.71c-0.091-0.257-0.188-0.534-0.294-0.832c-0.126-0.289-0.287-0.586-0.442-0.907
			c-1.223-2.573-4.066-5.914-8.729-8.611c-4.607-2.775-10.859-4.936-18.176-6.469c-7.335-1.52-15.78-2.291-24.981-2.458
			c-9.201-0.142-19.195,0.287-29.662,1.483c-5.236,0.617-10.619,1.415-16.06,2.393c-5.447,0.995-10.969,2.233-16.533,3.675
			C46.91,56.938,35.611,60.876,25.06,66.591c-5.24,2.875-10.348,6.188-14.58,10.388c-2.119,2.08-4.017,4.39-5.372,6.966
			c-0.333,0.644-0.608,1.312-0.887,1.977c-0.192,0.687-0.497,1.356-0.593,2.062l-0.21,1.049l-0.078,1.014l-0.045,0.51l0.032,0.58
			l0.063,1.16c-0.007-0.097,0.013,0.049,0.018,0.062l0.025,0.131l0.05,0.262l0.098,0.526l0.097,0.526l0.167,0.511l0.329,1.024
			l0.456,0.981c0.265,0.676,0.722,1.259,1.079,1.895c0.434,0.589,0.868,1.186,1.353,1.743c1.961,2.224,4.399,4.061,7.003,5.601
			c2.622,1.521,5.412,2.766,8.262,3.826c2.866,1.025,5.794,1.854,8.737,2.575c11.831,2.743,23.897,3.293,35.428,2.818
			c5.774-0.233,11.438-0.714,16.952-1.393c2.746-0.345,5.453-0.73,8.166-1.155c2.662-0.407,5.32-0.843,7.911-1.337
			c10.396-1.893,20.094-4.313,28.89-7.046c8.786-2.752,16.683-5.848,23.306-9.354c6.603-3.51,12.013-7.323,15.667-11.276
			c3.73-3.89,5.527-7.898,5.982-10.712c0.061-0.352,0.132-0.683,0.172-0.995c0.018-0.313,0.034-0.604,0.05-0.874
			s0.03-0.519,0.043-0.746c-0.015-0.231-0.029-0.441-0.041-0.628C173.536,68.563,173.509,68.184,173.505,68.137z"/>
	</g>
	<g>
	</g>
	<g>
	</g>
	<g>
	</g>
	<g>
	</g>
	<g>
	</g>
	<g>
	</g>
</g>
</svg>
