<?xml version="1.0" encoding="utf-8"?>
<!-- Generator: Adobe Illustrator 16.0.0, SVG Export Plug-In . SVG Version: 6.00 Build 0)  -->
<!DOCTYPE svg PUBLIC "-//W3C//DTD SVG 1.1//EN" "http://www.w3.org/Graphics/SVG/1.1/DTD/svg11.dtd">
<svg version="1.1" xmlns="http://www.w3.org/2000/svg" xmlns:xlink="http://www.w3.org/1999/xlink" x="0px" y="0px" width="176px"
	 height="176px" viewBox="0 0 176 176" enable-background="new 0 0 176 176" xml:space="preserve">
<g id="Layer_2">
	
		<rect x="0.5" y="0.5" fill-rule="evenodd" clip-rule="evenodd" fill="none" stroke="#E0DDC5" stroke-miterlimit="10" width="175" height="175"/>
</g>
<g id="Layer_4">
	<g>
		<rect x="3.875" y="33.375" fill-rule="evenodd" clip-rule="evenodd" fill="none" width="168.25" height="109.25"/>
		<path d="M28.889,64.125h-3.684L13.534,41.663v22.462H9.851V34.977h3.684l11.711,22.562V34.977h3.644V64.125z"/>
		<path d="M33.666,52.293c0-3.149,0.764-5.642,2.292-7.477c1.528-1.835,3.546-2.753,6.056-2.753c2.509,0,4.527,0.895,6.056,2.683
			c1.528,1.789,2.313,4.224,2.353,7.307v2.282c0,3.137-0.761,5.619-2.282,7.447c-1.521,1.829-3.55,2.743-6.086,2.743
			c-2.509,0-4.521-0.887-6.036-2.663c-1.515-1.775-2.299-4.177-2.352-7.207V52.293z M37.209,54.335c0,2.229,0.437,3.981,1.312,5.255
			c0.874,1.274,2.052,1.912,3.533,1.912c3.123,0,4.731-2.255,4.825-6.767v-2.442c0-2.215-0.44-3.967-1.321-5.255
			c-0.881-1.288-2.062-1.932-3.543-1.932c-1.455,0-2.62,0.644-3.493,1.932c-0.875,1.289-1.312,3.033-1.312,5.235V54.335z"/>
		<path d="M60.505,58.74l4.104-16.276h3.604l-6.426,21.661h-2.643l-6.506-21.661h3.604L60.505,58.74z"/>
		<path d="M79.055,64.525c-2.696,0-4.765-0.804-6.206-2.412s-2.176-3.967-2.202-7.077v-2.623c0-3.229,0.704-5.762,2.112-7.597
			s3.374-2.753,5.896-2.753c2.536,0,4.431,0.808,5.686,2.422c1.254,1.615,1.895,4.131,1.922,7.547v2.322H74.17v0.5
			c0,2.322,0.437,4.011,1.311,5.065c0.874,1.055,2.132,1.582,3.774,1.582c1.041,0,1.958-0.197,2.752-0.59s1.538-1.018,2.232-1.872
			l1.842,2.242C84.547,63.444,82.205,64.525,79.055,64.525z M78.655,45.106c-1.468,0-2.556,0.504-3.263,1.512
			c-0.708,1.008-1.108,2.572-1.201,4.694h8.528v-0.48c-0.094-2.055-0.464-3.523-1.111-4.404S79.976,45.106,78.655,45.106z"/>
		<path d="M93.521,42.464l0.08,2.002c1.32-1.602,3.063-2.402,5.225-2.402c2.416,0,4.104,1.048,5.064,3.143
			c1.361-2.095,3.258-3.143,5.686-3.143c3.992,0,6.033,2.489,6.127,7.467v14.594h-3.523V49.871c0-1.575-0.281-2.746-0.842-3.514
			c-0.561-0.767-1.508-1.151-2.842-1.151c-1.068,0-1.936,0.414-2.604,1.241c-0.666,0.828-1.053,1.882-1.16,3.163v14.514h-3.564
			V49.711c-0.039-3.003-1.26-4.504-3.662-4.504c-1.789,0-3.051,0.895-3.785,2.683v16.236h-3.522V42.464H93.521z"/>
		<path d="M136.396,54.335c0,3.377-0.607,5.919-1.822,7.627c-1.214,1.708-2.976,2.563-5.285,2.563c-2.295,0-4.017-0.987-5.164-2.963
			l-0.181,2.563h-3.224v-30.75h3.523v11.471c1.162-1.855,2.83-2.783,5.006-2.783c2.375,0,4.156,0.841,5.345,2.522
			c1.188,1.682,1.788,4.218,1.802,7.607V54.335z M132.872,52.305c0-2.56-0.357-4.382-1.071-5.468s-1.872-1.63-3.474-1.63
			c-1.828,0-3.189,0.987-4.084,2.959v10.298c0.881,1.946,2.256,2.919,4.125,2.919c1.602,0,2.749-0.56,3.443-1.68
			c0.693-1.12,1.047-2.859,1.061-5.219V52.305z"/>
		<path d="M148.34,64.525c-2.696,0-4.766-0.804-6.207-2.412s-2.175-3.967-2.201-7.077v-2.623c0-3.229,0.703-5.762,2.111-7.597
			s3.373-2.753,5.896-2.753c2.535,0,4.431,0.808,5.686,2.422c1.254,1.615,1.895,4.131,1.922,7.547v2.322h-12.092v0.5
			c0,2.322,0.437,4.011,1.311,5.065c0.874,1.055,2.133,1.582,3.773,1.582c1.041,0,1.959-0.197,2.753-0.59s1.538-1.018,2.232-1.872
			l1.842,2.242C153.831,63.444,151.489,64.525,148.34,64.525z M147.939,45.106c-1.469,0-2.557,0.504-3.264,1.512
			c-0.708,1.008-1.108,2.572-1.201,4.694h8.528v-0.48c-0.094-2.055-0.464-3.523-1.111-4.404S149.26,45.106,147.939,45.106z"/>
		<path d="M168.411,45.787c-0.494-0.093-1.028-0.14-1.602-0.14c-1.815,0-3.084,0.995-3.805,2.983v15.495h-3.543V42.464h3.443
			l0.061,2.202c0.947-1.735,2.288-2.603,4.023-2.603c0.561,0,1.027,0.094,1.401,0.28L168.411,45.787z"/>
		<path d="M66.3,88.713h-9.169v7.728h10.851v4.885H51.246V72.177h16.696v4.905H57.131v6.887H66.3V88.713z"/>
		<path d="M78.204,97.061c1.642,0,2.476-1.08,2.502-3.242h5.325c-0.027,2.361-0.754,4.271-2.182,5.725
			c-1.428,1.455-3.27,2.183-5.525,2.183c-2.79,0-4.918-0.867-6.386-2.603c-1.468-1.734-2.216-4.291-2.242-7.668v-1.721
			c0-3.404,0.724-6,2.172-7.788c1.448-1.788,3.586-2.683,6.416-2.683c2.389,0,4.271,0.738,5.646,2.212
			c1.375,1.475,2.075,3.567,2.102,6.276h-5.325c-0.014-1.228-0.214-2.171-0.601-2.833c-0.387-0.661-1.028-0.991-1.922-0.991
			c-0.988,0-1.695,0.353-2.122,1.058c-0.427,0.705-0.654,2.071-0.681,4.099v2.216c0,1.772,0.086,3.012,0.26,3.717
			c0.173,0.704,0.46,1.221,0.861,1.551C76.903,96.896,77.47,97.061,78.204,97.061z"/>
		<path d="M94.434,81.566c1.227-1.535,2.734-2.302,4.523-2.302c1.975,0,3.477,0.694,4.504,2.082
			c1.027,1.388,1.549,3.457,1.563,6.206v13.773h-5.686V87.612c0-1.268-0.197-2.185-0.592-2.752c-0.393-0.567-1.029-0.851-1.91-0.851
			c-1.029,0-1.83,0.474-2.402,1.421v15.896h-5.667v-30.75h5.667V81.566z"/>
		<path d="M108.097,89.794c0-3.283,0.773-5.859,2.322-7.728c1.548-1.868,3.69-2.803,6.427-2.803c2.762,0,4.917,0.935,6.466,2.803
			c1.548,1.869,2.322,4.458,2.322,7.768v1.381c0,3.297-0.768,5.873-2.302,7.729c-1.535,1.855-3.684,2.782-6.447,2.782
			c-2.775,0-4.935-0.931-6.476-2.793c-1.542-1.861-2.313-4.447-2.313-7.757V89.794z M113.782,91.22c0,3.895,1.034,5.841,3.103,5.841
			c1.909,0,2.937-1.624,3.084-4.874l0.02-2.397c0-1.987-0.273-3.46-0.82-4.421c-0.548-0.96-1.322-1.44-2.322-1.44
			c-0.961,0-1.712,0.48-2.253,1.44c-0.54,0.96-0.811,2.434-0.811,4.421V91.22z"/>
		<path d="M72.366,125.652h-9.85v12.873h-3.664v-29.148h15.175v3.143H62.517v9.99h9.85V125.652z"/>
		<path d="M81.828,111.119c0,0.6-0.167,1.101-0.5,1.501c-0.334,0.4-0.841,0.601-1.521,0.601c-0.667,0-1.168-0.2-1.501-0.601
			c-0.334-0.4-0.5-0.901-0.5-1.501c0-0.602,0.167-1.107,0.5-1.521c0.333-0.414,0.834-0.621,1.501-0.621
			c0.667,0,1.171,0.21,1.512,0.631C81.657,110.027,81.828,110.531,81.828,111.119z M81.547,138.525h-3.543v-21.661h3.543V138.525z"
			/>
		<path d="M92.932,133.141l4.104-16.276h3.604l-6.426,21.661H91.57l-6.507-21.661h3.604L92.932,133.141z"/>
		<path d="M111.482,138.926c-2.696,0-4.766-0.804-6.207-2.412s-2.175-3.967-2.201-7.077v-2.622c0-3.23,0.703-5.763,2.111-7.598
			s3.373-2.753,5.896-2.753c2.535,0,4.431,0.808,5.686,2.423c1.254,1.614,1.895,4.131,1.922,7.547v2.322h-12.092v0.5
			c0,2.322,0.437,4.012,1.311,5.065c0.874,1.055,2.133,1.581,3.773,1.581c1.041,0,1.959-0.196,2.753-0.59s1.538-1.018,2.232-1.872
			l1.842,2.242C116.974,137.845,114.632,138.926,111.482,138.926z M111.082,119.507c-1.469,0-2.557,0.504-3.264,1.512
			c-0.708,1.008-1.108,2.572-1.201,4.694h8.528v-0.48c-0.094-2.055-0.464-3.523-1.111-4.404S112.402,119.507,111.082,119.507z"/>
	</g>
	<g>
	</g>
	<g>
	</g>
	<g>
	</g>
	<g>
	</g>
	<g>
	</g>
	<g>
	</g>
</g>
</svg>
