<?xml version="1.0" encoding="utf-8"?>
<!DOCTYPE svg PUBLIC "-//W3C//DTD SVG 1.1//EN" "http://www.w3.org/Graphics/SVG/1.1/DTD/svg11.dtd">
<svg version="1.1" xmlns="http://www.w3.org/2000/svg" xmlns:xlink="http://www.w3.org/1999/xlink" x="0px" y="0px" width="176px"
	 height="176px" viewBox="0 0 176 176" enable-background="new 0 0 176 176" xml:space="preserve">
<g id="Layer_2">
	
		<rect x="0.5" y="0.5" fill-rule="evenodd" clip-rule="evenodd" fill="none" stroke="#E0DDC5" stroke-miterlimit="10" width="175" height="175"/>
</g>
<g id="Layer_3">
	<g>
		<rect x="6.25" y="129.5" fill-rule="evenodd" clip-rule="evenodd" fill="none" width="163.5" height="37"/>
		<path d="M13.526,141.162c0.046,1.793,0.345,2.391,0.805,2.553c0.391,0.138,0.828,0.16,1.196,0.16c0.253,0,0.391,0.047,0.391,0.184
			c0,0.185-0.207,0.23-0.529,0.23c-1.495,0-2.415-0.068-2.851-0.068c-0.207,0-1.288,0.068-2.484,0.068
			c-0.299,0-0.506-0.023-0.506-0.23c0-0.137,0.138-0.184,0.368-0.184c0.299,0,0.713-0.022,1.035-0.115
			c0.598-0.184,0.69-0.85,0.713-2.851l0.207-13.544c0-0.461,0.069-0.782,0.299-0.782c0.253,0,0.46,0.299,0.851,0.713
			c0.276,0.299,3.771,3.978,7.128,7.313c1.563,1.563,4.668,4.875,5.059,5.243h0.115l-0.23-10.325
			c-0.023-1.403-0.23-1.839-0.782-2.069c-0.345-0.139-0.897-0.139-1.219-0.139c-0.276,0-0.368-0.068-0.368-0.207
			c0-0.184,0.253-0.207,0.598-0.207c1.195,0,2.299,0.07,2.782,0.07c0.253,0,1.126-0.07,2.253-0.07c0.299,0,0.529,0.023,0.529,0.207
			c0,0.139-0.138,0.207-0.414,0.207c-0.23,0-0.414,0-0.69,0.069c-0.644,0.185-0.828,0.667-0.851,1.954l-0.253,14.511
			c0,0.506-0.092,0.712-0.299,0.712c-0.253,0-0.529-0.252-0.782-0.506c-1.449-1.379-4.392-4.392-6.784-6.76
			c-2.506-2.483-5.059-5.289-5.473-5.727h-0.069L13.526,141.162z"/>
		<path d="M31.121,136.885c0-3.334,2.346-7.657,8.485-7.657c5.105,0,8.278,2.828,8.278,7.313c0,4.483-3.265,8.002-8.485,8.002
			C33.513,144.542,31.121,140.357,31.121,136.885z M44.873,137.253c0-4.323-2.599-6.991-5.864-6.991
			c-2.254,0-4.898,1.196-4.898,6.025c0,4.023,2.299,7.197,6.117,7.197C41.653,143.484,44.873,142.817,44.873,137.253z"/>
		<path d="M51.66,135.16c0-2.967,0-3.518-0.023-4.139c-0.046-0.668-0.23-0.874-0.874-1.059c-0.161-0.045-0.506-0.068-0.805-0.068
			c-0.207,0-0.345-0.069-0.345-0.207c0-0.139,0.161-0.184,0.46-0.184c1.058,0,2.346,0.045,2.759,0.045c0.69,0,2.53-0.045,3.15-0.045
			c1.288,0,2.759,0.114,3.84,0.827c0.575,0.392,1.426,1.38,1.426,2.69c0,1.449-0.828,2.736-2.806,4.323
			c1.793,2.208,3.219,3.978,4.438,5.196c1.127,1.127,1.84,1.219,2.162,1.288c0.207,0.046,0.322,0.046,0.483,0.046
			s0.253,0.115,0.253,0.207c0,0.161-0.138,0.207-0.391,0.207h-1.931c-1.127,0-1.679-0.115-2.208-0.391
			c-0.874-0.438-1.633-1.357-2.76-2.875c-0.805-1.057-1.655-2.368-1.908-2.667c-0.115-0.114-0.23-0.138-0.368-0.138l-1.816-0.047
			c-0.092,0-0.161,0.047-0.161,0.162v0.275c0,1.816,0.023,3.334,0.115,4.162c0.069,0.574,0.161,0.943,0.782,1.035
			c0.299,0.046,0.736,0.068,0.989,0.068c0.161,0,0.253,0.115,0.253,0.207c0,0.139-0.161,0.207-0.414,0.207
			c-1.173,0-2.852-0.068-3.15-0.068c-0.391,0-1.679,0.068-2.483,0.068c-0.253,0-0.391-0.068-0.391-0.207
			c0-0.092,0.069-0.207,0.322-0.207c0.299,0,0.529-0.022,0.713-0.068c0.414-0.092,0.529-0.461,0.598-1.035
			c0.092-0.828,0.092-2.369,0.092-4.162V135.16z M54.235,136.678c0,0.207,0.046,0.275,0.184,0.346
			c0.437,0.137,1.035,0.184,1.541,0.184c0.805,0,1.081-0.069,1.426-0.322c0.621-0.438,1.311-1.287,1.311-2.897
			c0-2.759-1.886-3.472-3.081-3.472c-0.506,0-0.989,0.022-1.196,0.068c-0.138,0.047-0.184,0.115-0.184,0.276V136.678z"/>
		<path d="M69.254,130.699l-3.012,0.068c-1.173,0.023-1.656,0.162-1.955,0.599c-0.207,0.276-0.299,0.528-0.345,0.667
			c-0.046,0.16-0.092,0.252-0.23,0.252c-0.138,0-0.184-0.114-0.184-0.321c0-0.321,0.391-2.208,0.437-2.368
			c0.046-0.254,0.115-0.368,0.23-0.368c0.161,0,0.368,0.161,0.874,0.229c0.598,0.069,1.357,0.092,2.024,0.092h8.209
			c0.644,0,1.081-0.045,1.38-0.092c0.322-0.045,0.483-0.092,0.552-0.092c0.138,0,0.161,0.115,0.161,0.414
			c0,0.414-0.046,1.863-0.046,2.369c-0.023,0.207-0.069,0.321-0.184,0.321c-0.161,0-0.207-0.092-0.23-0.391l-0.023-0.207
			c-0.046-0.506-0.575-1.104-2.392-1.127l-2.552-0.046v7.91c0,1.793,0.023,3.334,0.115,4.186c0.069,0.551,0.184,0.92,0.782,1.012
			c0.276,0.046,0.736,0.068,1.035,0.068c0.23,0,0.322,0.115,0.322,0.207c0,0.139-0.161,0.207-0.391,0.207
			c-1.333,0-2.69-0.068-3.265-0.068c-0.46,0-1.84,0.068-2.645,0.068c-0.253,0-0.391-0.068-0.391-0.207
			c0-0.092,0.069-0.207,0.322-0.207c0.299,0,0.552-0.022,0.713-0.068c0.414-0.092,0.529-0.461,0.598-1.035
			c0.092-0.828,0.092-2.369,0.092-4.162V130.699z"/>
		<path d="M91.608,135.873c0.046,0,0.115-0.023,0.115-0.139v-0.413c0-2.966-0.023-3.679-0.046-4.3
			c-0.046-0.668-0.23-0.874-0.874-1.059c-0.161-0.045-0.506-0.068-0.782-0.068c-0.229,0-0.345-0.069-0.345-0.207
			c0-0.139,0.138-0.184,0.438-0.184c1.08,0,2.506,0.045,3.035,0.045c0.482,0,1.816-0.045,2.599-0.045
			c0.299,0,0.437,0.045,0.437,0.184c0,0.138-0.138,0.207-0.368,0.207c-0.161,0-0.345,0.023-0.598,0.068
			c-0.529,0.092-0.689,0.368-0.736,1.059c-0.046,0.621-0.046,1.172-0.046,4.139v3.449c0,1.793,0,3.334,0.093,4.186
			c0.068,0.551,0.184,0.92,0.805,1.012c0.275,0.046,0.713,0.068,1.034,0.068c0.207,0,0.322,0.115,0.322,0.207
			c0,0.139-0.161,0.207-0.414,0.207c-1.311,0-2.645-0.068-3.196-0.068c-0.46,0-1.886,0.068-2.667,0.068
			c-0.276,0-0.438-0.068-0.438-0.207c0-0.092,0.092-0.207,0.322-0.207c0.322,0,0.552-0.022,0.735-0.068
			c0.414-0.092,0.529-0.461,0.599-1.035c0.092-0.828,0.092-2.322,0.092-4.116v-1.495c0-0.068-0.069-0.114-0.115-0.114h-7.634
			c-0.069,0-0.138,0.022-0.138,0.114v1.495c0,1.794,0.023,3.288,0.115,4.14c0.069,0.551,0.184,0.92,0.782,1.012
			c0.276,0.046,0.736,0.068,1.035,0.068c0.23,0,0.322,0.115,0.322,0.207c0,0.139-0.161,0.207-0.414,0.207
			c-1.311,0-2.713-0.068-3.288-0.068c-0.46,0-1.794,0.068-2.599,0.068c-0.253,0-0.391-0.068-0.391-0.207
			c0-0.092,0.069-0.207,0.322-0.207c0.299,0,0.529-0.022,0.713-0.068c0.414-0.092,0.529-0.461,0.598-1.035
			c0.092-0.828,0.092-2.369,0.092-4.162v-3.449c0-2.967,0-3.518-0.023-4.139c-0.046-0.668-0.23-0.874-0.874-1.059
			c-0.161-0.045-0.506-0.068-0.805-0.068c-0.207,0-0.345-0.069-0.345-0.207c0-0.139,0.161-0.184,0.437-0.184
			c1.081,0,2.415,0.045,2.966,0.045c0.483,0,1.886-0.045,2.69-0.045c0.276,0,0.414,0.045,0.414,0.184
			c0,0.138-0.115,0.207-0.368,0.207c-0.161,0-0.345,0.023-0.575,0.068c-0.552,0.092-0.713,0.368-0.759,1.059
			c-0.046,0.621-0.046,1.334-0.046,4.3v0.413c0,0.115,0.069,0.139,0.138,0.139H91.608z"/>
		<path d="M99.2,131.412c-0.253-0.713-0.413-1.173-0.712-1.357c-0.207-0.137-0.599-0.16-0.782-0.16
			c-0.207,0-0.322-0.069-0.322-0.207c0-0.139,0.161-0.184,0.46-0.184c1.035,0,2.162,0.045,2.346,0.045s1.173-0.045,2.346-0.045
			c0.299,0,0.437,0.045,0.437,0.184c0,0.138-0.161,0.207-0.368,0.207c-0.16,0-0.345,0.023-0.506,0.092
			c-0.184,0.068-0.207,0.184-0.207,0.391c0,0.254,0.185,0.896,0.438,1.794c0.345,1.288,2.185,7.197,2.483,8.095h0.069l3.862-10.004
			c0.207-0.551,0.414-0.713,0.599-0.713c0.229,0,0.413,0.299,0.666,0.92l4.048,9.658h0.068c0.392-1.127,1.932-6.277,2.645-8.555
			c0.139-0.459,0.207-0.85,0.207-1.126c0-0.321-0.184-0.552-0.988-0.552c-0.185,0-0.346-0.092-0.346-0.207
			c0-0.139,0.161-0.184,0.483-0.184c1.058,0,1.978,0.045,2.161,0.045c0.139,0,1.012-0.045,1.679-0.045
			c0.23,0,0.368,0.045,0.368,0.16c0,0.139-0.092,0.23-0.276,0.23c-0.206,0-0.482,0.023-0.712,0.092
			c-0.483,0.184-0.713,0.92-1.127,2.047c-0.943,2.46-3.013,8.669-4.001,11.59c-0.23,0.689-0.346,0.919-0.645,0.919
			c-0.275,0-0.414-0.229-0.713-0.942l-4.116-9.658h-0.046c-0.345,0.828-3.058,7.772-3.886,9.566
			c-0.368,0.805-0.483,1.034-0.782,1.034c-0.253,0-0.367-0.207-0.552-0.713L99.2,131.412z"/>
		<path d="M123.028,135.16c0-2.967,0-3.518-0.023-4.139c-0.046-0.668-0.253-0.896-0.689-1.035c-0.23-0.068-0.483-0.092-0.736-0.092
			c-0.207,0-0.321-0.047-0.321-0.23c0-0.115,0.16-0.16,0.482-0.16c0.759,0,2.139,0.045,2.714,0.045c0.506,0,1.816-0.045,2.598-0.045
			c0.253,0,0.414,0.045,0.414,0.16c0,0.184-0.114,0.23-0.321,0.23s-0.368,0.023-0.599,0.068c-0.552,0.092-0.713,0.368-0.759,1.059
			c-0.046,0.621-0.046,1.172-0.046,4.139v3.449c0,1.886,0,3.449,0.092,4.277c0.069,0.529,0.207,0.828,0.806,0.92
			c0.275,0.046,0.735,0.068,1.034,0.068c0.23,0,0.322,0.115,0.322,0.207c0,0.139-0.161,0.207-0.391,0.207
			c-1.334,0-2.714-0.068-3.266-0.068c-0.46,0-1.84,0.068-2.645,0.068c-0.253,0-0.391-0.068-0.391-0.207
			c0-0.092,0.068-0.207,0.321-0.207c0.299,0,0.529-0.022,0.713-0.068c0.414-0.092,0.529-0.368,0.599-0.943
			c0.092-0.805,0.092-2.368,0.092-4.254V135.16z"/>
		<path d="M133.654,141.621c0.046,1.519,0.299,1.979,0.689,2.116c0.345,0.115,0.736,0.138,1.058,0.138
			c0.23,0,0.346,0.092,0.346,0.207c0,0.161-0.185,0.207-0.46,0.207c-1.312,0-2.254-0.068-2.622-0.068
			c-0.184,0-1.149,0.068-2.185,0.068c-0.275,0-0.46-0.023-0.46-0.207c0-0.115,0.139-0.207,0.322-0.207
			c0.276,0,0.644-0.022,0.92-0.092c0.529-0.138,0.598-0.667,0.621-2.368l0.184-11.59c0-0.391,0.138-0.667,0.345-0.667
			c0.253,0,0.529,0.299,0.874,0.645c0.253,0.252,3.288,3.357,6.231,6.231c1.38,1.356,4.07,4.116,4.369,4.392h0.092l-0.207-8.691
			c-0.022-1.196-0.206-1.541-0.689-1.725c-0.299-0.115-0.782-0.115-1.058-0.115c-0.253,0-0.322-0.092-0.322-0.207
			c0-0.161,0.207-0.184,0.506-0.184c1.058,0,2.139,0.045,2.576,0.045c0.229,0,0.988-0.045,1.978-0.045
			c0.275,0,0.459,0.022,0.459,0.184c0,0.115-0.114,0.207-0.345,0.207c-0.207,0-0.367,0-0.62,0.068
			c-0.553,0.162-0.713,0.506-0.736,1.609l-0.229,12.326c0,0.437-0.161,0.621-0.322,0.621c-0.345,0-0.621-0.207-0.828-0.414
			c-1.265-1.173-3.794-3.588-5.909-5.634c-2.208-2.116-4.347-4.484-4.737-4.829h-0.069L133.654,141.621z"/>
		<path d="M151.732,135.16c0-2.967,0-3.518-0.023-4.139c-0.046-0.668-0.229-0.874-0.874-1.059c-0.16-0.045-0.506-0.068-0.805-0.068
			c-0.207,0-0.345-0.069-0.345-0.207c0-0.139,0.161-0.184,0.46-0.184c1.058,0,2.346,0.045,2.92,0.045
			c0.621,0,2.07-0.045,3.289-0.045c2.529,0,5.933,0,8.14,2.23c1.012,1.012,1.909,2.645,1.909,4.967c0,2.46-1.058,4.322-2.208,5.449
			c-0.92,0.92-3.059,2.3-6.783,2.3c-0.736,0-1.609-0.069-2.415-0.115c-0.805-0.069-1.54-0.114-2.046-0.114
			c-0.23,0-0.667,0.022-1.15,0.022c-0.482,0.022-0.988,0.046-1.402,0.046c-0.253,0-0.391-0.068-0.391-0.207
			c0-0.092,0.068-0.207,0.321-0.207c0.3,0,0.529-0.022,0.713-0.068c0.414-0.092,0.529-0.461,0.599-1.035
			c0.092-0.828,0.092-2.369,0.092-4.162V135.16z M154.445,137.322c0,2.068,0.023,3.563,0.046,3.955
			c0.023,0.482,0.069,1.172,0.23,1.379c0.253,0.368,1.058,0.782,2.645,0.782c1.839,0,3.196-0.322,4.415-1.334
			c1.311-1.081,1.725-2.828,1.725-4.852c0-2.483-0.989-4.093-1.886-4.875c-1.862-1.655-4.07-1.862-5.657-1.862
			c-0.413,0-1.08,0.045-1.241,0.138c-0.185,0.069-0.253,0.161-0.253,0.391c-0.023,0.667-0.023,2.276-0.023,3.817V137.322z"/>
		<path d="M41.746,147.793l-3.426,0.092c-1.334,0.045-1.886,0.16-2.23,0.666c-0.23,0.346-0.345,0.621-0.391,0.805
			c-0.046,0.185-0.115,0.276-0.253,0.276c-0.161,0-0.207-0.114-0.207-0.368c0-0.367,0.437-2.46,0.483-2.645
			c0.069-0.299,0.138-0.437,0.276-0.437c0.184,0,0.414,0.229,0.989,0.276c0.667,0.068,1.541,0.115,2.3,0.115h9.106
			c0.736,0,1.242-0.07,1.586-0.115c0.345-0.069,0.529-0.115,0.621-0.115c0.161,0,0.184,0.138,0.184,0.482
			c0,0.483-0.069,2.07-0.069,2.668c-0.023,0.23-0.069,0.367-0.207,0.367c-0.184,0-0.23-0.114-0.253-0.459l-0.023-0.254
			c-0.046-0.598-0.667-1.241-2.713-1.287l-2.897-0.068v9.428c0,2.115,0,3.932,0.115,4.92c0.069,0.645,0.207,1.15,0.897,1.242
			c0.322,0.046,0.828,0.092,1.172,0.092c0.253,0,0.368,0.069,0.368,0.184c0,0.162-0.184,0.23-0.437,0.23
			c-1.518,0-2.966-0.068-3.61-0.068c-0.529,0-1.978,0.068-2.897,0.068c-0.299,0-0.46-0.068-0.46-0.23
			c0-0.114,0.092-0.184,0.368-0.184c0.345,0,0.621-0.046,0.828-0.092c0.46-0.092,0.598-0.598,0.667-1.265
			c0.115-0.966,0.115-2.782,0.115-4.897V147.793z"/>
		<path d="M54.558,154.76c0-2.967,0-3.518-0.023-4.139c-0.046-0.668-0.23-0.874-0.874-1.059c-0.161-0.045-0.506-0.068-0.805-0.068
			c-0.207,0-0.345-0.069-0.345-0.207c0-0.139,0.161-0.184,0.46-0.184c1.058,0,2.346,0.045,2.759,0.045c0.69,0,2.53-0.045,3.15-0.045
			c1.288,0,2.759,0.114,3.84,0.827c0.575,0.392,1.426,1.38,1.426,2.69c0,1.449-0.828,2.736-2.806,4.323
			c1.793,2.208,3.219,3.978,4.438,5.196c1.127,1.127,1.84,1.219,2.162,1.288c0.207,0.046,0.322,0.046,0.483,0.046
			s0.253,0.115,0.253,0.207c0,0.161-0.138,0.207-0.391,0.207h-1.931c-1.127,0-1.679-0.115-2.208-0.391
			c-0.874-0.438-1.633-1.357-2.76-2.875c-0.805-1.057-1.655-2.368-1.908-2.667c-0.115-0.114-0.23-0.138-0.368-0.138l-1.816-0.047
			c-0.092,0-0.161,0.047-0.161,0.162v0.275c0,1.816,0.023,3.334,0.115,4.162c0.069,0.574,0.161,0.943,0.782,1.035
			c0.299,0.046,0.736,0.068,0.989,0.068c0.161,0,0.253,0.115,0.253,0.207c0,0.139-0.161,0.207-0.414,0.207
			c-1.173,0-2.852-0.068-3.15-0.068c-0.391,0-1.679,0.068-2.483,0.068c-0.253,0-0.391-0.068-0.391-0.207
			c0-0.092,0.069-0.207,0.322-0.207c0.299,0,0.529-0.022,0.713-0.068c0.414-0.092,0.529-0.461,0.598-1.035
			c0.092-0.828,0.092-2.369,0.092-4.162V154.76z M57.133,156.277c0,0.207,0.046,0.275,0.184,0.346
			c0.437,0.137,1.035,0.184,1.541,0.184c0.805,0,1.081-0.069,1.426-0.322c0.621-0.438,1.311-1.287,1.311-2.897
			c0-2.759-1.886-3.472-3.081-3.472c-0.506,0-0.989,0.022-1.196,0.068c-0.138,0.047-0.184,0.115-0.184,0.276V156.277z"/>
		<path d="M71.209,158.945c-0.115,0-0.138,0.022-0.184,0.138l-1.081,2.644c-0.207,0.483-0.299,0.967-0.299,1.196
			c0,0.345,0.184,0.552,0.805,0.552h0.299c0.253,0,0.299,0.092,0.299,0.207c0,0.161-0.115,0.207-0.322,0.207
			c-0.667,0-1.609-0.068-2.253-0.068c-0.207,0-1.288,0.068-2.346,0.068c-0.253,0-0.368-0.046-0.368-0.207
			c0-0.115,0.069-0.207,0.23-0.207c0.184,0,0.414-0.022,0.598-0.022c0.92-0.138,1.265-0.736,1.679-1.726l5.289-12.209
			c0.23-0.553,0.391-0.782,0.598-0.782c0.299,0,0.391,0.184,0.598,0.62c0.483,1.081,3.863,8.992,5.151,11.958
			c0.782,1.771,1.356,2.023,1.725,2.093c0.299,0.046,0.529,0.068,0.759,0.068c0.184,0,0.276,0.069,0.276,0.207
			c0,0.161-0.115,0.207-0.874,0.207c-0.713,0-2.185,0-3.886-0.046c-0.368-0.022-0.598-0.022-0.598-0.161
			c0-0.115,0.046-0.184,0.253-0.207c0.138-0.022,0.276-0.207,0.184-0.437l-1.564-3.955c-0.046-0.115-0.115-0.138-0.207-0.138H71.209
			z M75.532,157.864c0.092,0,0.115-0.046,0.092-0.115l-1.909-4.897c-0.023-0.069-0.046-0.184-0.092-0.184
			c-0.069,0-0.092,0.114-0.115,0.184l-1.955,4.875c-0.046,0.092,0,0.138,0.069,0.138H75.532z"/>
		<path d="M84.871,154.76c0-2.967,0-3.518-0.023-4.139c-0.046-0.668-0.23-0.874-0.874-1.059c-0.161-0.045-0.506-0.068-0.805-0.068
			c-0.207,0-0.345-0.069-0.345-0.207c0-0.139,0.161-0.184,0.46-0.184c1.058,0,2.346,0.045,2.92,0.045
			c0.621,0,2.069-0.045,3.288-0.045c2.53,0,5.934,0,8.141,2.23c1.012,1.012,1.909,2.645,1.909,4.967c0,2.46-1.058,4.322-2.208,5.449
			c-0.92,0.92-3.059,2.3-6.783,2.3c-0.736,0-1.61-0.069-2.415-0.115c-0.805-0.069-1.541-0.114-2.047-0.114
			c-0.229,0-0.667,0.022-1.149,0.022c-0.483,0.022-0.989,0.046-1.403,0.046c-0.253,0-0.391-0.068-0.391-0.207
			c0-0.092,0.069-0.207,0.322-0.207c0.299,0,0.529-0.022,0.713-0.068c0.414-0.092,0.529-0.461,0.598-1.035
			c0.092-0.828,0.092-2.369,0.092-4.162V154.76z M87.584,156.922c0,2.068,0.023,3.563,0.046,3.955
			c0.023,0.482,0.069,1.172,0.23,1.379c0.253,0.368,1.058,0.782,2.645,0.782c1.839,0,3.196-0.322,4.415-1.334
			c1.311-1.081,1.725-2.828,1.725-4.852c0-2.483-0.989-4.093-1.886-4.875c-1.862-1.655-4.07-1.862-5.657-1.862
			c-0.414,0-1.081,0.045-1.241,0.138c-0.184,0.069-0.253,0.161-0.253,0.391c-0.023,0.667-0.023,2.276-0.023,3.817V156.922z"/>
		<path d="M103.755,154.76c0-2.967,0-3.518-0.023-4.139c-0.046-0.668-0.229-0.874-0.874-1.059c-0.16-0.045-0.506-0.068-0.805-0.068
			c-0.207,0-0.345-0.069-0.345-0.207c0-0.139,0.161-0.184,0.46-0.184c1.058,0,2.346,0.045,2.92,0.045c0.645,0,5.128,0.023,5.52,0
			c0.367-0.022,0.689-0.092,0.851-0.114c0.115-0.022,0.229-0.093,0.322-0.093c0.114,0,0.138,0.093,0.138,0.185
			c0,0.138-0.115,0.368-0.161,1.265c-0.022,0.207-0.069,1.059-0.115,1.288c-0.022,0.092-0.068,0.321-0.229,0.321
			c-0.138,0-0.161-0.092-0.161-0.252c0-0.139-0.023-0.483-0.138-0.713c-0.161-0.346-0.322-0.621-1.334-0.713
			c-0.345-0.047-2.76-0.092-3.173-0.092c-0.093,0-0.139,0.068-0.139,0.184v4.828c0,0.115,0.023,0.207,0.139,0.207
			c0.46,0,3.081,0,3.541-0.045c0.482-0.047,0.759-0.115,0.966-0.3c0.161-0.138,0.229-0.253,0.321-0.253
			c0.093,0,0.161,0.092,0.161,0.207s-0.046,0.438-0.161,1.426c-0.046,0.391-0.092,1.173-0.092,1.311
			c0,0.161-0.022,0.438-0.207,0.438c-0.138,0-0.184-0.069-0.184-0.161c-0.023-0.207-0.023-0.46-0.069-0.713
			c-0.114-0.392-0.367-0.69-1.127-0.759c-0.367-0.047-2.667-0.092-3.173-0.092c-0.092,0-0.115,0.092-0.115,0.207v1.563
			c0,0.668-0.022,2.323,0,2.898c0.046,1.334,0.667,1.633,2.736,1.633c0.529,0,1.38-0.023,1.909-0.254
			c0.506-0.229,0.735-0.644,0.874-1.448c0.046-0.207,0.092-0.299,0.229-0.299c0.161,0,0.184,0.253,0.184,0.46
			c0,0.437-0.16,1.771-0.275,2.161c-0.138,0.506-0.322,0.506-1.081,0.506c-1.518,0-2.736-0.022-3.725-0.069
			c-0.989-0.022-1.748-0.045-2.346-0.045c-0.23,0-0.667,0.022-1.15,0.022c-0.482,0.022-0.988,0.046-1.402,0.046
			c-0.253,0-0.391-0.068-0.391-0.207c0-0.092,0.068-0.207,0.321-0.207c0.299,0,0.529-0.022,0.713-0.068
			c0.414-0.092,0.529-0.461,0.599-1.035c0.092-0.828,0.092-2.369,0.092-4.162V154.76z"/>
		<path d="M116.543,154.76c0-2.967,0-3.518-0.023-4.139c-0.046-0.668-0.229-0.874-0.874-1.059c-0.16-0.045-0.506-0.068-0.805-0.068
			c-0.207,0-0.345-0.069-0.345-0.207c0-0.139,0.161-0.184,0.46-0.184c1.058,0,2.346,0.045,2.76,0.045
			c0.689,0,2.529-0.045,3.15-0.045c1.287,0,2.759,0.114,3.84,0.827c0.575,0.392,1.426,1.38,1.426,2.69
			c0,1.449-0.828,2.736-2.806,4.323c1.794,2.208,3.22,3.978,4.438,5.196c1.126,1.127,1.839,1.219,2.161,1.288
			c0.207,0.046,0.322,0.046,0.483,0.046c0.16,0,0.253,0.115,0.253,0.207c0,0.161-0.139,0.207-0.392,0.207h-1.932
			c-1.126,0-1.679-0.115-2.207-0.391c-0.874-0.438-1.633-1.357-2.76-2.875c-0.805-1.057-1.655-2.368-1.908-2.667
			c-0.115-0.114-0.23-0.138-0.368-0.138l-1.816-0.047c-0.092,0-0.161,0.047-0.161,0.162v0.275c0,1.816,0.023,3.334,0.115,4.162
			c0.068,0.574,0.161,0.943,0.781,1.035c0.299,0.046,0.736,0.068,0.989,0.068c0.161,0,0.253,0.115,0.253,0.207
			c0,0.139-0.161,0.207-0.414,0.207c-1.173,0-2.852-0.068-3.15-0.068c-0.391,0-1.679,0.068-2.483,0.068
			c-0.253,0-0.391-0.068-0.391-0.207c0-0.092,0.068-0.207,0.321-0.207c0.3,0,0.529-0.022,0.713-0.068
			c0.414-0.092,0.529-0.461,0.599-1.035c0.092-0.828,0.092-2.369,0.092-4.162V154.76z M119.118,156.277
			c0,0.207,0.046,0.275,0.184,0.346c0.438,0.137,1.035,0.184,1.541,0.184c0.805,0,1.081-0.069,1.426-0.322
			c0.621-0.438,1.311-1.287,1.311-2.897c0-2.759-1.886-3.472-3.081-3.472c-0.506,0-0.989,0.022-1.196,0.068
			c-0.138,0.047-0.184,0.115-0.184,0.276V156.277z"/>
		<path d="M130.871,163.636c-0.321-0.138-0.391-0.229-0.391-0.667c0-1.058,0.092-2.276,0.115-2.598c0-0.299,0.092-0.506,0.253-0.506
			c0.184,0,0.207,0.184,0.207,0.321c0,0.253,0.069,0.667,0.184,1.012c0.438,1.448,1.955,1.932,3.22,1.932
			c1.747,0,2.806-1.104,2.806-2.483c0-0.851-0.207-1.701-2.001-2.76l-1.173-0.689c-2.392-1.402-3.173-2.713-3.173-4.438
			c0-2.393,2.299-3.933,5.104-3.933c1.311,0,2.346,0.185,2.874,0.321c0.185,0.047,0.276,0.115,0.276,0.254
			c0,0.252-0.069,0.805-0.069,2.346c0,0.413-0.092,0.62-0.253,0.62c-0.138,0-0.207-0.114-0.207-0.345
			c0-0.184-0.092-0.781-0.528-1.287c-0.299-0.369-0.943-0.92-2.254-0.92c-1.448,0-2.759,0.758-2.759,2.092
			c0,0.874,0.321,1.564,2.138,2.576l0.828,0.459c2.668,1.473,3.495,2.967,3.495,4.737c0,1.448-0.552,2.622-2.023,3.656
			c-0.966,0.69-2.3,0.805-3.38,0.805C132.987,164.142,131.745,164.027,130.871,163.636z"/>
	</g>
</g>
<g id="Layer_4">
	<g>
		<path fill-rule="evenodd" clip-rule="evenodd" d="M46.669,115.51c4.158-0.485,8.307-1.174,12.479-1.391
			c3.175-0.166,3.412,0.104,3.454-2.93c0.043-3.059,1.614-5.094,3.552-7.107c0.452-0.469,0.683-1.31,0.723-1.996
			c1.206-20.929,2.412-41.858,3.458-62.796c0.064-1.29-1.175-2.646-1.9-4.165c1.408,0,2.81,0,4.479,0
			c-0.37-2.808,0.999-5.574-1.258-7.875c1.472-2.01,1.641-6.993,0.373-8.746c0.495-0.875,0.839-1.807,1.453-2.501
			c1.235-1.397,2.41-3.082,3.997-3.868c1.578-0.782,2.177-1.61,2.173-3.22C79.647,7.618,79.779,6.32,80.037,5
			c0.062,0.573,0.13,1.146,0.183,1.72c0.352,3.891,0.351,3.892,3.164,6.234c-0.561,0.027-1.107-0.114-1.386,0.098
			c-0.956,0.728-1.819,1.578-2.717,2.382c0.816,0.759,1.527,1.955,2.471,2.183c1.744,0.421,3.625,0.273,5.168,0.35
			c-0.102,1.673-0.314,3.268-0.264,4.854c0.048,1.491-0.882,3.493,1.699,4.403c-0.828,0.089-1.653,0.205-2.483,0.261
			c-3.66,0.247-5.903,2.765-5.533,6.383c0.048,0.474,0.73,0.887,1.128,1.319c0.036,0.039,0.148,0.004,0.224,0.012
			c4.232,0.443,4.555,0.156,4.565-4.073c0-0.503,0-1.007,0.396-1.549c0.076,0.897,0.152,1.794,0.226,2.691
			c0.074,0.896,0.146,1.792,0.232,2.872c1.657,0,3.148,0,4.639,0c0.106,0.19,0.212,0.38,0.318,0.57
			c-0.764,0.605-1.598,1.145-2.264,1.844c-0.353,0.37-0.555,1.011-0.581,1.542c-0.075,1.521-0.026,3.049-0.026,4.383
			c-1.308-0.155-2.795-0.732-3.99-0.364c-1.281,0.394-2.458,1.531-3.384,2.601c-2.821,3.258-4.494,6.909-4.551,11.429
			c-0.189,14.921-0.636,29.839-0.975,44.757c-0.015,0.667,0.055,1.336,0.096,2.225c4.346,0,8.567,0.31,12.72-0.092
			c3.673-0.355,5.42,1.509,6.845,4.292c-4.127-1.969-8.463-2.316-12.916-1.65c-4.869,0.729-9.108,4.868-9.991,9.76
			c8.061,0,16.107,0,24.289,0c-0.506-2.848-0.978-5.512-1.449-8.175c0.535,1.885,1.187,3.746,1.566,5.662
			c0.268,1.35,0.903,1.709,2.182,1.684c3.351-0.067,6.704-0.022,10.227-0.022c-0.045,1.828,0.941,2.146,2.475,1.992
			c1.742-0.174,3.516,0.003,5.26-0.15c4.063-0.356,7.984,0.079,11.73,1.759c-0.533,0.152-1.068,0.439-1.602,0.439
			c-27.02,0.022-54.04,0.02-81.059,0.02C46.669,118.258,46.669,116.884,46.669,115.51z M85.877,18.617c-2.534,0-4.654-0.001-6.774,0
			c-6.021,0.006-6.021,0.006-5.659,6.021c0.009,0.152-0.055,0.367,0.023,0.446c0.454,0.461,0.928,1.252,1.418,1.27
			c3.194,0.116,6.396,0.116,9.589,0.002c0.482-0.017,1.304-0.8,1.339-1.275C85.963,23.052,85.877,21.005,85.877,18.617z"/>
		<path fill-rule="evenodd" clip-rule="evenodd" d="M80.535,72.07c2.465-0.3,2.555-0.152,2.277,3.601
			C80.378,76.888,79.894,75.713,80.535,72.07z"/>
	</g>
	<g>
	</g>
	<g>
	</g>
	<g>
	</g>
	<g>
	</g>
	<g>
	</g>
	<g>
	</g>
</g>
</svg>
