<?xml version="1.0" encoding="utf-8"?>
<!-- Generator: Adobe Illustrator 16.0.0, SVG Export Plug-In . SVG Version: 6.00 Build 0)  -->
<!DOCTYPE svg PUBLIC "-//W3C//DTD SVG 1.1//EN" "http://www.w3.org/Graphics/SVG/1.1/DTD/svg11.dtd">
<svg version="1.1" xmlns="http://www.w3.org/2000/svg" xmlns:xlink="http://www.w3.org/1999/xlink" x="0px" y="0px" width="176px"
	 height="176px" viewBox="0 0 176 176" enable-background="new 0 0 176 176" xml:space="preserve">
<g id="Layer_2">
	
		<rect x="0.5" y="0.5" fill-rule="evenodd" clip-rule="evenodd" fill="none" stroke="#E0DDC5" stroke-miterlimit="10" width="175" height="175"/>
</g>
<g id="Layer_3">
	<g>
		<rect x="6.25" y="84" fill-rule="evenodd" clip-rule="evenodd" fill="none" width="163.5" height="88"/>
		<path d="M51.719,108.104c0,2.212-0.672,4.073-2.016,5.585c-1.596,1.791-3.766,2.688-6.509,2.688c-1.204,0-2.422-0.28-3.653-0.84
			c-1.204-0.504-1.932-0.756-2.184-0.756c-0.952,0-1.484,0.518-1.596,1.554h-0.924l-1.26-9.532h0.966
			c1.623,5.516,4.381,8.272,8.272,8.272c1.651,0,3.065-0.588,4.241-1.764c1.092-1.119,1.638-2.379,1.638-3.779
			c0-1.455-0.42-2.729-1.26-3.821c-0.98-1.203-2.968-2.827-5.963-4.871c-2.464-1.651-4.031-2.869-4.703-3.653
			c-1.316-1.399-1.974-3.121-1.974-5.165c0-2.463,0.741-4.409,2.226-5.837c1.344-1.315,3.009-1.974,4.997-1.974
			c0.924,0,2.071,0.267,3.443,0.798c1.344,0.532,2.113,0.798,2.31,0.798c0.531,0,0.854-0.195,0.966-0.588
			c0.056-0.336,0.126-0.672,0.21-1.008h0.924l0.924,9.574h-1.008c-0.448-2.295-1.246-4.185-2.394-5.669
			c-1.428-1.791-3.149-2.688-5.165-2.688c-1.232,0-2.324,0.378-3.275,1.134c-1.148,0.952-1.722,2.198-1.722,3.737
			c0,1.988,1.218,3.934,3.653,5.837c2.268,1.624,4.549,3.262,6.845,4.913C50.249,103.205,51.578,105.557,51.719,108.104z"/>
		<path d="M71.413,108.691c-0.504,1.652-1.302,3.122-2.394,4.409c-1.68,2.043-3.71,3.065-6.089,3.065
			c-2.324,0-4.186-0.938-5.585-2.813c-1.372-1.819-2.058-4.353-2.058-7.601c0-3.835,0.979-6.816,2.939-8.944
			c1.567-1.651,3.359-2.491,5.375-2.52c1.903,0,3.457,0.603,4.661,1.806c1.399,1.372,2.211,3.43,2.436,6.173H57.22
			c0.056,4.031,0.783,7.055,2.184,9.07c1.147,1.68,2.646,2.52,4.493,2.52c2.855,0,5.192-1.791,7.013-5.375L71.413,108.691z
			 M67.718,101.091c-0.393-3.555-2.044-5.347-4.955-5.375c-2.576-0.027-4.382,1.764-5.417,5.375H67.718z"/>
		<path d="M85.774,96.724c0,0.98-0.42,1.47-1.26,1.47c-0.504,0-1.05-0.168-1.638-0.504c-0.588-0.363-1.064-0.531-1.428-0.504
			c-0.532,0.057-1.246,0.714-2.142,1.974c-0.868,1.26-1.302,2.282-1.302,3.065l0.042,8.944c0,1.568,0.378,2.646,1.134,3.233
			c0.531,0.42,1.441,0.657,2.729,0.714v0.714h-9.49v-0.714c1.26-0.225,2.1-0.532,2.52-0.924c0.56-0.532,0.84-1.441,0.84-2.729
			v-10.75c0-2.155-0.687-3.233-2.058-3.233c-0.504,0-0.91,0.042-1.218,0.126v-0.714c1.231-0.447,3.079-1.245,5.543-2.394v5.375
			l0.462-0.714c1.26-1.791,2.184-2.995,2.771-3.611c0.783-0.783,1.596-1.176,2.436-1.176C85.088,94.372,85.774,95.156,85.774,96.724
			z"/>
		<path d="M103.621,113.94c-1.092,1.483-2.254,2.226-3.485,2.226c-1.232,0-1.904-1.358-2.016-4.073
			c-2.996,2.715-5.249,4.073-6.761,4.073c-1.148,0-2.086-0.393-2.813-1.176c-0.84-0.868-1.26-2.029-1.26-3.485
			c0-2.127,0.938-3.933,2.813-5.417c1.315-1.008,3.933-2.379,7.853-4.115l0.126-2.646c0.14-2.715-1.162-4.073-3.905-4.073
			c-0.813,0-1.582,0.225-2.31,0.672c-0.813,0.448-1.218,0.994-1.218,1.638c0-0.14,0.056,0.406,0.168,1.638
			c0.056,0.532-0.042,0.994-0.294,1.386c-0.252,0.364-0.603,0.546-1.05,0.546c-0.952,0-1.428-0.63-1.428-1.89
			c0-1.119,0.504-2.155,1.512-3.107c1.26-1.231,2.925-1.848,4.997-1.848c2.575,0,4.255,0.868,5.039,2.604
			c0.363,0.868,0.546,2.45,0.546,4.745v8.776c0,2.212,0.602,3.317,1.806,3.317c0.447,0,1.008-0.267,1.68-0.798V113.94z
			 M98.078,109.447v-6.299c-5.375,2.1-8.063,4.325-8.063,6.677v0.126c0,2.352,1.05,3.639,3.149,3.863
			c0.896,0.084,1.974-0.309,3.233-1.176C97.518,111.855,98.078,110.791,98.078,109.447z"/>
		<path d="M123.231,115.83h-8.104v-0.714c0.979-0.141,1.68-0.42,2.1-0.84c0.588-0.672,0.882-1.833,0.882-3.485v-8.818
			c0-3.247-1.288-4.871-3.863-4.871c-1.344,0-2.912,1.036-4.703,3.107v12.052c0,1.707,1.035,2.659,3.107,2.855v0.714h-8.314v-0.714
			c1.035-0.112,1.791-0.435,2.268-0.966c0.447-0.561,0.672-1.554,0.672-2.981v-10.582c0-2.323-0.672-3.485-2.016-3.485
			c-0.364,0-0.7,0.028-1.008,0.084v-0.714c1.764-0.588,3.485-1.231,5.165-1.932v4.325c1.707-1.707,2.813-2.771,3.317-3.191
			c1.147-0.867,2.268-1.302,3.359-1.302c2.799,0,4.199,2.31,4.199,6.929v10.288c0,2.1,0.979,3.275,2.939,3.527V115.83z"/>
		<path d="M142.8,105.122c0,2.688-0.729,5.109-2.184,7.265c-1.708,2.52-3.962,3.779-6.761,3.779c-2.576,0-4.703-1.05-6.383-3.149
			c-1.652-2.1-2.478-4.73-2.478-7.895c0-2.995,0.783-5.528,2.352-7.601c1.651-2.155,3.765-3.233,6.341-3.233
			c2.715,0,4.913,0.966,6.593,2.897C141.96,99.146,142.8,101.791,142.8,105.122z M140.364,106.424c0-3.107-0.658-5.683-1.974-7.727
			c-1.288-2.043-2.954-3.065-4.997-3.065c-1.54,0-2.855,0.546-3.947,1.638c-1.26,1.288-1.904,3.122-1.932,5.501
			c-0.057,3.023,0.462,5.669,1.554,7.937c1.26,2.715,3.065,4.073,5.417,4.073c1.428,0,2.659-0.504,3.695-1.512
			C139.636,111.841,140.364,109.56,140.364,106.424z"/>
		<path d="M35.91,132.871c-1.204,0.138-1.955,0.314-2.256,0.533c-0.629,0.466-0.943,1.45-0.943,2.953v9.311
			c0,0.438-0.984,1.025-2.953,1.764c-2.16,0.848-4.198,1.271-6.111,1.271c-4.895,0-8.613-1.613-11.156-4.84
			c-2.188-2.762-3.281-6.535-3.281-11.32c0-4.02,1.203-7.506,3.609-10.459c2.57-3.199,5.851-4.799,9.844-4.799
			c1.613,0,3.144,0.302,4.594,0.902c1.449,0.548,2.27,0.82,2.461,0.82c0.82,0,1.38-0.574,1.682-1.723h1.066l0.328,9.229H31.85
			c-0.793-2.405-1.641-4.184-2.543-5.332c-1.504-1.831-3.527-2.748-6.07-2.748c-2.625,0-4.963,1.012-7.014,3.035
			c-2.762,2.734-4.143,6.727-4.143,11.977c0,4.239,1.189,7.685,3.568,10.336c2.242,2.516,5.018,3.773,8.326,3.773
			c1.503,0,2.912-0.314,4.225-0.943c1.285-0.629,1.928-1.38,1.928-2.256v-7.465c0-1.805-0.314-2.953-0.943-3.445
			c-0.328-0.246-1.34-0.437-3.035-0.574v-0.738h9.762V132.871z"/>
		<path d="M53.137,141.197c-0.492,1.614-1.271,3.05-2.338,4.307c-1.641,1.996-3.624,2.994-5.947,2.994
			c-2.27,0-4.088-0.916-5.455-2.748c-1.34-1.777-2.01-4.251-2.01-7.424c0-3.746,0.957-6.658,2.871-8.736
			c1.531-1.613,3.281-2.434,5.25-2.461c1.859,0,3.377,0.589,4.553,1.764c1.367,1.34,2.16,3.35,2.379,6.029H39.273
			c0.055,3.938,0.765,6.891,2.133,8.859c1.121,1.641,2.584,2.461,4.389,2.461c2.789,0,5.072-1.749,6.85-5.25L53.137,141.197z
			 M49.527,133.773c-0.383-3.472-1.996-5.223-4.84-5.25c-2.516-0.026-4.28,1.723-5.291,5.25H49.527z"/>
		<path d="M73.07,148.17h-7.916v-0.697c0.957-0.137,1.641-0.41,2.051-0.82c0.574-0.656,0.861-1.79,0.861-3.404v-8.613
			c0-3.172-1.258-4.758-3.773-4.758c-1.313,0-2.844,1.012-4.594,3.035v11.771c0,1.668,1.011,2.598,3.035,2.789v0.697h-8.121v-0.697
			c1.011-0.109,1.75-0.424,2.215-0.943c0.437-0.547,0.656-1.518,0.656-2.912v-10.336c0-2.27-0.656-3.404-1.969-3.404
			c-0.355,0-0.684,0.027-0.984,0.082v-0.697c1.723-0.574,3.404-1.203,5.045-1.887v4.225c1.667-1.667,2.748-2.707,3.24-3.117
			c1.121-0.847,2.215-1.271,3.281-1.271c2.734,0,4.102,2.256,4.102,6.768v10.049c0,2.051,0.957,3.199,2.871,3.445V148.17z"/>
		<path d="M92.184,137.711c0,2.625-0.711,4.99-2.133,7.096c-1.668,2.461-3.87,3.691-6.604,3.691c-2.516,0-4.594-1.025-6.234-3.076
			c-1.614-2.051-2.42-4.62-2.42-7.711c0-2.926,0.765-5.399,2.297-7.424c1.613-2.105,3.677-3.158,6.193-3.158
			c2.652,0,4.799,0.943,6.439,2.83C91.363,131.873,92.184,134.457,92.184,137.711z M89.805,138.982c0-3.035-0.643-5.551-1.928-7.547
			c-1.258-1.995-2.885-2.994-4.881-2.994c-1.504,0-2.789,0.533-3.855,1.6c-1.23,1.258-1.86,3.05-1.887,5.373
			c-0.055,2.953,0.451,5.537,1.518,7.752c1.23,2.652,2.994,3.979,5.291,3.979c1.395,0,2.598-0.492,3.609-1.477
			C89.094,144.273,89.805,142.045,89.805,138.982z"/>
		<path d="M123.93,148.17h-8.285v-0.697c1.148-0.164,1.9-0.424,2.256-0.779c0.492-0.52,0.738-1.503,0.738-2.953v-8.654
			c0-3.554-1.176-5.332-3.527-5.332c-2.051,0-3.746,0.999-5.086,2.994v10.664c0,1.614,0.355,2.734,1.066,3.363
			c0.465,0.438,1.203,0.67,2.215,0.697v0.697h-8.449v-0.697c1.039-0.082,1.791-0.314,2.256-0.697c0.547-0.547,0.82-1.544,0.82-2.994
			v-8.941c0-3.39-1.135-5.086-3.404-5.086c-1.23,0-2.461,0.492-3.691,1.477c-1.039,0.82-1.559,1.381-1.559,1.682v11.771
			c0,1.75,1.053,2.68,3.158,2.789v0.697h-8.449v-0.697c1.039-0.027,1.791-0.232,2.256-0.615c0.629-0.547,0.943-1.544,0.943-2.994
			v-10.582c0-2.27-0.684-3.404-2.051-3.404c-0.41,0-0.752,0.041-1.025,0.123v-0.738c1.832-0.601,3.5-1.23,5.004-1.887h0.041v4.061
			c2.789-2.815,5.072-4.225,6.85-4.225c1.094,0,1.955,0.41,2.584,1.23c0.438,0.63,0.834,1.614,1.189,2.953
			c2.297-2.789,4.607-4.184,6.932-4.184c1.75,0,2.939,0.902,3.568,2.707c0.41,1.176,0.615,2.939,0.615,5.291v9.064
			c0,2.051,1.012,3.117,3.035,3.199V148.17z"/>
		<path d="M134.102,148.17h-9.393v-0.697c1.422-0.055,2.365-0.328,2.83-0.82c0.574-0.602,0.861-1.79,0.861-3.568v-9.598
			c0-2.105-0.697-3.158-2.092-3.158c-0.328,0-0.779,0.068-1.354,0.205v-0.738c1.313-0.41,3.213-1.175,5.701-2.297v15.586
			c0,1.586,0.232,2.693,0.697,3.322c0.438,0.602,1.354,0.957,2.748,1.066V148.17z M130.82,119.09c0,1.286-0.561,1.928-1.682,1.928
			c-0.52,0-0.93-0.231-1.23-0.697c-0.246-0.383-0.369-0.793-0.369-1.23c0-0.383,0.137-0.793,0.41-1.23
			c0.273-0.41,0.67-0.615,1.189-0.615c0.465,0,0.875,0.179,1.23,0.533C130.67,118.161,130.82,118.598,130.82,119.09z"/>
		<path d="M151.369,141.566c-1.969,4.621-4.594,6.932-7.875,6.932c-1.887,0-3.527-0.793-4.922-2.379
			c-1.641-1.859-2.461-4.443-2.461-7.752c0-3.527,0.943-6.343,2.83-8.449c1.695-1.859,3.732-2.789,6.111-2.789
			c1.613,0,2.98,0.451,4.102,1.354c1.121,0.93,1.682,1.955,1.682,3.076c0,1.012-0.424,1.586-1.271,1.723
			c-0.738,0.138-1.299-0.519-1.682-1.969l-0.246-1.025c-0.301-1.285-1.436-1.9-3.404-1.846c-1.285,0.027-2.516,0.561-3.691,1.6
			c-1.668,1.504-2.502,3.665-2.502,6.48c0,2.953,0.766,5.318,2.297,7.096c1.395,1.668,3.049,2.406,4.963,2.215
			c1.313-0.137,2.406-0.629,3.281-1.477c0.547-0.547,1.258-1.559,2.133-3.035L151.369,141.566z"/>
		<path d="M166.299,142.756c0,1.805-0.629,3.254-1.887,4.348c-1.121,0.93-2.393,1.395-3.814,1.395c-0.711,0-1.613-0.164-2.707-0.492
			c-1.066-0.355-1.75-0.533-2.051-0.533c-0.328,0-0.561,0.273-0.697,0.82h-0.533v-6.809h0.615c0.438,1.996,0.848,3.296,1.23,3.896
			c0.793,1.367,2.078,2.051,3.855,2.051c2.625,0,3.938-1.121,3.938-3.363c0-1.367-0.752-2.569-2.256-3.609l-2.338-1.641
			c-2.105-1.449-3.268-2.27-3.486-2.461c-1.066-1.039-1.6-2.282-1.6-3.732c0-1.421,0.438-2.651,1.313-3.691
			c1.039-1.203,2.434-1.805,4.184-1.805c0.711,0,1.436,0.179,2.174,0.533c0.738,0.328,1.189,0.492,1.354,0.492
			c0.301,0,0.479-0.219,0.533-0.656h0.615l0.246,5.906h-0.656c-0.41-2.215-0.971-3.705-1.682-4.471
			c-0.602-0.629-1.477-0.943-2.625-0.943c-1.121,0-2.037,0.384-2.748,1.148c-0.629,0.656-0.943,1.395-0.943,2.215
			c0,1.34,0.656,2.461,1.969,3.363l4.43,2.994c1.258,0.848,2.092,1.518,2.502,2.01C165.943,140.568,166.299,141.581,166.299,142.756
			z"/>
	</g>
</g>
<g id="Layer_4">
	<circle cx="29.5" cy="28" r="21"/>
	<circle cx="88" cy="43" r="33.5"/>
	<circle fill="#FFFFFF" cx="98.63" cy="49.13" r="10.13"/>
	<g>
	</g>
	<g>
	</g>
	<g>
	</g>
	<g>
	</g>
	<g>
	</g>
	<g>
	</g>
</g>
</svg>
