<?xml version="1.0" encoding="utf-8"?>
<!DOCTYPE svg PUBLIC "-//W3C//DTD SVG 1.1//EN" "http://www.w3.org/Graphics/SVG/1.1/DTD/svg11.dtd">
<svg version="1.1" xmlns="http://www.w3.org/2000/svg" xmlns:xlink="http://www.w3.org/1999/xlink" x="0px" y="0px" width="176px"
	 height="176px" viewBox="0 0 176 176" enable-background="new 0 0 176 176" xml:space="preserve">
<g id="Layer_2">
	
		<rect x="0.5" y="0.5" fill-rule="evenodd" clip-rule="evenodd" fill="none" stroke="#E0DDC5" stroke-miterlimit="10" width="175" height="175"/>
</g>
<g id="Layer_3">
	<g>
		<path fill-rule="evenodd" clip-rule="evenodd" d="M141.002,94.776c0.62-2.998,1.207-5.854,1.806-8.706
			c0.375-1.788,0.733-3.581,1.182-5.353c0.085-0.342,0.544-0.839,0.838-0.843c2.596-0.041,5.2-0.058,7.795,0.063
			c2.027,0.094,3.269,1.085,3.53,2.528c0.272,1.505-0.729,3.313-2.319,4.139c-0.506,0.262-1.047,0.458-1.65,0.719
			c1.79,0.803,2.066,1.272,1.941,3.158c-0.093,1.383-0.182,2.764-0.276,4.224c-1.352,0-2.726,0-4.316,0
			c0.102-1.188,0.282-2.37,0.272-3.552c-0.005-0.622-0.198-1.647-0.564-1.781c-0.842-0.306-1.843-0.197-2.778-0.193
			c-0.093,0-0.219,0.425-0.271,0.665c-0.311,1.386-0.613,2.773-0.89,4.166c-0.109,0.55-0.336,0.811-0.948,0.78
			C143.296,94.741,142.235,94.776,141.002,94.776z M146.943,86.369c1.378-0.245,2.591-0.291,3.646-0.722
			c0.5-0.205,0.781-1.121,0.993-1.769c0.065-0.201-0.386-0.795-0.666-0.846c-0.958-0.172-1.98-0.357-2.901-0.165
			c-0.35,0.073-0.512,1.149-0.715,1.783C147.17,85.061,147.12,85.495,146.943,86.369z"/>
		<path fill-rule="evenodd" clip-rule="evenodd" d="M88.5,94.784c0.872-4.11,1.685-7.994,2.53-11.872
			c0.222-1.021,0.25-2.38,0.909-2.922c0.621-0.508,1.957-0.152,2.98-0.161c1.281-0.01,2.564-0.021,3.847,0.004
			c0.656,0.014,1.317,0.072,1.966,0.173c1.296,0.202,2.471,0.707,2.831,2.079c0.384,1.451-0.064,2.803-1.2,3.77
			c-0.729,0.62-1.655,1.007-2.582,1.549c2.181,0.537,1.945,2.19,1.81,3.861c-0.092,1.12-0.019,2.253-0.019,3.444
			c-1.553,0-2.924,0-4.495,0c0.086-1.12,0.165-2.196,0.252-3.27c0.168-2.1-1.211-3.125-3.179-2.318
			c-0.229,0.096-0.408,0.488-0.477,0.775c-0.318,1.346-0.637,2.694-0.86,4.058c-0.105,0.645-0.343,0.869-0.985,0.841
			C90.771,94.751,89.715,94.784,88.5,94.784z M94.481,86.282c1.258-0.146,2.355-0.133,3.364-0.43
			c1.227-0.362,1.783-2.294,0.854-2.653c-0.999-0.386-2.186-0.293-3.294-0.375c-0.085-0.005-0.241,0.258-0.277,0.415
			C94.92,84.154,94.735,85.072,94.481,86.282z"/>
		<path fill-rule="evenodd" clip-rule="evenodd" d="M51.772,94.786c-1.445,0-2.757,0.039-4.063-0.035
			c-0.241-0.014-0.602-0.45-0.66-0.742c-0.422-2.096-0.402-2.101-2.538-2.095c-0.989,0.003-1.979,0.037-2.967-0.002
			c-0.669-0.026-1.138,0.146-1.341,0.835c-0.534,1.804-1.759,2.414-3.564,2.102c-0.515-0.09-1.059-0.015-1.775-0.015
			c1.987-3.301,3.846-6.393,5.708-9.482c0.961-1.598,1.94-3.185,2.881-4.793c0.328-0.56,0.715-0.825,1.4-0.796
			c1.351,0.057,2.708,0.017,4.181,0.017C49.947,84.782,50.847,89.708,51.772,94.786z M45.761,83.158
			c-0.081-0.019-0.162-0.035-0.243-0.054c-1.015,1.875-2.03,3.749-3.091,5.71c1.406,0,2.624,0,3.889,0
			C46.124,86.863,45.943,85.011,45.761,83.158z"/>
		<path fill-rule="evenodd" clip-rule="evenodd" d="M129.021,79.833c-0.645,2.995-1.252,5.765-1.831,8.541
			c-0.462,2.214-0.012,3.396,1.37,3.729c1.92,0.467,3.868-0.584,4.389-2.493c0.458-1.684,0.763-3.406,1.132-5.114
			c0.278-1.282,0.57-2.563,0.814-3.853c0.115-0.61,0.383-0.863,1.03-0.831c1.019,0.051,2.04,0.013,3.213,0.013
			c-0.203,1.118-0.37,2.135-0.579,3.144c-0.386,1.857-0.853,3.697-1.186,5.563c-0.595,3.327-2.423,5.597-5.768,6.188
			c-1.823,0.324-3.806,0.29-5.628-0.055c-2.431-0.463-3.613-2.507-3.151-4.957c0.572-3.042,1.257-6.062,1.941-9.081
			c0.068-0.303,0.446-0.738,0.706-0.758C126.592,79.784,127.72,79.833,129.021,79.833z"/>
		<path fill-rule="evenodd" clip-rule="evenodd" d="M78.064,88.685c-0.242,1.109-0.441,2.026-0.686,3.149c2.457,0,4.805,0,7.278,0
			c-0.205,0.979-0.33,1.764-0.553,2.519c-0.055,0.188-0.422,0.404-0.648,0.406c-3.547,0.026-7.095,0.018-10.826,0.018
			c1.077-5.052,2.13-9.979,3.184-14.919c3.837,0,7.568,0,11.374,0c-0.184,0.916-0.36,1.786-0.57,2.83
			c-1.938,0-3.869,0.062-5.792-0.022c-1.101-0.049-1.751,0.168-1.77,1.415c-0.008,0.522-0.222,1.044-0.369,1.685
			c2.226,0,4.339,0,6.631,0c-0.198,1.023-0.37,1.92-0.564,2.92C82.506,88.685,80.319,88.685,78.064,88.685z"/>
		<path fill-rule="evenodd" clip-rule="evenodd" d="M55.659,94.773c0.316-1.527,0.601-2.905,0.889-4.283
			c0.668-3.206,1.362-6.406,1.994-9.619c0.149-0.764,0.378-1.103,1.247-1.068c2.449,0.092,4.903,0.039,7.353,0.118
			c0.674,0.022,1.376,0.226,2,0.497c1.517,0.662,2.023,2.086,1.594,4.224c-0.616,3.063-2.78,4.514-5.622,4.76
			c-1.09,0.093-2.197,0.099-3.291,0.036c-0.766-0.043-1.027,0.304-1.153,0.965c-0.225,1.18-0.52,2.349-0.724,3.532
			c-0.104,0.598-0.3,0.891-0.973,0.854C57.923,94.732,56.868,94.773,55.659,94.773z M63.13,86.744
			c0.836-0.293,1.817-0.409,2.462-0.936c0.479-0.395,0.79-1.368,0.673-1.988c-0.083-0.438-0.979-0.945-1.566-1.023
			c-2.251-0.297-2.259-0.236-2.8,1.942c-0.017,0.07-0.059,0.136-0.075,0.205C61.448,86.521,61.463,86.541,63.13,86.744z"/>
		<path fill-rule="evenodd" clip-rule="evenodd" d="M164.211,85.841c2.326,0,4.43,0,6.491,0c0.059,0.225,0.101,0.296,0.091,0.359
			c-0.448,2.478-0.448,2.479-2.938,2.489c-1.063,0.004-2.131,0.075-3.185-0.017c-0.873-0.077-1.184,0.342-1.324,1.069
			c-0.125,0.636-0.246,1.272-0.399,2.071c2.394,0,4.746,0,7.223,0c-0.174,0.945-0.28,1.727-0.479,2.483
			c-0.053,0.201-0.388,0.465-0.596,0.466c-3.583,0.029-7.167,0.021-10.915,0.021c1.068-5.046,2.105-9.952,3.151-14.895
			c3.807,0,7.525,0,11.368,0c-0.142,0.793-0.207,1.553-0.44,2.257c-0.08,0.244-0.576,0.485-0.891,0.496
			c-1.719,0.052-3.443,0.087-5.163,0.017c-0.902-0.036-1.454,0.146-1.57,1.131C164.563,84.396,164.39,84.991,164.211,85.841z"/>
		<path fill-rule="evenodd" clip-rule="evenodd" d="M24.229,99.773c6.631-1.284,13.009-2.52,19.584-3.791
			c-1.112,2.818-2.629,5.088-4.649,6.967c-1.275,1.185-2.727,2.19-4.166,3.182c-0.313,0.216-1.023,0.204-1.35-0.01
			C30.561,104.097,27.519,102.005,24.229,99.773z"/>
		<path fill-rule="evenodd" clip-rule="evenodd" d="M24.167,75.892c-6.353,1.279-12.706,2.559-19.06,3.838
			c-0.083-0.104-0.167-0.207-0.251-0.312c0.824-1.352,1.577-2.752,2.487-4.042c1.754-2.489,4.05-4.405,6.71-5.874
			c0.263-0.147,0.748-0.215,0.966-0.07c3.075,2.029,6.122,4.102,9.175,6.165C24.186,75.693,24.176,75.793,24.167,75.892z"/>
		<path fill-rule="evenodd" clip-rule="evenodd" d="M12.574,88.162c1.203,6.351,2.406,12.7,3.64,19.215
			c-2.381-0.837-4.323-2.091-5.939-3.701c-1.536-1.531-2.8-3.337-4.132-5.063c-0.178-0.231-0.203-0.793-0.044-1.039
			c2.038-3.163,4.121-6.296,6.194-9.438C12.386,88.146,12.48,88.153,12.574,88.162z"/>
		<path fill-rule="evenodd" clip-rule="evenodd" d="M15.804,79.472c-3.735,5.648-7.296,11.034-10.857,16.42
			c-0.144-0.005-0.288-0.011-0.431-0.016c-0.425-2.043-1.123-4.074-1.202-6.129c-0.092-2.382,0.333-4.788,0.609-7.174
			c0.038-0.324,0.471-0.796,0.792-0.863C8.307,80.944,11.914,80.245,15.804,79.472z"/>
		<path fill-rule="evenodd" clip-rule="evenodd" d="M16.061,96.523c5.546,3.721,10.838,7.272,16.129,10.824
			c-0.006,0.119-0.01,0.239-0.015,0.358c-1.573,0.376-3.133,0.835-4.723,1.112c-2.776,0.484-5.539,0.271-8.276-0.384
			c-0.627-0.149-0.992-0.42-1.116-1.115C17.438,103.809,16.767,100.305,16.061,96.523z"/>
		<path fill-rule="evenodd" clip-rule="evenodd" d="M36.244,87.474c-1.252-6.435-2.452-12.599-3.718-19.107
			c1.252,0.679,2.242,1.12,3.13,1.712c2.764,1.846,5.137,4.091,6.825,6.999c0.307,0.53,0.358,0.897-0.044,1.461
			C40.386,81.415,38.404,84.342,36.244,87.474z"/>
		<path fill-rule="evenodd" clip-rule="evenodd" d="M16.852,68.003c1.796-0.378,3.583-1,5.39-1.071
			c2.313-0.09,4.645,0.255,6.968,0.433c0.949,0.072,1.401,0.514,1.572,1.566c0.536,3.3,1.239,6.573,1.938,10.164
			c-5.464-3.676-10.681-7.186-15.898-10.697C16.831,68.267,16.841,68.134,16.852,68.003z"/>
		<path fill-rule="evenodd" clip-rule="evenodd" d="M107.694,79.89c4.516,0,8.891,0,13.37,0c-0.208,0.974-0.397,1.854-0.598,2.791
			c-1.314,0-2.558,0.036-3.798-0.015c-0.647-0.026-0.921,0.226-1.048,0.826c-0.722,3.42-1.501,6.829-2.176,10.26
			c-0.163,0.834-0.47,1.096-1.284,1.038c-0.94-0.068-1.892-0.017-3.05-0.017c0.845-4.021,1.665-7.913,2.524-12.002
			c-1.484,0-2.949,0-4.573,0C107.303,81.677,107.493,80.806,107.694,79.89z"/>
		<path fill-rule="evenodd" clip-rule="evenodd" d="M70.218,97.418c1.244,0,2.378-0.063,3.503,0.022
			c0.742,0.057,1.678,0.178,1.75,1.138c0.045,0.614-0.329,1.26-0.486,1.791c0.228,0.677,0.795,1.492,0.655,2.157
			c-0.215,1.015-1.239,1.312-2.277,1.286c-1.021-0.024-2.042-0.005-3.144-0.005C70.218,101.674,70.218,99.617,70.218,97.418z
			 M71.006,100.787c0,0.764-0.047,1.275,0.023,1.771c0.029,0.207,0.303,0.534,0.478,0.542c0.792,0.035,1.62,0.096,2.375-0.096
			c0.412-0.104,0.91-0.658,0.973-1.071c0.044-0.283-0.547-0.893-0.932-0.969C73.021,100.784,72.073,100.835,71.006,100.787z
			 M71.107,98.146c0,0.731,0,1.293,0,1.914c0.898,0,1.722,0.11,2.493-0.045c0.417-0.083,0.746-0.616,1.114-0.947
			c-0.352-0.308-0.669-0.813-1.063-0.881C72.842,98.05,71.994,98.146,71.107,98.146z"/>
		<path fill-rule="evenodd" clip-rule="evenodd" d="M128.704,97.225c2.167-0.006,3.671,1.323,3.616,3.365
			c-0.057,1.958-1.159,3.388-3.586,3.393c-2.2,0.005-3.607-1.304-3.616-3.365C125.108,98.564,126.517,97.233,128.704,97.225z
			 M128.784,97.982c-1.641-0.03-2.854,1.095-2.858,2.648c-0.002,1.419,1.316,2.711,2.766,2.705c1.532-0.004,2.734-1.17,2.758-2.675
			C131.472,99.099,130.391,98.013,128.784,97.982z"/>
		<path fill-rule="evenodd" clip-rule="evenodd" d="M84.515,97.252c2.176,0.03,3.585,1.365,3.584,3.397
			c-0.002,1.979-1.509,3.349-3.671,3.334c-2.155-0.014-3.546-1.314-3.535-3.306C80.907,98.486,82.244,97.22,84.515,97.252z
			 M81.757,100.612c0.01,1.58,1.222,2.766,2.785,2.724c1.493-0.037,2.618-1.178,2.625-2.657c0.01-1.691-1.034-2.728-2.733-2.718
			C82.783,97.972,81.746,98.999,81.757,100.612z"/>
		<path fill-rule="evenodd" clip-rule="evenodd" d="M137.674,103.625c0-2.032,0-4.063,0-6.194c1.267,0,2.468-0.069,3.656,0.026
			c0.688,0.054,1.518,0.135,1.733,1.051c0.207,0.881-0.063,1.58-0.706,1.876c0.314,1.152,0.602,2.199,0.89,3.245
			c-0.136,0.081-0.269,0.16-0.404,0.242c-0.193-0.259-0.513-0.493-0.563-0.778c-0.47-2.599-0.988-2.126-3.296-2.127
			c-0.183,0-0.488,0.385-0.524,0.622c-0.085,0.535,0.012,1.099-0.064,1.638c-0.033,0.232-0.311,0.432-0.475,0.646
			C137.839,103.789,137.756,103.708,137.674,103.625z M138.488,100.345c1.151-0.119,2.163-0.164,3.143-0.367
			c0.255-0.053,0.581-0.607,0.559-0.908c-0.022-0.306-0.41-0.808-0.678-0.834c-0.992-0.101-2-0.04-3.023-0.04
			C138.488,98.929,138.488,99.504,138.488,100.345z"/>
		<path fill-rule="evenodd" clip-rule="evenodd" d="M98.658,103.871c-0.208-0.189-0.533-0.343-0.605-0.573
			c-0.802-2.544-0.978-2.681-3.904-2.16c-0.118,0.021,0.008,1.328-0.03,2.048c-0.01,0.196-0.203,0.383-0.313,0.575
			c-0.148-0.191-0.423-0.379-0.427-0.571c-0.032-1.865-0.019-3.729-0.019-5.84c1.58,0.088,3.118,0.029,4.592,0.304
			c1.275,0.238,1.237,1.84,0.139,2.782c0.326,1.096,0.631,2.117,0.934,3.14C98.901,103.674,98.778,103.772,98.658,103.871z
			 M94.294,98.157c0,0.743,0,1.373,0,2.153c1.046-0.083,1.995-0.077,2.902-0.275c0.331-0.072,0.797-0.662,0.761-0.965
			c-0.04-0.335-0.552-0.821-0.91-0.872C96.158,98.073,95.24,98.157,94.294,98.157z"/>
		<path fill-rule="evenodd" clip-rule="evenodd" d="M165.099,101.896c0.26,0.198,0.563,0.36,0.772,0.601
			c0.803,0.92,2.57,1.193,3.488,0.438c0.297-0.244,0.583-0.715,0.563-1.063c-0.015-0.249-0.516-0.585-0.855-0.678
			c-0.837-0.228-1.707-0.323-2.559-0.496c-0.709-0.144-1.354-0.381-1.44-1.253c-0.082-0.855,0.22-1.487,1.021-1.875
			c1.707-0.826,3.888-0.201,4.583,1.63c-0.506-0.227-0.902-0.277-1.074-0.501c-0.732-0.94-1.709-0.964-2.669-0.667
			c-0.441,0.137-0.755,0.686-1.127,1.047c0.401,0.321,0.757,0.779,1.213,0.927c0.788,0.256,1.673,0.224,2.45,0.498
			c0.48,0.17,1.059,0.617,1.189,1.063c0.138,0.456-0.06,1.188-0.382,1.574c-0.968,1.164-3.9,1.133-4.924,0.011
			c-0.243-0.268-0.354-0.655-0.524-0.989C164.917,102.072,165.009,101.985,165.099,101.896z"/>
		<path fill-rule="evenodd" clip-rule="evenodd" d="M57.896,103.64c0.938-1.854,1.852-3.721,2.824-5.556
			c0.489-0.924,1.187-0.979,1.632-0.145c1.01,1.887,1.965,3.804,2.942,5.711c-0.077,0.085-0.152,0.168-0.229,0.252
			c-0.292-0.208-0.739-0.356-0.847-0.637c-0.368-0.951-1.006-1.241-1.961-1.097c-0.395,0.06-0.81,0.059-1.207,0.011
			c-1.001-0.119-1.782,0.056-2.15,1.162c-0.081,0.24-0.545,0.354-0.833,0.526C58.009,103.793,57.953,103.717,57.896,103.64z
			 M61.567,98.138c-0.57,1.157-1.033,2.097-1.56,3.166c1.106,0,2.05,0,3.154,0C62.636,100.26,62.162,99.319,61.567,98.138z"/>
		<path fill-rule="evenodd" clip-rule="evenodd" d="M103.629,103.601c0.994-1.899,1.97-3.809,2.993-5.691
			c0.394-0.724,1.113-0.715,1.492,0.003c0.999,1.893,1.96,3.801,2.937,5.704c-0.075,0.088-0.15,0.174-0.225,0.261
			c-0.303-0.22-0.772-0.378-0.881-0.671c-0.328-0.875-0.896-1.144-1.767-1.035c-0.396,0.049-0.807,0.04-1.205,0
			c-1.051-0.106-1.95-0.01-2.333,1.217c-0.07,0.222-0.511,0.327-0.779,0.485C103.783,103.783,103.707,103.691,103.629,103.601z
			 M107.332,98.091c-0.592,1.25-1.049,2.21-1.518,3.197c1.057,0,2.009,0,3.096,0C108.385,100.221,107.925,99.29,107.332,98.091z"/>
		<path fill-rule="evenodd" clip-rule="evenodd" d="M154.987,97.404c1.623,0.119,3.145-0.201,4.616,0.203
			c-0.001,0.158-0.002,0.315-0.002,0.477c-0.727,0-1.452,0.005-2.179-0.002c-1.837-0.017-1.837-0.019-1.552,2.091
			c1.148,0,2.324,0,3.501,0c0.009,0.126,0.015,0.25,0.022,0.377c-1.082,0.618-2.39-0.07-3.576,0.43c0,0.638,0,1.313,0,2.268
			c1.321,0,2.64,0,3.954,0c-0.005,0.137-0.011,0.273-0.016,0.409c-1.557,0-3.112,0-4.77,0
			C154.987,101.667,154.987,99.611,154.987,97.404z"/>
		<path fill-rule="evenodd" clip-rule="evenodd" d="M117.243,103.704c0-1.812,0-3.62,0-5.585c-0.974,0-1.827,0-2.682,0
			c-0.03-0.141-0.061-0.28-0.09-0.42c0.285-0.095,0.567-0.263,0.856-0.272c4.278-0.158,5.119-0.074,5.467,0.614
			c-0.901,0.043-1.753,0.083-2.734,0.129c0,1.691,0.02,3.287-0.02,4.882c-0.007,0.27-0.263,0.533-0.404,0.802
			C117.507,103.802,117.375,103.753,117.243,103.704z"/>
		<path fill-rule="evenodd" clip-rule="evenodd" d="M53.573,103.722c-1.445,0-2.889,0-4.474,0c0-1.912-0.013-3.806,0.02-5.698
			c0.003-0.203,0.27-0.402,0.415-0.602c0.122,0.217,0.342,0.429,0.349,0.649c0.037,1.318,0.086,2.64,0.006,3.954
			c-0.059,0.961,0.316,1.228,1.196,1.146c0.617-0.058,1.245-0.036,1.866-0.007c0.238,0.012,0.47,0.145,0.705,0.222
			C53.628,103.497,53.601,103.609,53.573,103.722z"/>
		<path fill-rule="evenodd" clip-rule="evenodd" d="M148.608,103.626c0-1.825-0.017-3.649,0.018-5.472
			c0.005-0.246,0.261-0.485,0.401-0.728c0.13,0.256,0.367,0.509,0.374,0.768c0.033,1.644,0.036,3.29-0.003,4.933
			c-0.005,0.252-0.279,0.499-0.432,0.746C148.848,103.79,148.728,103.708,148.608,103.626z"/>
		<path fill-rule="evenodd" clip-rule="evenodd" fill="#FFFFFF" d="M94.481,86.282c0.254-1.21,0.438-2.128,0.647-3.043
			c0.036-0.157,0.192-0.42,0.277-0.415c1.108,0.082,2.295-0.011,3.294,0.375c0.929,0.359,0.372,2.291-0.854,2.653
			C96.837,86.149,95.739,86.136,94.481,86.282z"/>
	</g>
	<g>
	</g>
	<g>
	</g>
	<g>
	</g>
	<g>
	</g>
	<g>
	</g>
	<g>
	</g>
</g>
</svg>
