<?xml version="1.0" encoding="utf-8"?>
<!DOCTYPE svg PUBLIC "-//W3C//DTD SVG 1.1//EN" "http://www.w3.org/Graphics/SVG/1.1/DTD/svg11.dtd">
<svg version="1.1" xmlns="http://www.w3.org/2000/svg" xmlns:xlink="http://www.w3.org/1999/xlink" x="0px" y="0px" width="176px"
	 height="176px" viewBox="0 0 176 176" enable-background="new 0 0 176 176" xml:space="preserve">
<g id="Layer_2">
	
		<rect x="0.5" y="0.5" fill-rule="evenodd" clip-rule="evenodd" fill="none" stroke="#E0DDC5" stroke-miterlimit="10" width="175" height="175"/>
</g>
<g id="Layer_3">
	<g>
		<rect x="3.125" y="95.5" fill-rule="evenodd" clip-rule="evenodd" fill="none" width="169.75" height="69.833"/>
		<path fill="none" stroke="#231F20" stroke-miterlimit="10" d="M31.32,98.544c-0.24-0.24-0.2-0.8,0.12-0.96
			c1.08,0.08,2.879,0.12,4.119,0.12c1.12,0,3.16-0.04,4.56-0.12c0.36,0.12,0.32,0.68,0.08,0.96l-0.919,0.08
			c-0.84,0.08-1.32,0.319-1.32,0.68c0,0.479,0.84,2.52,2.08,5.359c2.24,4.999,4.599,9.998,6.919,14.917
			c0.959-1.999,2.04-4.238,3.079-6.479c0.36-0.76,0.64-1.439,0.64-1.64s-0.12-0.56-0.32-1.04c-1.4-3.199-2.88-6.398-4.399-9.598
			c-0.6-1.24-1.2-2.08-2.56-2.2l-0.96-0.08c-0.28-0.319-0.24-0.8,0.08-0.96c1.16,0.08,2.68,0.12,4.279,0.12
			c2,0,3.479-0.04,4.399-0.12c0.28,0.12,0.32,0.641,0.08,0.96l-1.04,0.08c-1.56,0.12-1.6,0.399-0.84,2.2
			c0.84,1.959,1.959,4.479,3.08,6.958c0.76-1.56,1.479-3.079,2.359-5.239c1.44-3.399,1.24-3.839-0.04-3.919l-1.2-0.08
			c-0.28-0.399-0.2-0.84,0.08-0.96c1.08,0.08,2.28,0.12,3.759,0.12c1.32,0,2.919-0.04,3.839-0.12c0.28,0.12,0.32,0.641,0.08,0.96
			l-1.16,0.08c-1.68,0.12-2.4,1.919-3.28,3.56c-0.84,1.479-2.52,4.959-3.119,6.358c-0.2,0.4-0.36,0.8-0.36,0.96s0.08,0.48,0.28,0.96
			c1.36,3.079,2.759,6.079,4.079,9.118c1.24-2.799,2.439-5.599,3.6-8.438c0.8-1.919,2.919-7.239,3.199-7.958
			c0.52-1.44,1.2-3.16,1.2-3.64c0-0.56-0.479-0.88-1.319-0.92l-1.16-0.08c-0.32-0.36-0.28-0.8,0.04-0.96
			c1.52,0.08,2.6,0.12,3.839,0.12c1.52,0,2.68-0.04,3.719-0.12c0.32,0.12,0.36,0.641,0.08,0.96l-0.76,0.08
			c-2,0.2-2.359,1.399-4.759,6.958l-2.919,6.76c-1.76,4.079-3.359,7.998-4.999,12.277c-0.12,0.08-0.28,0.12-0.48,0.12
			c-0.2,0-0.4-0.04-0.56-0.12c-1.28-3.559-3.599-8.559-4.839-11.357c-1.44,2.92-3.839,8.038-5,11.357
			c-0.12,0.08-0.28,0.12-0.48,0.12c-0.2,0-0.4-0.04-0.6-0.12c-0.68-1.68-2.24-5.278-2.76-6.438
			c-2.56-5.56-5.039-11.118-7.639-16.677c-0.76-1.641-1.24-2.721-2.919-2.88L31.32,98.544z"/>
		<path fill="none" stroke="#231F20" stroke-miterlimit="10" d="M70.96,111.182c0-7.998,5.999-14.117,14.237-14.117
			c9.238,0,13.878,6.679,13.878,13.717c0,8.079-6.159,13.958-13.878,13.958C76.319,124.739,70.96,118.381,70.96,111.182z
			 M95.076,112.021c0-6.599-2.92-13.718-10.559-13.718c-4.159,0-9.559,2.84-9.559,11.599c0,5.918,2.88,13.598,10.758,13.598
			C90.517,123.5,95.076,119.9,95.076,112.021z"/>
		<path fill="none" stroke="#231F20" stroke-miterlimit="10" d="M106.039,103.703c0-4.199-0.08-4.84-2.6-5.039l-1-0.08
			c-0.24-0.16-0.16-0.88,0.08-1c2.24,0.08,3.6,0.12,5.199,0.12c1.56,0,2.92-0.04,4.919-0.12c0.24,0.12,0.32,0.84,0.08,1l-0.96,0.08
			c-2.359,0.199-2.439,0.84-2.439,5.039v13.918c0,2.52,0.12,3.559,0.84,4.319c0.44,0.439,1.2,0.919,4.359,0.919
			c3.399,0,4.239-0.159,4.879-0.52c0.8-0.479,1.84-1.92,2.64-3.959c0.24-0.2,1-0.04,1,0.239c0,0.44-1.12,4.52-1.68,5.6
			c-2.04-0.08-5.839-0.12-9.958-0.12h-3.68c-1.68,0-2.959,0.04-5.199,0.12c-0.24-0.12-0.32-0.76-0.08-1l1.2-0.12
			c2.319-0.24,2.399-0.8,2.399-4.999V103.703z"/>
		<path fill="none" stroke="#231F20" stroke-miterlimit="10" d="M131.438,108.982c0,1.08,0.12,1.08,1.32,1.08h2.719
			c1.64,0,2.92-0.08,3.399-0.24c0.44-0.16,0.761-0.36,1-1.4l0.36-1.6c0.2-0.24,0.88-0.24,1.04,0c0,0.96-0.16,2.56-0.16,4.039
			c0,1.44,0.16,2.96,0.16,3.88c-0.16,0.239-0.76,0.239-1.04,0l-0.4-1.56c-0.199-0.721-0.52-1.279-1.279-1.52
			c-0.561-0.16-1.56-0.2-3.08-0.2h-2.719c-1.2,0-1.32,0.04-1.32,1.079v5.56c0,4.199,0.08,4.799,2.439,4.999l1.36,0.12
			c0.239,0.16,0.16,0.88-0.08,1c-2.359-0.08-3.72-0.12-5.319-0.12c-1.76,0-3.119,0.04-4.999,0.12c-0.24-0.12-0.32-0.76-0.08-1
			l1-0.12c2.319-0.279,2.399-0.8,2.399-4.999v-14.397c0-4.199-0.08-4.76-2.399-5.039l-0.64-0.08c-0.24-0.16-0.16-0.88,0.079-1
			c1.68,0.08,3.04,0.12,4.64,0.12h7.358c2.56,0,4.88,0,5.399-0.12c0,1.84,0.04,3.76,0.12,5.279c-0.12,0.24-0.68,0.359-0.96,0.12
			c-0.32-1.8-0.8-3.28-2.8-3.8c-0.88-0.24-2.199-0.24-3.879-0.24h-2.439c-1.2,0-1.2,0.08-1.2,1.6V108.982z"/>
		<path fill="none" stroke="#231F20" stroke-miterlimit="10" d="M41.219,133.464c2.919-2.28,6.639-3.399,10.798-3.399
			c2.16,0,5.199,0.439,7.079,0.96c0.48,0.119,0.76,0.199,1.12,0.159c0.04,0.92,0.24,3.439,0.56,5.879c-0.2,0.28-0.8,0.32-1.08,0.08
			c-0.6-2.719-2.4-5.839-8.199-5.839c-6.119,0-11.318,3.88-11.318,12.158c0,8.398,5.319,13.038,11.878,13.038
			c5.159,0,7.438-3.359,8.358-5.72c0.28-0.199,0.88-0.119,1.04,0.16c-0.28,2.08-1.32,4.72-1.92,5.479
			c-0.48,0.08-0.96,0.24-1.4,0.399c-0.88,0.32-3.759,0.92-6.319,0.92c-3.599,0-7.039-0.72-9.958-2.68
			c-3.2-2.199-5.679-5.839-5.679-10.998C36.18,139.622,38.18,135.823,41.219,133.464z"/>
		<path fill="none" stroke="#231F20" stroke-miterlimit="10" d="M64.1,144.182c0-7.998,5.999-14.117,14.237-14.117
			c9.239,0,13.877,6.679,13.877,13.718c0,8.078-6.159,13.957-13.877,13.957C69.459,157.739,64.1,151.381,64.1,144.182z
			 M88.216,145.021c0-6.599-2.919-13.718-10.558-13.718c-4.159,0-9.559,2.84-9.559,11.599c0,5.919,2.88,13.598,10.758,13.598
			C83.657,156.5,88.216,152.9,88.216,145.021z"/>
		<path fill="none" stroke="#231F20" stroke-miterlimit="10" d="M99.18,136.703c0-4.199-0.08-4.839-2.6-5.039l-1-0.08
			c-0.24-0.16-0.16-0.88,0.08-1c2.24,0.08,3.6,0.12,5.199,0.12c1.56,0,2.92-0.04,4.919-0.12c0.24,0.12,0.32,0.84,0.08,1l-0.96,0.08
			c-2.359,0.2-2.439,0.84-2.439,5.039v13.918c0,2.52,0.12,3.559,0.84,4.319c0.44,0.439,1.2,0.919,4.359,0.919
			c3.399,0,4.239-0.159,4.879-0.52c0.8-0.479,1.84-1.92,2.64-3.959c0.24-0.2,1-0.04,1,0.239c0,0.44-1.12,4.52-1.68,5.6
			c-2.04-0.08-5.839-0.12-9.958-0.12h-3.68c-1.68,0-2.959,0.04-5.199,0.12c-0.24-0.12-0.32-0.76-0.08-1l1.2-0.12
			c2.319-0.24,2.399-0.8,2.399-4.999V136.703z"/>
		<path fill="none" stroke="#231F20" stroke-miterlimit="10" d="M132.938,147.821c-0.28-0.88-0.44-1-1.64-1h-6.039
			c-1,0-1.24,0.12-1.52,0.96l-1.4,4.199c-0.6,1.8-0.88,2.88-0.88,3.319c0,0.48,0.2,0.72,1.16,0.8l1.319,0.12
			c0.28,0.2,0.28,0.84-0.079,1c-1.04-0.08-2.28-0.08-4.16-0.12c-1.319,0-2.759,0.08-3.839,0.12c-0.24-0.16-0.32-0.8-0.08-1
			l1.319-0.12c0.96-0.08,1.84-0.52,2.4-1.96c0.72-1.839,1.84-4.438,3.52-8.918l4.079-10.798c0.56-1.44,0.8-2.2,0.68-2.84
			c0.96-0.28,1.64-1,2.08-1.52c0.239,0,0.52,0.08,0.6,0.359c0.52,1.76,1.159,3.6,1.76,5.359l5.479,16.077
			c1.16,3.439,1.68,4.039,3.399,4.239l1.08,0.12c0.28,0.2,0.2,0.84,0,1c-1.64-0.08-3.039-0.12-4.839-0.12
			c-1.92,0-3.439,0.08-4.6,0.12c-0.319-0.16-0.359-0.8-0.08-1l1.16-0.12c0.84-0.08,1.399-0.319,1.399-0.72
			c0-0.439-0.2-1.16-0.52-2.12L132.938,147.821z M125.019,144.262c-0.319,0.92-0.279,0.96,0.84,0.96h4.919
			c1.16,0,1.24-0.16,0.88-1.24l-2.159-6.519c-0.32-0.96-0.68-2.04-0.92-2.52h-0.08c-0.12,0.2-0.52,1.16-0.96,2.359L125.019,144.262z
			"/>
	</g>
</g>
<g id="Layer_4">
	<g>
		<path fill-rule="evenodd" clip-rule="evenodd" d="M121.428,45.348c-0.562,0.269-1.152,0.398-1.771,0.349
			c-0.241-0.019-0.339,0.066-0.434,0.271c-0.942,2.041-1.753,4.126-2.166,6.347c-0.427,2.292-0.364,4.541,0.651,6.694
			c0.101,0.211,0.211,0.418,0.343,0.678c-0.379-0.104-0.717-0.193-1.053-0.291c-0.147-0.043-0.248-0.037-0.348,0.115
			c-2.487,3.781-4.705,7.702-6.239,11.979c-0.792,2.207-1.368,4.466-1.595,6.805c-0.16,1.661-0.145,3.32,0.134,4.97
			c0.013,0.073,0.014,0.148,0.028,0.311c-1.643-1.52-2.489-3.38-2.952-5.457c-7.111,0.86-13.041,3.963-17.797,9.318
			c-0.284-0.537-0.458-3.26-0.348-5.352c0.094-1.784,0.422-3.533,0.871-5.318c-0.159,0.075-0.266,0.124-0.372,0.175
			c-3.567,1.742-7.184,3.368-10.939,4.669c-2.593,0.898-5.228,1.63-7.946,2.04c-1.648,0.248-3.304,0.36-4.97,0.301
			c-0.045-0.001-0.09-0.008-0.175-0.017c0.045-0.054,0.065-0.092,0.097-0.114c2.539-1.762,4.023-4.232,4.769-7.178
			c0.278-1.099,0.459-2.222,0.683-3.334c0.009-0.045,0.005-0.092,0.01-0.194c-6.188,1.32-12.204,0.859-18.091-1.651
			c0.156-0.057,0.258-0.096,0.361-0.132c2.726-0.97,5.337-2.165,7.668-3.909c2.99-2.236,5.061-5.121,6.136-8.707
			c0.013-0.044,0.024-0.089,0.049-0.183c-0.111,0.017-0.196,0.026-0.28,0.042c-1.951,0.374-3.913,0.629-5.906,0.471
			c-1.741-0.138-3.388-0.559-4.791-1.667c-0.235-0.186-0.446-0.402-0.664-0.608c-0.074-0.07-0.137-0.151-0.226-0.252
			c0.37-0.11,0.71-0.21,1.05-0.312c3.958-1.187,7.397-3.267,10.427-6.053c1.729-1.589,3.451-3.186,5.204-4.748
			c0.691-0.616,1.459-1.147,2.208-1.729c-0.083-0.04-0.169-0.085-0.258-0.123c-2.908-1.248-4.478-3.465-4.826-6.596
			c-0.048-0.43,0.063-0.673,0.39-0.939c2.76-2.243,5.797-4.049,8.918-5.729c2.767-1.49,5.543-2.966,8.272-4.523
			c2.941-1.678,5.69-3.646,8.291-5.817c1.124-0.937,2.428-1.443,3.857-1.646c1.537-0.219,3.054-0.065,4.544,0.351
			c0.212,0.059,0.361,0.037,0.54-0.088c4.399-3.08,8.802-6.155,13.206-9.228c0.541-0.377,1.151-0.595,1.803-0.672
			c0.963-0.114,1.724,0.262,2.304,1.021c0.53,0.694,0.844,1.472,0.931,2.348c0.171,1.718,0.419,3.431,0.527,5.152
			c0.129,2.061-0.092,4.09-0.969,6c-0.145,0.313-0.313,0.616-0.487,0.955c0.465,0.021,0.909,0.042,1.353,0.06
			c0.563,0.022,1.127,0.048,1.69,0.056c0.177,0.002,0.258,0.07,0.335,0.224c1.336,2.697,1.048,5.223-0.772,7.6
			c-1.046,1.365-2.307,2.521-3.552,3.692c-0.033,0.032-0.075,0.055-0.115,0.08c-1.423,0.884-1.903,2.217-1.687,3.8
			c0.321,2.351,1.684,4.042,3.59,5.35c0.153,0.106,0.313,0.203,0.471,0.305C121.414,45.312,121.416,45.323,121.428,45.348z
			 M110.911,36.167c0.074-0.021,0.134-0.043,0.195-0.057c0.981-0.209,1.971-0.384,2.942-0.632c1.909-0.488,3.741-1.173,5.384-2.292
			c2.493-1.699,3.762-4.021,3.575-7.077c-0.004-0.067-0.02-0.134-0.037-0.244c-3.481,2.998-7.498,3.634-11.87,2.918
			c0.042-0.32,0.076-0.608,0.119-0.895c0.417-2.772,1.646-5.103,3.783-6.938c0.412-0.354,0.837-0.699,1.227-1.077
			c0.824-0.801,1.587-1.656,2.066-2.72c0.26-0.576,0.393-1.174,0.276-1.808c-0.157-0.857-0.687-1.465-1.346-1.979
			c-0.86-0.672-1.851-1.099-2.859-1.49c-0.189-0.073-0.323-0.047-0.485,0.071c-3.471,2.54-6.946,5.072-10.416,7.612
			c-0.176,0.128-0.332,0.161-0.544,0.12c-1.269-0.244-2.545-0.355-3.838-0.206c-2.138,0.249-3.549,1.485-4.046,3.576
			c-0.332,1.394-0.248,2.796-0.079,4.201c0.074,0.612,0.188,1.232,0.152,1.841c-0.063,1.063-0.588,1.972-1.21,2.806
			c-0.61,0.82-1.261,1.613-1.923,2.393c-0.36,0.425-0.613,0.89-0.786,1.414c-0.438,1.333-0.453,2.698-0.286,4.069
			c0.183,1.5,0.426,2.991,0.61,4.491c0.146,1.19,0.134,2.382-0.174,3.552c-0.057,0.218-0.012,0.322,0.17,0.454
			c1.888,1.378,3.802,2.724,5.64,4.167c2.624,2.06,5.008,4.374,7.002,7.065c2.05,2.768,3.504,5.808,4.168,9.203
			c0.128,0.659,0.218,1.325,0.335,2.047c1.606-4.675,3.896-8.94,6.588-12.937c0.383,0.158,0.729,0.3,1.073,0.442
			c0.016-0.026,0.031-0.053,0.047-0.079c-0.025-0.066-0.047-0.135-0.077-0.2c-0.449-0.976-0.679-2.003-0.734-3.074
			c-0.082-1.546,0.167-3.05,0.55-4.539c0.496-1.93,1.206-3.787,1.94-5.635c0.07-0.176,0.07-0.293-0.074-0.444
			c-0.703-0.729-1.186-1.592-1.502-2.55c-0.105-0.318-0.197-0.641-0.309-1.006c-0.271,0.753-0.374,1.488-0.335,2.231
			c0.039,0.729,0.149,1.455,0.229,2.184c-1.136-1.895-1.345-3.958-1.071-6.113c-1.493,2.298-2.373,4.727-1.688,7.51
			c-1.302-2.604-0.83-5.166,0.18-7.723c-1.187,1.831-2.329,3.68-4.039,5.082c0.035-0.095,0.083-0.182,0.134-0.268
			c0.737-1.249,1.388-2.538,1.74-3.953C111.608,38.476,111.761,37.271,110.911,36.167z M69.669,37.171
			c0.335,0.619,0.598,1.237,0.973,1.777c1.989,2.869,4.685,4.759,8.073,5.593c2.685,0.661,5.213,0.229,7.52-1.346
			c0.148-0.101,0.216-0.199,0.185-0.389c-0.275-1.675-0.58-3.345-1.086-4.969c-0.358-1.15-0.794-2.267-1.543-3.231
			c-0.8-1.032-1.847-1.558-3.161-1.547c-0.854,0.007-1.677,0.183-2.484,0.439C75.23,34.425,72.55,35.895,69.669,37.171z
			 M67.091,83.04c5.036-0.968,10.307-7.257,10.162-12.435c-0.21,0.667-0.397,1.416-0.683,2.125
			c-0.282,0.702-0.609,1.399-1.018,2.032c-0.415,0.641-0.921,1.232-1.45,1.787c-0.634,0.665-1.497,1.194-1.887,1.267
			c0.71-2.593,0.518-5.168-0.113-7.735c-0.038,0.081-0.046,0.162-0.053,0.243c-0.152,1.929-0.375,3.849-0.852,5.729
			c-0.486,1.918-1.187,3.744-2.462,5.288C68.226,81.957,67.622,82.497,67.091,83.04z M85.211,64.851
			c-0.037,0.021-0.077,0.038-0.111,0.063c-1.104,0.8-2.161,1.655-3.113,2.635c-1.179,1.214-2.184,2.555-2.571,4.229
			c-0.252,1.091-0.35,2.22-0.488,3.336c-0.165,1.327-0.608,2.528-1.483,3.555c-0.069,0.081-0.133,0.165-0.209,0.26
			c0.044,0.002,0.066,0.011,0.079,0.003c0.073-0.042,0.144-0.087,0.215-0.133c1.173-0.761,2.106-1.762,2.796-2.965
			c0.704-1.227,1.34-2.493,1.985-3.753c0.89-1.739,1.902-3.388,3.372-4.71c0.021-0.019,0.03-0.049,0.077-0.129
			c-1.939,0.646-3.209,2.059-4.513,3.437C81.799,68.211,83.525,66.557,85.211,64.851z M74.993,47.865
			c-0.006-0.016-0.013-0.031-0.019-0.046c-0.126,0.016-0.254,0.023-0.377,0.049c-0.661,0.138-1.199,0.516-1.742,0.888
			c-0.502,0.345-1.003,0.693-1.523,1.01c-0.231,0.141-0.509,0.207-0.788,0.316c0.472-0.669,0.938-1.279,1.349-1.924
			c0.724-1.136,1.564-2.156,2.695-2.911c0.009-0.006,0.01-0.025,0.033-0.083c-0.295,0.157-0.562,0.288-0.818,0.437
			c-1.439,0.834-2.613,1.979-3.731,3.189c-1.19,1.29-2.38,2.58-3.572,3.868c-0.087,0.094-0.196,0.166-0.294,0.249
			c0.016,0.027,0.032,0.055,0.049,0.082c0.314-0.08,0.631-0.148,0.941-0.241c0.778-0.232,1.44-0.66,2.021-1.239
			c-0.101,1.085-0.351,2.121-0.808,3.103c-0.463,0.996-1.128,1.837-1.963,2.558c0.242-0.066,0.47-0.147,0.691-0.245
			c1.298-0.569,2.274-1.521,3.054-2.671c0.726-1.07,1.388-2.185,2.083-3.276c0.648-1.016,1.359-1.981,2.292-2.762
			C74.708,48.096,74.851,47.981,74.993,47.865z M76.888,57.413c-0.021-0.032-0.041-0.064-0.062-0.096
			c-0.391,0.248-0.813,0.459-1.165,0.753c-0.532,0.445-1.006,0.958-1.522,1.422c-0.453,0.407-0.928,0.789-1.398,1.176
			c-0.079,0.065-0.185,0.098-0.268,0.141c0.533-0.922,1.067-1.824,1.581-2.738c0.644-1.146,1.405-2.198,2.362-3.103
			c0.027-0.026,0.048-0.059,0.071-0.089c-0.153,0.074-0.281,0.169-0.405,0.269c-1.562,1.25-2.818,2.779-3.997,4.377
			c-1.248,1.692-2.493,3.388-3.739,5.081c-0.073,0.099-0.151,0.194-0.226,0.292c1.221-0.471,2.213-1.227,3.017-2.339
			c-0.282,2.504-1.134,4.669-2.813,6.492c0.051,0.003,0.072,0.012,0.085,0.005c0.065-0.037,0.129-0.077,0.192-0.117
			c0.766-0.489,1.437-1.086,2.032-1.771c1.074-1.237,1.841-2.669,2.589-4.111C74.261,61.057,75.269,59.037,76.888,57.413z
			 M81.611,77.727c0.006,0.012,0.012,0.023,0.017,0.035c0.176-0.057,0.353-0.112,0.528-0.172c2.131-0.731,4.173-1.642,5.98-3.012
			c1.337-1.014,2.441-2.224,3.105-3.79c0.258-0.608,0.437-1.238,0.482-1.91c-0.99,2.051-2.455,3.613-4.625,4.56
			c0.684-1.38,1.181-2.759,1.505-4.199c0.345-1.537,0.472-3.665,0.257-4.377c-0.027,0.106-0.051,0.196-0.074,0.285
			c-0.526,2.105-1.164,4.173-2.086,6.143c-1.072,2.29-2.473,4.333-4.457,5.939C82.036,77.398,81.822,77.562,81.611,77.727z
			 M56.077,71.29c0.121,0,0.243,0.006,0.364-0.001c1.087-0.059,2.178-0.078,3.259-0.19c1.622-0.167,3.198-0.546,4.689-1.229
			c1.666-0.763,3.033-1.863,3.923-3.497c0.05-0.092,0.092-0.188,0.138-0.282c-1.614,1.606-3.489,2.616-5.829,2.826
			c2.114-2.188,3.706-4.612,4.394-7.557c-0.077,0.071-0.133,0.155-0.19,0.238c-0.771,1.099-1.505,2.225-2.32,3.289
			c-1.453,1.899-3.136,3.567-5.178,4.844C58.305,70.37,57.219,70.87,56.077,71.29z M101.448,75.981
			c-3.004-0.114-5.745,0.801-8.393,2.265c0.805-2.197,2.267-3.743,4.229-4.867c-0.241,0.024-0.46,0.071-0.674,0.135
			c-1.831,0.543-3.218,1.697-4.345,3.195c-1.396,1.856-2.25,3.972-2.91,6.177c-0.106,0.355-0.198,0.714-0.297,1.071
			c0.089-0.04,0.134-0.098,0.174-0.159c0.787-1.204,1.746-2.253,2.852-3.171c1.877-1.559,4.013-2.662,6.272-3.536
			C99.378,76.695,100.418,76.35,101.448,75.981z M74.551,71.709c0.058-0.037,0.082-0.043,0.086-0.056
			c0.096-0.254,0.193-0.508,0.284-0.764c0.929-2.604,2.183-4.995,4.327-6.84c0.767-0.66,1.34-1.509,1.742-2.435
			c0.537-1.235,0.998-2.504,1.485-3.761c0.084-0.218,0.139-0.448,0.207-0.673c-0.092,0.061-0.144,0.137-0.198,0.213
			c-0.549,0.772-1.05,1.585-1.658,2.307c-1.063,1.263-2.185,2.477-3.297,3.697c-0.782,0.858-1.423,1.808-1.753,2.919
			c-0.349,1.175-0.625,2.372-0.904,3.566C74.734,70.472,74.66,71.077,74.551,71.709z M83.697,30.578
			c2.323-0.501,4.185-1.693,5.806-3.304c-0.063,0.01-0.119,0.037-0.177,0.06c-0.954,0.388-1.887,0.842-2.866,1.148
			c-1.618,0.506-3.27,0.903-4.899,1.373c-1.788,0.517-3.478,1.245-4.942,2.425c-0.073,0.059-0.143,0.122-0.214,0.183
			c0.106,0.011,0.182-0.021,0.26-0.047c0.79-0.265,1.569-0.57,2.373-0.784c1.322-0.351,2.666-0.447,4.006-0.079
			c1.671,0.459,2.834,1.558,3.709,3.005c0.064,0.106,0.127,0.212,0.223,0.372c-0.026-0.778-0.355-1.722-0.896-2.334
			c-0.413-0.468-0.9-0.873-1.375-1.281C84.409,31.061,84.075,30.851,83.697,30.578z M97.062,75.261
			c0.07,0.007,0.091,0.014,0.106,0.009c1.765-0.574,3.463-1.292,4.997-2.354c1.302-0.901,2.398-1.988,3.051-3.463
			c0.269-0.608,0.443-1.279,0.435-1.712c-0.437,0.867-0.929,1.651-1.591,2.315c-0.658,0.661-1.422,1.164-2.32,1.568
			c1.112-2.331,1.745-4.699,1.513-7.246c-0.046,0.072-0.07,0.149-0.093,0.228c-0.169,0.615-0.324,1.233-0.509,1.844
			c-0.614,2.029-1.405,3.979-2.613,5.739C99.229,73.368,98.26,74.394,97.062,75.261z M91.951,27.947
			c-0.204,2.429-0.993,4.669-2.127,6.804c1.189-1.214,2.29-2.49,3.066-4.012c1.041-2.041,1.131-4.128,0.293-6.258
			c-0.028-0.073-0.068-0.14-0.119-0.244c-1.283,3.051-3.37,5.469-5.598,7.787C89.299,31.038,90.839,29.735,91.951,27.947z
			 M96.293,60.284c0,0.062-0.005,0.124,0.001,0.184c0.162,1.575,0.011,3.128-0.325,4.669c-0.506,2.321-1.376,4.514-2.351,6.67
			c-0.046,0.102-0.091,0.204-0.137,0.306c0.815-0.944,1.465-1.987,1.958-3.116c0.491-1.122,0.916-2.271,1.356-3.376
			c0.245,0.741,0.395,1.562,0.325,2.397c-0.068,0.828-0.215,1.65-0.319,2.421c0.601-0.885,1.059-2.75,1.035-4.29
			C97.806,64.07,97.217,62.136,96.293,60.284z M90.748,67.58c0.068-0.104,0.098-0.139,0.116-0.178
			c0.394-0.881,0.807-1.753,1.173-2.646c0.466-1.134,0.588-2.312,0.41-3.532c-0.15-1.039-0.27-2.083-0.346-3.129
			c-0.054-0.734-0.011-1.474-0.011-2.272c-0.048,0.11-0.079,0.166-0.098,0.226c-0.163,0.528-0.338,1.053-0.48,1.586
			c-0.347,1.289-0.547,2.592-0.24,3.919c0.323,1.393,0.244,2.775-0.066,4.155C91.07,66.308,90.914,66.904,90.748,67.58z
			 M58.387,56.258c0.045,0.039,0.057,0.059,0.072,0.062c1.453,0.247,2.909,0.36,4.368,0.067c1.151-0.23,2.175-0.705,2.948-1.627
			c0.049-0.059,0.088-0.125,0.132-0.189c-1.072,0.7-2.208,1.096-3.56,0.982c1.415-1.055,2.541-2.266,3.212-3.852
			C63.564,53.834,61.444,55.761,58.387,56.258z M81.973,54.84c0.024,0.005,0.048,0.011,0.072,0.017
			c0.202-0.367,0.376-0.752,0.613-1.095c0.232-0.337,0.504-0.657,0.803-0.936c0.298-0.278,0.653-0.497,0.983-0.742
			c0.018,0.021,0.036,0.041,0.054,0.061c-0.615,1.588-0.909,3.216-0.632,4.924c0.542-2.874,1.303-5.642,3.589-7.707
			c-1.336,0.527-2.58,1.188-3.646,2.147c-0.636,0.572-1.17,1.226-1.477,2.031C82.174,53.958,82.091,54.406,81.973,54.84z
			 M85.03,47.822c-0.087,0.027-0.174,0.055-0.261,0.082c-0.743,0.227-1.479,0.486-2.231,0.67c-0.846,0.207-1.716,0.312-2.561,0.521
			c-1.752,0.435-2.889,1.757-4.125,2.931c0.504-0.281,0.99-0.591,1.486-0.884c0.962-0.568,1.98-0.997,3.104-1.094
			C82.252,49.892,83.654,48.897,85.03,47.822z M85.841,61.174c0.082-0.217,0.161-0.435,0.245-0.65
			c0.496-1.275,1.044-2.528,2.1-3.452c1.375-1.204,1.945-2.829,2.479-4.558c-0.07,0.075-0.099,0.097-0.116,0.125
			c-0.828,1.296-1.839,2.439-2.901,3.546c-0.352,0.367-0.659,0.802-0.889,1.255C86.168,58.601,86.012,59.885,85.841,61.174z
			 M85.111,27.477c0.013,0.021,0.026,0.042,0.04,0.063c0.927-0.299,1.864-0.571,2.778-0.905c0.71-0.26,1.418-0.551,2.083-0.91
			c1.054-0.57,1.657-1.535,2.139-2.684c-0.43,0.353-0.79,0.662-1.164,0.953c-1.266,0.985-2.687,1.716-4.088,2.477
			C86.297,26.797,85.707,27.141,85.111,27.477z M115.918,26.687c1.135-0.821,2.245-1.675,3.552-2.236
			c-0.126-0.024-0.252-0.044-0.355-0.003c-0.243,0.095-0.364-0.019-0.5-0.202c-0.296-0.398-0.688-0.674-1.245-0.855
			c0.061,0.442,0.091,0.831,0.175,1.208c0.046,0.208,0.014,0.309-0.168,0.425C116.738,25.435,116.225,25.967,115.918,26.687z"/>
		<path fill-rule="evenodd" clip-rule="evenodd" d="M102.217,20.659c-0.347,0.452-0.748,0.823-1.253,1.072
			c-0.089,0.043-0.187,0.101-0.241,0.179c-0.569,0.81-1.372,1.292-2.28,1.619c-0.369,0.133-0.787,0.171-1.117,0.365
			c-0.325,0.19-0.566,0.522-0.847,0.791c-0.039,0.038-0.087,0.068-0.163,0.078c0.036-0.054,0.078-0.105,0.106-0.163
			c0.165-0.333,0.34-0.662,0.484-1.003c0.184-0.43,0.303-0.89,0.52-1.3c0.354-0.672,0.951-1.02,1.707-1.073
			c0.289-0.02,0.591-0.045,0.869,0.016c0.665,0.146,1.236-0.084,1.806-0.364C101.946,20.807,102.081,20.731,102.217,20.659z
			 M98.982,23.04c0.336-0.188,0.672-0.376,1.017-0.569c-0.444-0.58-1.134-0.828-1.572-0.61c-0.425,0.211-0.6,0.836-0.404,1.569
			c0.327-0.135,0.648-0.268,0.97-0.4L98.982,23.04z"/>
		<path fill-rule="evenodd" clip-rule="evenodd" d="M83.523,40.979c-0.42,0.022-0.84,0.053-1.26,0.064
			c-1.257,0.036-2.528,0.172-3.75-0.216c-0.9-0.286-1.769-0.673-2.646-1.028c-0.459-0.186-0.909-0.398-1.363-0.649
			c0.332-0.047,0.666-0.086,0.996-0.144c1.266-0.221,2.527-0.479,3.798-0.661c0.615-0.088,1.254-0.086,1.876-0.039
			c0.699,0.054,1.272,0.427,1.642,1.021c0.308,0.496,0.534,1.042,0.796,1.566C83.583,40.923,83.553,40.951,83.523,40.979z"/>
		<path fill-rule="evenodd" clip-rule="evenodd" d="M98.992,23.03c-0.344,0.017-0.523-0.144-0.447-0.441
			c0.03-0.116,0.171-0.272,0.271-0.28c0.095-0.007,0.275,0.149,0.287,0.249c0.018,0.154-0.075,0.321-0.121,0.483L98.992,23.03z"/>
	</g>
	<g>
	</g>
	<g>
	</g>
	<g>
	</g>
	<g>
	</g>
	<g>
	</g>
	<g>
	</g>
</g>
</svg>
