<?xml version="1.0" encoding="utf-8"?>
<!-- Generator: Adobe Illustrator 16.0.0, SVG Export Plug-In . SVG Version: 6.00 Build 0)  -->
<!DOCTYPE svg PUBLIC "-//W3C//DTD SVG 1.1//EN" "http://www.w3.org/Graphics/SVG/1.1/DTD/svg11.dtd">
<svg version="1.1" xmlns="http://www.w3.org/2000/svg" xmlns:xlink="http://www.w3.org/1999/xlink" x="0px" y="0px" width="176px"
	 height="176px" viewBox="0 0 176 176" enable-background="new 0 0 176 176" xml:space="preserve">
<g id="Layer_2">
	
		<rect x="0.5" y="0.5" fill-rule="evenodd" clip-rule="evenodd" fill="none" stroke="#E0DDC5" stroke-miterlimit="10" width="175" height="175"/>
</g>
<g id="Layer_3">
	<g>
		<rect x="1.813" y="95.5" fill-rule="evenodd" clip-rule="evenodd" fill="none" width="172.375" height="24.75"/>
		<path fill="#231F20" d="M13.182,111.527v7.719h-2.139v-7.719c-0.269-0.455-0.625-1.059-1.07-1.814
			c-0.444-0.754-0.925-1.59-1.441-2.51s-1.059-1.881-1.627-2.883c-0.569-1.003-1.111-1.964-1.627-2.884
			c-0.517-0.919-0.992-1.757-1.426-2.511c-0.434-0.754-0.786-1.359-1.054-1.813h2.387c0.372,0.62,0.827,1.405,1.364,2.356
			c0.537,0.95,1.11,1.957,1.72,3.021c0.609,1.064,1.219,2.145,1.829,3.24c0.609,1.096,1.163,2.098,1.659,3.007l0.372,0.93
			l0.372-0.93c0.516-0.909,1.074-1.911,1.674-3.007c0.599-1.096,1.193-2.176,1.782-3.24c0.589-1.064,1.147-2.071,1.674-3.021
			c0.527-0.951,0.977-1.736,1.349-2.356h2.418L13.182,111.527z"/>
		<path fill="#231F20" d="M22.172,108.21c0-1.55,0.294-3.012,0.883-4.386c0.589-1.375,1.395-2.578,2.418-3.612
			c1.023-1.033,2.222-1.849,3.596-2.448c1.374-0.6,2.836-0.899,4.387-0.899c1.55,0,3.017,0.3,4.402,0.899
			c1.384,0.6,2.588,1.415,3.611,2.448c1.023,1.034,1.834,2.237,2.434,3.612c0.599,1.374,0.899,2.836,0.899,4.386
			s-0.3,3.013-0.899,4.387c-0.6,1.374-1.411,2.573-2.434,3.596c-1.023,1.023-2.227,1.829-3.611,2.418
			c-1.385,0.589-2.852,0.884-4.402,0.884c-1.55,0-3.013-0.295-4.387-0.884c-1.375-0.589-2.573-1.395-3.596-2.418
			c-1.023-1.022-1.829-2.222-2.418-3.596C22.467,111.223,22.172,109.76,22.172,108.21z M24.28,108.21
			c0,1.282,0.243,2.485,0.729,3.612c0.485,1.126,1.142,2.107,1.969,2.944c0.826,0.837,1.798,1.499,2.914,1.983
			c1.116,0.486,2.304,0.729,3.565,0.729c1.26,0,2.454-0.242,3.58-0.729c1.126-0.484,2.108-1.146,2.945-1.983
			s1.498-1.818,1.984-2.944c0.485-1.127,0.729-2.33,0.729-3.612c0-1.281-0.243-2.485-0.729-3.611
			c-0.486-1.126-1.147-2.112-1.984-2.96s-1.819-1.514-2.945-2c-1.126-0.485-2.32-0.729-3.58-0.729c-1.282,0-2.476,0.243-3.581,0.729
			c-1.106,0.486-2.077,1.152-2.914,2s-1.494,1.834-1.969,2.96C24.518,105.725,24.28,106.929,24.28,108.21z"/>
		<path fill="#231F20" d="M55.962,111.527v7.719h-2.139v-7.719c-0.269-0.455-0.625-1.059-1.07-1.814
			c-0.444-0.754-0.925-1.59-1.441-2.51s-1.059-1.881-1.627-2.883c-0.569-1.003-1.111-1.964-1.627-2.884
			c-0.517-0.919-0.992-1.757-1.426-2.511c-0.434-0.754-0.786-1.359-1.054-1.813h2.387c0.372,0.62,0.827,1.405,1.364,2.356
			c0.537,0.95,1.11,1.957,1.72,3.021c0.609,1.064,1.219,2.145,1.829,3.24c0.609,1.096,1.163,2.098,1.659,3.007l0.372,0.93
			l0.372-0.93c0.516-0.909,1.074-1.911,1.674-3.007c0.599-1.096,1.193-2.176,1.782-3.24c0.589-1.064,1.147-2.071,1.674-3.021
			c0.527-0.951,0.977-1.736,1.349-2.356h2.418L55.962,111.527z"/>
		<path fill="#231F20" d="M64.952,108.21c0-1.55,0.294-3.012,0.883-4.386c0.589-1.375,1.395-2.578,2.418-3.612
			c1.023-1.033,2.222-1.849,3.596-2.448c1.374-0.6,2.836-0.899,4.387-0.899c1.55,0,3.017,0.3,4.402,0.899
			c1.384,0.6,2.588,1.415,3.611,2.448c1.023,1.034,1.834,2.237,2.434,3.612c0.599,1.374,0.899,2.836,0.899,4.386
			s-0.3,3.013-0.899,4.387c-0.6,1.374-1.411,2.573-2.434,3.596c-1.023,1.023-2.227,1.829-3.611,2.418
			c-1.385,0.589-2.852,0.884-4.402,0.884c-1.55,0-3.013-0.295-4.387-0.884c-1.375-0.589-2.573-1.395-3.596-2.418
			c-1.023-1.022-1.829-2.222-2.418-3.596C65.246,111.223,64.952,109.76,64.952,108.21z M67.06,108.21
			c0,1.282,0.243,2.485,0.729,3.612c0.485,1.126,1.142,2.107,1.969,2.944c0.826,0.837,1.798,1.499,2.914,1.983
			c1.116,0.486,2.304,0.729,3.565,0.729c1.26,0,2.454-0.242,3.58-0.729c1.126-0.484,2.108-1.146,2.945-1.983
			s1.498-1.818,1.984-2.944c0.485-1.127,0.729-2.33,0.729-3.612c0-1.281-0.243-2.485-0.729-3.611
			c-0.486-1.126-1.147-2.112-1.984-2.96s-1.819-1.514-2.945-2c-1.126-0.485-2.32-0.729-3.58-0.729c-1.282,0-2.476,0.243-3.581,0.729
			c-1.106,0.486-2.077,1.152-2.914,2s-1.494,1.834-1.969,2.96C67.297,105.725,67.06,106.929,67.06,108.21z"/>
		<path fill="#231F20" d="M92.293,97.112h5.146c2.232,0,4.123,0.341,5.672,1.022c1.551,0.682,2.811,1.561,3.783,2.635
			c0.971,1.075,1.674,2.279,2.107,3.612s0.65,2.65,0.65,3.952c0,1.674-0.299,3.184-0.898,4.525c-0.6,1.344-1.406,2.491-2.418,3.441
			c-1.012,0.951-2.191,1.68-3.533,2.186c-1.344,0.507-2.77,0.76-4.279,0.76h-6.23V97.112z M98.307,117.23
			c1.281,0,2.484-0.205,3.611-0.619s2.109-1.008,2.945-1.783c0.838-0.774,1.492-1.721,1.969-2.836
			c0.475-1.116,0.713-2.377,0.713-3.782c0-1.281-0.223-2.475-0.666-3.581c-0.445-1.104-1.08-2.061-1.906-2.867
			c-0.828-0.806-1.82-1.441-2.977-1.906c-1.158-0.465-2.459-0.697-3.906-0.697h-3.658v18.072H98.307z"/>
		<path fill="#231F20" d="M120.844,111.527v7.719h-2.14v-7.719c-0.269-0.455-0.625-1.059-1.069-1.814
			c-0.444-0.754-0.925-1.59-1.441-2.51s-1.06-1.881-1.628-2.883c-0.568-1.003-1.11-1.964-1.627-2.884
			c-0.517-0.919-0.992-1.757-1.426-2.511c-0.435-0.754-0.786-1.359-1.055-1.813h2.388c0.372,0.62,0.826,1.405,1.363,2.356
			c0.537,0.95,1.111,1.957,1.721,3.021s1.22,2.145,1.829,3.24s1.163,2.098,1.658,3.007l0.372,0.93l0.372-0.93
			c0.517-0.909,1.074-1.911,1.674-3.007s1.194-2.176,1.783-3.24s1.146-2.071,1.674-3.021c0.527-0.951,0.977-1.736,1.349-2.356h2.418
			L120.844,111.527z"/>
		<path fill="#231F20" d="M151.626,97.112v23.157c-0.6-0.724-1.338-1.586-2.216-2.589c-0.879-1.003-1.829-2.071-2.853-3.208
			c-1.022-1.137-2.077-2.299-3.162-3.488c-1.085-1.188-2.134-2.351-3.146-3.487c-1.013-1.136-1.938-2.196-2.774-3.177
			c-0.837-0.982-1.524-1.834-2.062-2.559c-0.062-0.082-0.155-0.201-0.279-0.355c-0.124-0.156-0.237-0.305-0.341-0.45l0.093,0.992
			v17.298h-2.107V96.089c0.599,0.765,1.333,1.644,2.201,2.636s1.813,2.045,2.836,3.162c1.023,1.115,2.072,2.262,3.146,3.44
			c1.074,1.178,2.113,2.32,3.116,3.425c1.002,1.106,1.938,2.15,2.805,3.132c0.868,0.981,1.581,1.834,2.14,2.558
			c0.041,0.104,0.124,0.232,0.248,0.387c0.124,0.155,0.237,0.306,0.341,0.45l-0.093-1.023V97.112H151.626z"/>
		<path fill="#231F20" d="M157.981,119.246V97.112h13.949v1.922h-11.842v8.091h10.603v1.984h-10.603v8.152h12.276v1.984H157.981z"/>
	</g>
	<g>
		<rect x="3.625" y="127.5" fill-rule="evenodd" clip-rule="evenodd" fill="none" width="172.375" height="76.25"/>
		<path fill="#231F20" d="M15.301,142.613c0,0.705-0.308,1.101-1.1,1.101s-1.1-0.396-1.1-1.101v-16.018h7.305
			c1.012,0,1.738,0.154,2.53,0.902c0.946,0.879,1.034,1.693,1.034,2.882v2.993c0,1.121-0.088,1.914-0.902,2.816
			c-0.858,0.967-1.76,1.056-2.948,1.056h-4.819V142.613z M15.301,135.045h4.885c1.298,0,1.584-0.33,1.584-1.584v-3.081
			c0-1.254-0.286-1.584-1.584-1.584h-4.885V135.045z"/>
		<path fill="#231F20" d="M29.205,133.416c0-0.77,0.088-1.563,1.056-1.563c0.836,0,1.056,0.705,1.056,1.408v0.859l1.65-1.365
			c0.594-0.483,1.21-0.902,1.871-0.902h1.694c0.814,0,1.496,0.265,2.068,0.837c0.704,0.704,0.946,1.431,0.946,2.398
			c0,0.726-0.132,1.474-1.034,1.474c-0.77,0-1.078-0.615-1.078-1.298c0-0.353,0-0.616-0.22-0.925
			c-0.264-0.373-0.771-0.373-1.276-0.373h-0.616c-0.396,0-0.682,0.197-1.056,0.506l-2.948,2.442v5.347
			c0,0.727-0.154,1.452-1.056,1.452c-0.902,0-1.056-0.726-1.056-1.452V133.416z"/>
		<path fill="#231F20" d="M45.044,135.793c0-1.408,0.286-1.893,1.342-2.75c1.034-0.859,1.518-1.189,2.992-1.189h1.672
			c1.474,0,1.958,0.33,2.992,1.189c1.056,0.857,1.342,1.342,1.342,2.75v3.982c0,1.387-0.352,1.914-1.452,2.838
			c-1.1,0.925-1.54,1.101-2.882,1.101h-1.672c-1.342,0-1.782-0.176-2.882-1.101c-1.1-0.924-1.452-1.451-1.452-2.838V135.793z
			 M47.157,139.775c0,0.439,0.154,0.727,0.77,1.254c0.462,0.396,0.792,0.572,1.452,0.572h1.672c0.66,0,0.99-0.176,1.452-0.572
			c0.616-0.527,0.77-0.814,0.77-1.254v-3.982c0-0.44-0.154-0.727-0.77-1.254c-0.462-0.396-0.792-0.572-1.452-0.572h-1.672
			c-0.66,0-0.99,0.176-1.452,0.572c-0.616,0.527-0.77,0.813-0.77,1.254V139.775z"/>
		<path fill="#231F20" d="M71.226,139.137c0,1.519-0.11,2.091-1.342,3.059l-1.276,1.013c-0.44,0.353-1.122,0.946-1.694,0.946h-1.43
			c-0.946,0-1.386-0.616-2.068-1.254l-0.418-0.396v4.246c0,0.727-0.154,1.453-1.056,1.453c-0.902,0-1.056-0.727-1.056-1.453v-13.334
			c0-0.748,0.088-1.563,1.056-1.563c0.858,0,1.056,0.683,1.056,1.387v0.264l0.418-0.373c0.55-0.484,1.386-1.277,1.98-1.277h1.452
			c0.506,0,1.188,0.529,1.76,0.969l1.276,0.99c1.232,0.969,1.342,1.563,1.342,3.059V139.137z M69.113,136.585
			c0-0.396-0.11-0.638-0.44-0.925l-1.584-1.32c-0.198-0.176-0.44-0.373-0.726-0.373h-0.55c-0.308,0-0.682,0.396-0.902,0.615
			l-1.32,1.255c-0.44,0.418-0.594,0.66-0.594,1.122v2.068c0,0.309,0.088,0.704,0.308,0.902l1.606,1.518
			c0.308,0.309,0.638,0.594,0.902,0.594h0.55c0.286,0,0.528-0.197,0.726-0.373l1.584-1.32c0.33-0.286,0.44-0.528,0.44-0.924V136.585
			z"/>
		<path fill="#231F20" d="M87.065,142.152c0,0.483,0.088,1.562-1.034,1.562c-0.902,0-1.056-0.748-1.056-1.474v-0.353l-1.716,1.122
			c-0.682,0.439-1.254,0.704-1.826,0.704h-1.562c-0.594,0-1.254-0.176-1.958-0.771c-0.946-0.813-0.924-1.716-0.968-2.859
			l-0.22-6.646c-0.022-0.771,0.088-1.585,1.056-1.585c0.902,0,1.012,0.771,1.034,1.453l0.22,6.49
			c0.022,0.484,0.044,1.057,0.22,1.365c0.176,0.308,0.726,0.439,1.232,0.439h0.704c0.242,0,0.462-0.066,0.66-0.198l3.103-1.958
			v-6.139c0-0.727,0.154-1.453,1.056-1.453c0.902,0,1.056,0.727,1.056,1.453V142.152z"/>
		<path fill="#231F20" d="M98.835,141.602h1.584c0.704,0,1.452,0.154,1.452,1.057c0,0.924-0.836,1.056-1.452,1.056h-5.368
			c-0.617,0-1.453-0.132-1.453-1.056c0-0.902,0.748-1.057,1.453-1.057h1.672v-11.992h-1.672c-0.617,0-1.453-0.131-1.453-1.056
			c0-0.902,0.748-1.056,1.453-1.056h2.222c1.21,0,1.563,0.22,1.563,1.474V141.602z"/>
		<path fill="#231F20" d="M112.013,133.967c-0.44,0-1.188-0.088-1.188,0.594c0,0.352,0.264,0.484,0.572,0.616l5.28,2.398
			c1.364,0.616,2.068,1.474,2.068,2.992c0,2.134-1.452,3.146-3.477,3.146h-3.256c-1.101,0-1.849-0.044-2.641-0.66
			c-0.396-0.308-0.969-0.704-0.969-1.231c0-0.595,0.507-1.057,1.101-1.057c0.33,0,0.572,0.109,0.814,0.374
			c0.374,0.418,1.034,0.462,1.694,0.462h2.86c0.748,0,1.76,0.066,1.76-1.166c0-0.506-0.616-0.836-1.1-1.057l-4.974-2.266
			c-1.166-0.528-1.848-1.211-1.848-2.574c0-1.673,1.32-2.686,2.904-2.686h3.608c1.166,0,1.65,0.066,2.442,0.727
			c0.396,0.33,0.836,0.594,0.836,1.188c0,0.594-0.506,1.056-1.078,1.056c-0.396,0-0.638-0.154-0.902-0.439
			c-0.352-0.375-0.726-0.418-1.298-0.418H112.013z"/>
		<path fill="#231F20" d="M130.515,141.602h1.584c0.704,0,1.452,0.154,1.452,1.057c0,0.924-0.836,1.056-1.452,1.056h-5.369
			c-0.615,0-1.452-0.132-1.452-1.056c0-0.902,0.748-1.057,1.452-1.057h1.673v-7.635h-1.673c-0.615,0-1.452-0.133-1.452-1.057
			c0-0.902,0.748-1.057,1.452-1.057h2.223c1.21,0,1.563,0.221,1.563,1.475V141.602z M127.324,127.586c0-0.748,0.418-0.99,0.99-0.99
			h1.21c0.572,0,0.99,0.242,0.99,0.99v1.012c0,0.748-0.418,0.99-0.99,0.99h-1.21c-0.572,0-0.99-0.242-0.99-0.99V127.586z"/>
		<path fill="#231F20" d="M140.083,135.793c0-1.408,0.286-1.893,1.343-2.75c1.034-0.859,1.518-1.189,2.992-1.189h1.672
			c1.475,0,1.959,0.33,2.993,1.189c1.056,0.857,1.342,1.342,1.342,2.75v3.982c0,1.387-0.352,1.914-1.452,2.838
			c-1.101,0.925-1.54,1.101-2.883,1.101h-1.672c-1.342,0-1.782-0.176-2.883-1.101c-1.1-0.924-1.452-1.451-1.452-2.838V135.793z
			 M142.195,139.775c0,0.439,0.154,0.727,0.771,1.254c0.462,0.396,0.792,0.572,1.452,0.572h1.672c0.66,0,0.99-0.176,1.453-0.572
			c0.615-0.527,0.77-0.814,0.77-1.254v-3.982c0-0.44-0.154-0.727-0.77-1.254c-0.463-0.396-0.793-0.572-1.453-0.572h-1.672
			c-0.66,0-0.99,0.176-1.452,0.572c-0.616,0.527-0.771,0.813-0.771,1.254V139.775z"/>
		<path fill="#231F20" d="M158.035,136.123v6.139c0,0.727-0.153,1.452-1.056,1.452s-1.057-0.726-1.057-1.452v-8.846
			c0-0.77,0.089-1.563,1.057-1.563c0.946,0,1.056,0.793,1.056,1.541v0.242v0.044l1.717-1.122c0.55-0.353,1.144-0.705,1.826-0.705
			h1.563c0.813,0,1.32,0.221,1.958,0.771c0.946,0.814,0.902,1.716,0.946,2.86l0.22,6.646c0.022,0.748-0.088,1.584-1.034,1.584
			c-0.858,0-1.034-0.726-1.056-1.431l-0.221-6.513c-0.044-1.298-0.153-1.804-1.43-1.804h-0.704c-0.221,0-0.44,0.065-0.66,0.197
			L158.035,136.123z"/>
	</g>
</g>
<g id="Layer_4">
	<polygon fill-rule="evenodd" clip-rule="evenodd" fill="none" stroke="#231F20" stroke-width="2" stroke-miterlimit="10" points="
		3,90.75 3,3.25 90.5,3.25 	"/>
	<polygon fill-rule="evenodd" clip-rule="evenodd" fill="none" stroke="#231F20" stroke-width="2" stroke-miterlimit="10" points="
		29,81.5 29,26.25 84.25,26.25 	"/>
	<g>
	</g>
	<g>
	</g>
	<g>
	</g>
	<g>
	</g>
	<g>
	</g>
	<g>
	</g>
</g>
</svg>
