<?xml version="1.0" encoding="utf-8"?>
<!-- Generator: Adobe Illustrator 16.0.0, SVG Export Plug-In . SVG Version: 6.00 Build 0)  -->
<!DOCTYPE svg PUBLIC "-//W3C//DTD SVG 1.1//EN" "http://www.w3.org/Graphics/SVG/1.1/DTD/svg11.dtd">
<svg version="1.1" xmlns="http://www.w3.org/2000/svg" xmlns:xlink="http://www.w3.org/1999/xlink" x="0px" y="0px" width="176px"
	 height="176px" viewBox="0 0 176 176" enable-background="new 0 0 176 176" xml:space="preserve">
<g id="Layer_2">
	
		<rect x="0.5" y="0.5" fill-rule="evenodd" clip-rule="evenodd" fill="none" stroke="#E0DDC5" stroke-miterlimit="10" width="175" height="175"/>
</g>
<g id="Layer_3">
	<g>
		<rect x="1.813" y="95.5" fill-rule="evenodd" clip-rule="evenodd" fill="none" width="172.375" height="24.75"/>
		<path fill="#231F20" d="M23.345,112.044v7.968h-2.208v-7.968c-0.277-0.47-0.646-1.093-1.104-1.872
			c-0.459-0.779-0.955-1.643-1.488-2.592c-0.534-0.949-1.094-1.941-1.68-2.977c-0.587-1.034-1.147-2.026-1.68-2.976
			c-0.534-0.949-1.024-1.813-1.472-2.593c-0.448-0.777-0.811-1.402-1.088-1.871h2.464c0.384,0.64,0.853,1.451,1.408,2.432
			c0.554,0.981,1.146,2.021,1.776,3.12c0.629,1.099,1.258,2.214,1.888,3.344c0.629,1.132,1.2,2.165,1.712,3.104l0.384,0.959
			l0.384-0.959c0.533-0.939,1.109-1.973,1.728-3.104c0.619-1.13,1.232-2.245,1.84-3.344c0.608-1.099,1.184-2.139,1.728-3.12
			c0.544-0.98,1.008-1.792,1.392-2.432h2.496L23.345,112.044z"/>
		<path fill="#231F20" d="M32.625,108.619c0-1.6,0.304-3.108,0.912-4.527c0.608-1.418,1.44-2.661,2.496-3.729
			c1.056-1.066,2.293-1.908,3.712-2.527c1.418-0.619,2.928-0.928,4.528-0.928c1.6,0,3.115,0.309,4.544,0.928
			s2.672,1.461,3.728,2.527c1.056,1.067,1.893,2.311,2.512,3.729c0.619,1.419,0.928,2.928,0.928,4.527
			c0,1.601-0.31,3.109-0.928,4.529c-0.619,1.418-1.456,2.655-2.512,3.711c-1.056,1.057-2.299,1.889-3.728,2.496
			c-1.429,0.608-2.944,0.912-4.544,0.912c-1.6,0-3.109-0.304-4.528-0.912c-1.419-0.607-2.656-1.439-3.712-2.496
			c-1.056-1.056-1.888-2.293-2.496-3.711C32.929,111.729,32.625,110.22,32.625,108.619z M34.801,108.619
			c0,1.324,0.25,2.566,0.752,3.729c0.501,1.163,1.178,2.176,2.032,3.04c0.853,0.864,1.856,1.547,3.008,2.048
			c1.152,0.502,2.378,0.752,3.68,0.752s2.533-0.25,3.696-0.752c1.163-0.501,2.176-1.184,3.04-2.048
			c0.864-0.864,1.546-1.877,2.048-3.04c0.501-1.162,0.752-2.404,0.752-3.729c0-1.322-0.251-2.564-0.752-3.728
			c-0.501-1.163-1.184-2.181-2.048-3.056c-0.864-0.875-1.877-1.563-3.04-2.064c-1.163-0.501-2.395-0.752-3.696-0.752
			c-1.323,0-2.555,0.251-3.696,0.752c-1.142,0.502-2.144,1.189-3.008,2.064c-0.864,0.875-1.542,1.893-2.032,3.056
			C35.045,106.055,34.801,107.297,34.801,108.619z"/>
		<path fill="#231F20" d="M67.504,112.044v7.968h-2.208v-7.968c-0.277-0.47-0.646-1.093-1.104-1.872
			c-0.459-0.779-0.955-1.643-1.488-2.592c-0.534-0.949-1.094-1.941-1.68-2.977c-0.587-1.034-1.147-2.026-1.68-2.976
			c-0.534-0.949-1.024-1.813-1.472-2.593c-0.448-0.777-0.811-1.402-1.088-1.871h2.464c0.384,0.64,0.853,1.451,1.408,2.432
			c0.554,0.981,1.146,2.021,1.776,3.12c0.629,1.099,1.258,2.214,1.888,3.344c0.629,1.132,1.2,2.165,1.712,3.104l0.384,0.959
			l0.384-0.959c0.533-0.939,1.109-1.973,1.728-3.104c0.619-1.13,1.232-2.245,1.84-3.344c0.608-1.099,1.184-2.139,1.728-3.12
			c0.544-0.98,1.008-1.792,1.392-2.432h2.496L67.504,112.044z"/>
		<path fill="#231F20" d="M79.856,97.164h5.312c2.304,0,4.256,0.352,5.855,1.056c1.601,0.704,2.902,1.61,3.904,2.72
			s1.729,2.352,2.176,3.729c0.449,1.376,0.672,2.736,0.672,4.08c0,1.728-0.309,3.285-0.928,4.672s-1.451,2.57-2.496,3.552
			s-2.262,1.733-3.647,2.256c-1.388,0.523-2.859,0.784-4.416,0.784h-6.432V97.164z M86.064,117.932c1.323,0,2.565-0.213,3.728-0.641
			c1.163-0.426,2.177-1.039,3.04-1.84c0.864-0.799,1.541-1.775,2.031-2.928c0.492-1.152,0.736-2.453,0.736-3.904
			c0-1.322-0.229-2.554-0.688-3.695c-0.459-1.141-1.115-2.128-1.969-2.96s-1.877-1.488-3.071-1.968
			c-1.195-0.48-2.539-0.721-4.032-0.721h-3.776v18.656H86.064z"/>
		<path fill="#231F20" d="M109.328,112.044v7.968h-2.208v-7.968c-0.277-0.47-0.646-1.093-1.104-1.872
			c-0.459-0.779-0.955-1.643-1.488-2.592s-1.094-1.941-1.68-2.977c-0.588-1.034-1.147-2.026-1.681-2.976s-1.023-1.813-1.472-2.593
			c-0.448-0.777-0.812-1.402-1.088-1.871h2.464c0.384,0.64,0.853,1.451,1.408,2.432c0.555,0.981,1.146,2.021,1.775,3.12
			s1.259,2.214,1.889,3.344c0.629,1.132,1.199,2.165,1.712,3.104l0.384,0.959l0.384-0.959c0.533-0.939,1.109-1.973,1.729-3.104
			c0.618-1.13,1.231-2.245,1.84-3.344c0.607-1.099,1.184-2.139,1.728-3.12c0.544-0.98,1.009-1.792,1.393-2.432h2.496
			L109.328,112.044z"/>
		<path fill="#231F20" d="M141.104,97.164v23.903c-0.619-0.747-1.381-1.637-2.288-2.672c-0.906-1.034-1.888-2.138-2.943-3.312
			c-1.057-1.174-2.145-2.373-3.265-3.6s-2.202-2.428-3.248-3.601c-1.045-1.173-2-2.267-2.863-3.28
			c-0.864-1.013-1.574-1.893-2.128-2.64c-0.064-0.085-0.16-0.208-0.288-0.368s-0.246-0.314-0.353-0.464l0.097,1.024v17.855h-2.177
			V96.107c0.619,0.79,1.376,1.696,2.272,2.721c0.896,1.023,1.872,2.111,2.928,3.264s2.139,2.336,3.248,3.552
			s2.181,2.396,3.216,3.536c1.035,1.142,2,2.219,2.896,3.232c0.896,1.014,1.632,1.893,2.208,2.64
			c0.042,0.106,0.128,0.239,0.256,0.399s0.245,0.315,0.352,0.465l-0.096-1.057V97.164H141.104z"/>
		<path fill="#231F20" d="M147.664,120.012V97.164h14.4v1.984H149.84v8.352h10.944v2.048H149.84v8.416h12.672v2.048H147.664z"/>
	</g>
	<g>
		<rect x="3.625" y="127.5" fill-rule="evenodd" clip-rule="evenodd" fill="none" width="172.375" height="76.25"/>
		<path fill="#231F20" d="M15.301,142.613c0,0.705-0.308,1.101-1.1,1.101s-1.1-0.396-1.1-1.101v-16.018h7.305
			c1.012,0,1.738,0.154,2.53,0.902c0.946,0.879,1.034,1.693,1.034,2.882v2.993c0,1.121-0.088,1.914-0.902,2.816
			c-0.858,0.967-1.76,1.056-2.948,1.056h-4.819V142.613z M15.301,135.045h4.885c1.298,0,1.584-0.33,1.584-1.584v-3.081
			c0-1.254-0.286-1.584-1.584-1.584h-4.885V135.045z"/>
		<path fill="#231F20" d="M29.205,133.416c0-0.77,0.088-1.563,1.056-1.563c0.836,0,1.056,0.705,1.056,1.408v0.859l1.65-1.365
			c0.594-0.483,1.21-0.902,1.871-0.902h1.694c0.814,0,1.496,0.265,2.068,0.837c0.704,0.704,0.946,1.431,0.946,2.398
			c0,0.726-0.132,1.474-1.034,1.474c-0.77,0-1.078-0.615-1.078-1.298c0-0.353,0-0.616-0.22-0.925
			c-0.264-0.373-0.771-0.373-1.276-0.373h-0.616c-0.396,0-0.682,0.197-1.056,0.506l-2.948,2.442v5.347
			c0,0.727-0.154,1.452-1.056,1.452c-0.902,0-1.056-0.726-1.056-1.452V133.416z"/>
		<path fill="#231F20" d="M45.044,135.793c0-1.408,0.286-1.893,1.342-2.75c1.034-0.859,1.518-1.189,2.992-1.189h1.672
			c1.474,0,1.958,0.33,2.992,1.189c1.056,0.857,1.342,1.342,1.342,2.75v3.982c0,1.387-0.352,1.914-1.452,2.838
			c-1.1,0.925-1.54,1.101-2.882,1.101h-1.672c-1.342,0-1.782-0.176-2.882-1.101c-1.1-0.924-1.452-1.451-1.452-2.838V135.793z
			 M47.157,139.775c0,0.439,0.154,0.727,0.77,1.254c0.462,0.396,0.792,0.572,1.452,0.572h1.672c0.66,0,0.99-0.176,1.452-0.572
			c0.616-0.527,0.77-0.814,0.77-1.254v-3.982c0-0.44-0.154-0.727-0.77-1.254c-0.462-0.396-0.792-0.572-1.452-0.572h-1.672
			c-0.66,0-0.99,0.176-1.452,0.572c-0.616,0.527-0.77,0.813-0.77,1.254V139.775z"/>
		<path fill="#231F20" d="M71.226,139.137c0,1.519-0.11,2.091-1.342,3.059l-1.276,1.013c-0.44,0.353-1.122,0.946-1.694,0.946h-1.43
			c-0.946,0-1.386-0.616-2.068-1.254l-0.418-0.396v4.246c0,0.727-0.154,1.453-1.056,1.453c-0.902,0-1.056-0.727-1.056-1.453v-13.334
			c0-0.748,0.088-1.563,1.056-1.563c0.858,0,1.056,0.683,1.056,1.387v0.264l0.418-0.373c0.55-0.484,1.386-1.277,1.98-1.277h1.452
			c0.506,0,1.188,0.529,1.76,0.969l1.276,0.99c1.232,0.969,1.342,1.563,1.342,3.059V139.137z M69.113,136.585
			c0-0.396-0.11-0.638-0.44-0.925l-1.584-1.32c-0.198-0.176-0.44-0.373-0.726-0.373h-0.55c-0.308,0-0.682,0.396-0.902,0.615
			l-1.32,1.255c-0.44,0.418-0.594,0.66-0.594,1.122v2.068c0,0.309,0.088,0.704,0.308,0.902l1.606,1.518
			c0.308,0.309,0.638,0.594,0.902,0.594h0.55c0.286,0,0.528-0.197,0.726-0.373l1.584-1.32c0.33-0.286,0.44-0.528,0.44-0.924V136.585
			z"/>
		<path fill="#231F20" d="M87.065,142.152c0,0.483,0.088,1.562-1.034,1.562c-0.902,0-1.056-0.748-1.056-1.474v-0.353l-1.716,1.122
			c-0.682,0.439-1.254,0.704-1.826,0.704h-1.562c-0.594,0-1.254-0.176-1.958-0.771c-0.946-0.813-0.924-1.716-0.968-2.859
			l-0.22-6.646c-0.022-0.771,0.088-1.585,1.056-1.585c0.902,0,1.012,0.771,1.034,1.453l0.22,6.49
			c0.022,0.484,0.044,1.057,0.22,1.365c0.176,0.308,0.726,0.439,1.232,0.439h0.704c0.242,0,0.462-0.066,0.66-0.198l3.103-1.958
			v-6.139c0-0.727,0.154-1.453,1.056-1.453c0.902,0,1.056,0.727,1.056,1.453V142.152z"/>
		<path fill="#231F20" d="M98.835,141.602h1.584c0.704,0,1.452,0.154,1.452,1.057c0,0.924-0.836,1.056-1.452,1.056h-5.368
			c-0.617,0-1.453-0.132-1.453-1.056c0-0.902,0.748-1.057,1.453-1.057h1.672v-11.992h-1.672c-0.617,0-1.453-0.131-1.453-1.056
			c0-0.902,0.748-1.056,1.453-1.056h2.222c1.21,0,1.563,0.22,1.563,1.474V141.602z"/>
		<path fill="#231F20" d="M112.013,133.967c-0.44,0-1.188-0.088-1.188,0.594c0,0.352,0.264,0.484,0.572,0.616l5.28,2.398
			c1.364,0.616,2.068,1.474,2.068,2.992c0,2.134-1.452,3.146-3.477,3.146h-3.256c-1.101,0-1.849-0.044-2.641-0.66
			c-0.396-0.308-0.969-0.704-0.969-1.231c0-0.595,0.507-1.057,1.101-1.057c0.33,0,0.572,0.109,0.814,0.374
			c0.374,0.418,1.034,0.462,1.694,0.462h2.86c0.748,0,1.76,0.066,1.76-1.166c0-0.506-0.616-0.836-1.1-1.057l-4.974-2.266
			c-1.166-0.528-1.848-1.211-1.848-2.574c0-1.673,1.32-2.686,2.904-2.686h3.608c1.166,0,1.65,0.066,2.442,0.727
			c0.396,0.33,0.836,0.594,0.836,1.188c0,0.594-0.506,1.056-1.078,1.056c-0.396,0-0.638-0.154-0.902-0.439
			c-0.352-0.375-0.726-0.418-1.298-0.418H112.013z"/>
		<path fill="#231F20" d="M130.515,141.602h1.584c0.704,0,1.452,0.154,1.452,1.057c0,0.924-0.836,1.056-1.452,1.056h-5.369
			c-0.615,0-1.452-0.132-1.452-1.056c0-0.902,0.748-1.057,1.452-1.057h1.673v-7.635h-1.673c-0.615,0-1.452-0.133-1.452-1.057
			c0-0.902,0.748-1.057,1.452-1.057h2.223c1.21,0,1.563,0.221,1.563,1.475V141.602z M127.324,127.586c0-0.748,0.418-0.99,0.99-0.99
			h1.21c0.572,0,0.99,0.242,0.99,0.99v1.012c0,0.748-0.418,0.99-0.99,0.99h-1.21c-0.572,0-0.99-0.242-0.99-0.99V127.586z"/>
		<path fill="#231F20" d="M140.083,135.793c0-1.408,0.286-1.893,1.343-2.75c1.034-0.859,1.518-1.189,2.992-1.189h1.672
			c1.475,0,1.959,0.33,2.993,1.189c1.056,0.857,1.342,1.342,1.342,2.75v3.982c0,1.387-0.352,1.914-1.452,2.838
			c-1.101,0.925-1.54,1.101-2.883,1.101h-1.672c-1.342,0-1.782-0.176-2.883-1.101c-1.1-0.924-1.452-1.451-1.452-2.838V135.793z
			 M142.195,139.775c0,0.439,0.154,0.727,0.771,1.254c0.462,0.396,0.792,0.572,1.452,0.572h1.672c0.66,0,0.99-0.176,1.453-0.572
			c0.615-0.527,0.77-0.814,0.77-1.254v-3.982c0-0.44-0.154-0.727-0.77-1.254c-0.463-0.396-0.793-0.572-1.453-0.572h-1.672
			c-0.66,0-0.99,0.176-1.452,0.572c-0.616,0.527-0.771,0.813-0.771,1.254V139.775z"/>
		<path fill="#231F20" d="M158.035,136.123v6.139c0,0.727-0.153,1.452-1.056,1.452s-1.057-0.726-1.057-1.452v-8.846
			c0-0.77,0.089-1.563,1.057-1.563c0.946,0,1.056,0.793,1.056,1.541v0.242v0.044l1.717-1.122c0.55-0.353,1.144-0.705,1.826-0.705
			h1.563c0.813,0,1.32,0.221,1.958,0.771c0.946,0.814,0.902,1.716,0.946,2.86l0.22,6.646c0.022,0.748-0.088,1.584-1.034,1.584
			c-0.858,0-1.034-0.726-1.056-1.431l-0.221-6.513c-0.044-1.298-0.153-1.804-1.43-1.804h-0.704c-0.221,0-0.44,0.065-0.66,0.197
			L158.035,136.123z"/>
	</g>
</g>
<g id="Layer_4">
	<polygon fill-rule="evenodd" clip-rule="evenodd" fill="none" stroke="#231F20" stroke-width="2" stroke-miterlimit="10" points="
		3,90.75 3,3.25 90.5,3.25 	"/>
	<polygon fill-rule="evenodd" clip-rule="evenodd" fill="none" stroke="#231F20" stroke-width="2" stroke-miterlimit="10" points="
		29,81.5 29,26.25 84.25,26.25 	"/>
	<g>
	</g>
	<g>
	</g>
	<g>
	</g>
	<g>
	</g>
	<g>
	</g>
	<g>
	</g>
</g>
</svg>
