<?xml version="1.0" encoding="utf-8"?>
<!-- Generator: Adobe Illustrator 16.0.0, SVG Export Plug-In . SVG Version: 6.00 Build 0)  -->
<!DOCTYPE svg PUBLIC "-//W3C//DTD SVG 1.1//EN" "http://www.w3.org/Graphics/SVG/1.1/DTD/svg11.dtd">
<svg version="1.1" xmlns="http://www.w3.org/2000/svg" xmlns:xlink="http://www.w3.org/1999/xlink" x="0px" y="0px" width="176px"
	 height="176px" viewBox="0 0 176 176" enable-background="new 0 0 176 176" xml:space="preserve">
<g id="Layer_2">
	
		<rect x="0.5" y="0.5" fill-rule="evenodd" clip-rule="evenodd" fill="none" stroke="#E0DDC5" stroke-miterlimit="10" width="175" height="175"/>
</g>
<g id="Layer_3">
	<g>
		<rect x="3.125" y="95.5" fill-rule="evenodd" clip-rule="evenodd" fill="none" width="169.75" height="25.167"/>
		<path d="M14.824,95.499c0.832,0.052,2.288,0.104,3.744,0.104c1.612,0,3.926-0.053,4.499-0.104l-0.13,0.546
			c-0.546,0.053-2.002,0.208-2.444,0.364c0.182,0.884,5.278,12.87,5.954,13.702c0.598-1.195,5.304-10.946,5.824-13.702
			c-0.494-0.104-1.56-0.234-2.392-0.364l-0.13-0.546c0.364,0.052,2.21,0.104,3.796,0.104c1.222,0,2.288-0.053,2.912-0.104
			l-0.13,0.546c-0.494,0.104-0.91,0.208-1.586,0.364c-0.546,0.312-9.022,17.706-9.36,18.538c-0.832-1.455-7.566-16.77-8.84-18.538
			c-0.338-0.104-0.78-0.234-1.612-0.364L14.824,95.499z"/>
		<path d="M39.29,103.689c0-2.34-0.078-6.475-0.182-7.28c-0.494-0.104-2.08-0.286-2.704-0.364L36.3,95.499
			c0.624,0.026,1.482,0.052,2.34,0.078c0.858,0,1.716,0.026,2.288,0.026c0.832,0,6.942,0,7.645-0.183
			c0.078-0.312,0.156-0.754,0.208-1.222l0.598-0.104c-0.13,0.546-0.468,4.576-0.52,5.382l-0.572-0.182c0-0.182,0.026-1.352,0-1.872
			c-0.468-0.754-4.472-1.092-5.85-1.092c-0.078,0.364-0.182,5.382-0.182,6.916v0.521c2.236,0,4.758-0.182,5.382-0.416
			c0.13-0.391,0.208-0.754,0.26-1.118l0.546-0.052c-0.078,0.468-0.546,4.029-0.676,4.861l-0.494-0.207
			c0.026-0.547,0.052-1.223,0.052-1.742c-0.806-0.416-2.834-0.572-5.07-0.572v0.52c0,1.586,0.104,7.255,0.182,8.009
			c2.6,0,5.044-0.208,6.24-0.884c0.286-0.91,0.416-1.717,0.572-2.289l0.598-0.155c-0.182,0.754-0.754,4.706-0.858,6.006
			l-0.546-0.104c0-0.702,0-1.171-0.026-1.587c-0.754-0.129-6.526-0.233-8.164-0.233c-0.884,0-2.938,0.052-3.952,0.104l0.13-0.547
			c0.416-0.025,1.976-0.182,2.678-0.363c0.104-0.469,0.182-5.252,0.182-8.113V103.689z"/>
		<path d="M55.826,102.831c0-0.936-0.026-5.928-0.13-6.422c-0.442-0.104-2.21-0.261-2.782-0.312l-0.078-0.547l5.616-0.025
			c2.47,0,5.564,0.025,7.332,0.728c1.378,0.546,2.236,1.534,2.236,2.964c0,1.639-1.664,3.797-3.666,4.914
			c0.286,0.65,4.472,7.463,7.176,10.322l-1.144,0.183c-1.82-0.832-8.736-8.814-9.152-9.36c-0.988,0.078-2.054,0.156-2.496,0.156
			v0.676c0,1.689,0.052,5.694,0.13,6.891c0.442,0.13,2.158,0.312,2.73,0.363l0.104,0.547c-0.65-0.053-3.276-0.104-4.472-0.104
			c-1.066,0-3.796,0.052-4.394,0.104l0.104-0.547c0.364-0.025,2.028-0.182,2.756-0.363c0.104-0.754,0.13-5.851,0.13-8.58V102.831z
			 M58.738,104.625c0.936,0,2.054-0.078,3.172-0.494s2.964-1.611,2.964-4.186c0-1.664-1.508-3.692-6.006-3.692
			c-0.078,1.066-0.13,5.72-0.13,7.566V104.625z"/>
		<path d="M78.264,104.756c0,3.38,0.026,7.722,0.13,8.242c0.65,0.156,2.21,0.312,2.73,0.363l0.13,0.547
			c-0.572-0.053-3.276-0.104-4.888-0.104c-0.884,0-3.276,0.052-4.056,0.104l0.104-0.547c0.442-0.025,2.21-0.26,2.756-0.363
			c0.104-1.092,0.13-5.902,0.13-8.451v-1.533c0-0.858-0.026-5.721-0.13-6.604c-0.521-0.104-2.236-0.312-2.73-0.364l-0.13-0.546
			c0.494,0.052,2.886,0.104,4.94,0.104c1.326,0,3.562-0.053,4.004-0.104l-0.13,0.546c-0.52,0.053-1.794,0.26-2.73,0.364
			c-0.104,0.521-0.13,3.536-0.13,6.734V104.756z"/>
		<path d="M86.739,102.857c0-1.17-0.052-5.928-0.182-6.448c-0.676-0.13-2.132-0.312-2.756-0.364l-0.052-0.546
			c0.39,0.052,3.198,0.104,4.29,0.104c0.91,0,4.004-0.104,6.006-0.104c3.043,0,5.617,0.364,7.333,1.196
			c3.042,1.456,4.264,3.926,4.264,6.292c0,5.486-4.315,10.868-14.3,10.868c-1.457,0-6.969,0.026-7.593,0.053l0.104-0.547
			c0.494-0.025,2.08-0.182,2.704-0.363c0.13-0.442,0.182-5.07,0.182-8.087V102.857z M89.703,105.146
			c0,1.403,0.078,6.292,0.182,7.228c1.145,0.442,2.158,0.469,2.834,0.469c4.967,0,9.725-2.912,9.725-8.45
			c0-2.21-0.676-4.395-2.834-6.007c-1.897-1.404-5.018-1.924-7.436-1.924c-0.599,0-1.742,0.053-2.289,0.156
			c-0.078,0.39-0.182,6.37-0.182,7.514V105.146z"/>
		<path d="M114.013,104.756c0,3.38,0.026,7.722,0.13,8.242c0.65,0.156,2.21,0.312,2.73,0.363l0.13,0.547
			c-0.572-0.053-3.276-0.104-4.888-0.104c-0.885,0-3.276,0.052-4.057,0.104l0.104-0.547c0.442-0.025,2.211-0.26,2.757-0.363
			c0.104-1.092,0.13-5.902,0.13-8.451v-1.533c0-0.858-0.026-5.721-0.13-6.604c-0.521-0.104-2.236-0.312-2.73-0.364l-0.13-0.546
			c0.494,0.052,2.886,0.104,4.94,0.104c1.326,0,3.562-0.053,4.004-0.104l-0.13,0.546c-0.521,0.053-1.794,0.26-2.73,0.364
			c-0.104,0.521-0.13,3.536-0.13,6.734V104.756z"/>
		<path d="M129.353,113.361c0.91-0.078,1.82-0.182,2.626-0.363c-0.468-1.353-2.314-6.865-2.73-7.619
			c-0.91,0-5.044,0.183-6.006,0.338c-0.156,0.365-1.561,5.279-1.82,7.281c0.65,0.182,1.508,0.285,2.236,0.363l0.104,0.547
			c-0.806-0.053-3.172-0.104-3.926-0.104c-0.676,0-2.418,0.052-3.016,0.104l0.078-0.547c0.754-0.078,1.533-0.207,2.235-0.363
			c0.937-1.639,6.11-15.627,6.475-16.615c-0.572-0.156-1.431-0.26-2.054-0.338l-0.026-0.546c0.78,0.052,2.938,0.104,3.38,0.104
			c1.092,0,3.692-0.053,4.446-0.104l-0.078,0.546c-0.676,0.078-1.378,0.182-1.976,0.338c0.312,1.145,1.742,5.227,2.729,7.957
			c0.729,2.002,2.341,6.369,3.536,8.658c0.754,0.156,1.508,0.26,2.288,0.363l0.078,0.547c-0.312-0.053-2.938-0.104-4.316-0.104
			c-0.754,0-3.691,0.052-4.394,0.104L129.353,113.361z M126.414,96.825h-0.052c-0.806,2.313-2.496,6.812-2.756,7.67l5.46,0.104
			C128.494,102.883,126.856,98.255,126.414,96.825z"/>
		<path d="M137.802,95.604c1.456-0.053,3.9-0.078,5.929-0.183c0.571,0.884,5.798,7.437,6.24,7.904
			c0.676,0.728,4.81,5.746,5.642,6.448c0-2.886-0.026-12.012-0.546-13.364c-0.52-0.104-1.898-0.312-2.626-0.364l-0.13-0.546
			c0.494,0.052,3.302,0.104,3.874,0.104s2.729-0.053,3.276-0.104l-0.104,0.546c-0.338,0.053-1.274,0.26-1.976,0.364
			c-0.313,1.014-0.442,4.681-0.494,5.513c-0.078,1.222-0.286,12.142-0.442,13.182c-0.78-0.728-7.982-9.126-8.58-9.803
			c-0.364-0.39-5.305-6.422-6.162-7.41c-0.078,0.521,0.233,14.171,0.571,15.107c0.391,0.13,2.341,0.312,2.835,0.363l0.077,0.547
			c-0.468-0.053-3.172-0.104-3.848-0.104c-0.754,0-2.782,0.052-3.536,0.104l0.078-0.547c0.728-0.104,1.56-0.182,2.158-0.363
			c0.441-1.092,0.728-15.679,0.728-16.537c-0.598-0.13-1.872-0.26-2.859-0.313L137.802,95.604z"/>
	</g>
	<g>
		<rect x="3.125" y="123.5" fill-rule="evenodd" clip-rule="evenodd" fill="none" width="169.75" height="25.167"/>
		<path d="M26.407,124.133h5.221c2.437,0,3.829,1.363,4.351,2.959c0.435,1.305,0.522,3.684-0.29,7.483
			c-1.102,5.308-2.93,7.571-3.423,8.122c-1.247,1.363-2.93,2.32-5.482,2.32h-4.815L26.407,124.133z M23.593,143.857h2.582
			c2.292,0,4.264-0.319,5.772-2.669c1.218-1.856,1.856-4.612,2.292-6.613c0.406-2.001,0.986-5.019,0.464-6.817
			c-0.609-2.204-2.378-2.465-4.583-2.465h-2.582L23.593,143.857z"/>
		<path d="M52.799,124.133h1.538l-7.803,12.037l-1.885,8.848h-1.363l1.885-8.848l-2.698-12.037h1.538l2.175,10.442L52.799,124.133z"
			/>
		<path d="M62.28,126.018l-0.058,0.059l-4.032,18.941h-1.363l4.438-20.885h1.973l3.307,17.896l0.058-0.058l3.8-17.839h1.363
			l-4.467,21.088h-1.421L62.28,126.018z"/>
		<path d="M86.322,145.018h-1.537l-0.522-6.353h-7.106l-3.278,6.353H72.37l11.574-21.727L86.322,145.018z M77.678,137.505h6.527
			l-1.044-10.501L77.678,137.505z"/>
		<path d="M105.897,124.133h1.509l-4.438,20.885h-1.363l3.858-18.129h-0.059l-7.31,11.603l-2.378-11.603l-0.088,0.058l-3.828,18.071
			h-1.363l4.438-20.885h1.509l2.32,11.486L105.897,124.133z"/>
		<path d="M121.876,125.293h-2.9l-3.945,18.564h2.901l-0.262,1.16h-7.164l0.261-1.16h2.9l3.945-18.564h-2.9l0.231-1.16h7.165
			L121.876,125.293z"/>
		<path d="M139.305,128.078c0.319-1.828-0.928-3.191-2.756-3.191c-4.844,0-6.584,6.295-7.339,9.834
			c-0.725,3.451-1.653,9.543,3.046,9.543c2.176,0,4.148-1.625,4.699-3.771h1.363c-0.928,3.075-3.336,4.932-6.439,4.932
			c-5.512,0-5.047-6.324-4.147-10.559c0.957-4.438,3.161-11.139,9.05-11.139c2.553,0,4.206,1.799,3.887,4.352H139.305z"/>
		<path d="M157.313,127.092c-1.044-1.132-2.292-2.205-4.09-2.205c-2.118,0-4.178,1.45-4.642,3.654
			c-0.348,1.625,0.116,2.727,2.35,4.265l1.509,1.044c2.9,2.002,4.147,3.191,3.597,5.772c-0.754,3.597-3.597,5.802-7.165,5.802
			c-2.466,0-4.147-1.16-5.221-3.074l1.218-0.842c0.754,1.596,2.263,2.756,4.265,2.756c2.437,0,4.844-1.799,5.366-4.293
			c0.405-1.973,0.348-2.727-3.017-5.019l-1.712-1.16c-1.77-1.189-3.22-2.581-2.669-5.105c0.668-3.133,3.423-4.96,6.439-4.96
			c1.973,0,3.655,1.044,4.815,2.35L157.313,127.092z"/>
	</g>
</g>
<g id="Layer_4">
	<g>
		<path fill-rule="evenodd" clip-rule="evenodd" d="M106.416,74.072c6.414-6.451,9.273-14.128,8.09-23.106
			c-0.926-7.025-4.228-12.85-9.795-17.274c-10.759-8.548-25.25-7.535-34.738,1.132c-5.698,5.206-8.656,11.767-8.717,19.512
			c-0.06,7.711,2.794,14.257,8.317,19.678c-1.344-0.189-6.718-4.841-9.308-8.024c-2.632-3.236-4.581-6.851-5.946-10.786
			c-1.368-3.945-1.99-8.016-1.89-12.181c0.443-18.334,14.153-32.554,31.119-34.609c19.225-2.33,35.306,10.434,39.126,27.301
			C126.675,53.371,116.957,68.153,106.416,74.072z"/>
		<path fill-rule="evenodd" clip-rule="evenodd" d="M48.457,48.623c0.132,0.713,0.257,1.428,0.397,2.14
			c1.159,5.869,3.578,11.167,7.237,15.899c3.457,4.471,7.691,8.032,12.659,10.712c3.5,1.889,7.222,3.179,11.116,3.988
			c3.111,0.646,6.254,0.922,9.421,0.817c3.291-0.109,6.529-0.598,9.706-1.501c4.509-1.281,8.687-3.237,12.512-5.948
			c5.015-3.555,8.975-8.038,11.893-13.447c1.879-3.483,3.144-7.178,3.871-11.061c0.103-0.548,0.175-1.102,0.261-1.652
			c0.041-0.003,0.082-0.006,0.124-0.01c0.053,0.416,0.13,0.831,0.154,1.248c0.163,2.817,0.115,5.626-0.329,8.422
			c-0.503,3.168-1.405,6.214-2.709,9.142c-1.636,3.674-3.825,6.993-6.529,9.962c-2.877,3.158-6.214,5.753-9.941,7.841
			c-3.223,1.805-6.638,3.135-10.221,4.018c-2.693,0.663-5.429,1.053-8.208,1.15c-2.115,0.074-4.219,0.029-6.325-0.183
			c-2.404-0.242-4.758-0.721-7.082-1.38c-3.278-0.929-6.397-2.23-9.347-3.937c-2.378-1.375-4.577-2.994-6.628-4.82
			c-3.223-2.868-5.863-6.197-7.938-9.975c-1.597-2.906-2.754-5.979-3.52-9.208c-0.733-3.099-0.987-6.236-0.915-9.407
			c0.018-0.797,0.101-1.592,0.162-2.387c0.011-0.145,0.058-0.286,0.089-0.43C48.398,48.619,48.427,48.621,48.457,48.623z"/>
		<path fill-rule="evenodd" clip-rule="evenodd" d="M87.957,35.697c4.951,11.154,9.901,22.308,14.884,33.536
			c-10.002,0-19.887,0-29.898,0c4.978-11.223,9.929-22.389,14.88-33.554C87.868,35.686,87.912,35.691,87.957,35.697z"/>
	</g>
	<g>
	</g>
	<g>
	</g>
	<g>
	</g>
	<g>
	</g>
	<g>
	</g>
	<g>
	</g>
</g>
</svg>
