<?xml version="1.0" encoding="utf-8"?>
<!-- Generator: Adobe Illustrator 16.0.0, SVG Export Plug-In . SVG Version: 6.00 Build 0)  -->
<!DOCTYPE svg PUBLIC "-//W3C//DTD SVG 1.1//EN" "http://www.w3.org/Graphics/SVG/1.1/DTD/svg11.dtd">
<svg version="1.1" xmlns="http://www.w3.org/2000/svg" xmlns:xlink="http://www.w3.org/1999/xlink" x="0px" y="0px" width="176px"
	 height="176px" viewBox="0 0 176 176" enable-background="new 0 0 176 176" xml:space="preserve">
<g id="Layer_2">
	
		<rect x="0.5" y="0.5" fill-rule="evenodd" clip-rule="evenodd" fill="none" stroke="#E0DDC5" stroke-miterlimit="10" width="175" height="175"/>
</g>
<g id="Layer_3">
	<g>
		<rect x="1.813" y="105.625" fill-rule="evenodd" clip-rule="evenodd" fill="none" width="172.375" height="34.25"/>
		<path fill="#231F20" stroke="#231F20" stroke-miterlimit="10" d="M53.081,133.74v-26.244h4.392v22.068h12.744v4.176H53.081z"/>
		<path fill="#231F20" stroke="#231F20" stroke-miterlimit="10" d="M72.484,112.5c0-0.623,0.228-1.139,0.684-1.548
			c0.456-0.407,0.948-0.612,1.476-0.612c0.527,0,1.014,0.205,1.458,0.612c0.444,0.409,0.666,0.925,0.666,1.548
			c0,0.648-0.222,1.17-0.666,1.566c-0.444,0.396-0.931,0.594-1.458,0.594c-0.528,0-1.021-0.197-1.476-0.594
			C72.712,113.67,72.484,113.148,72.484,112.5z M76.336,133.74H72.88v-15.3h3.456V133.74z"/>
		<path fill="#231F20" stroke="#231F20" stroke-miterlimit="10" d="M81.988,111.744h3.42v6.696h3.996v3.096h-3.996v12.204h-3.42
			v-12.204h-2.592v-3.096h2.592V111.744z"/>
		<path fill="#231F20" stroke="#231F20" stroke-miterlimit="10" d="M93.363,111.744h3.421v6.696h3.996v3.096h-3.996v12.204h-3.421
			v-12.204h-2.592v-3.096h2.592V111.744z"/>
		<path fill="#231F20" stroke="#231F20" stroke-miterlimit="10" d="M106.756,133.74h-3.42v-28.116h3.42V133.74z"/>
		<path fill="#231F20" stroke="#231F20" stroke-miterlimit="10" d="M124.144,131.977c-0.744,0.672-1.644,1.2-2.699,1.584
			c-1.057,0.384-2.137,0.576-3.24,0.576c-1.129,0-2.19-0.211-3.187-0.631c-0.996-0.419-1.86-0.995-2.592-1.728
			c-0.732-0.731-1.313-1.584-1.746-2.556c-0.432-0.973-0.647-2.01-0.647-3.114s0.216-2.142,0.647-3.114
			c0.433-0.972,1.014-1.824,1.746-2.556c0.731-0.731,1.584-1.308,2.556-1.728c0.973-0.42,1.998-0.631,3.078-0.631
			c1.729,0,3.246,0.521,4.555,1.566c1.308,1.044,2.237,2.418,2.79,4.121c-0.721,0.266-1.555,0.583-2.502,0.955
			c-0.949,0.372-1.938,0.762-2.971,1.17s-2.064,0.822-3.096,1.242c-1.032,0.42-1.98,0.798-2.844,1.134
			c0.407,0.744,0.972,1.344,1.691,1.8c0.721,0.456,1.536,0.684,2.448,0.684c0.624,0,1.254-0.113,1.89-0.342
			c0.636-0.228,1.158-0.534,1.566-0.918L124.144,131.977z M121.12,122.977c-0.288-0.527-0.721-0.918-1.296-1.17
			c-0.576-0.252-1.141-0.379-1.692-0.379c-0.648,0-1.26,0.127-1.836,0.379s-1.068,0.588-1.476,1.008
			c-0.409,0.42-0.732,0.9-0.973,1.439c-0.24,0.541-0.359,1.098-0.359,1.674v0.145c0.6-0.24,1.241-0.498,1.926-0.773
			c0.684-0.276,1.368-0.559,2.052-0.847s1.338-0.558,1.962-0.81S120.616,123.168,121.12,122.977z"/>
	</g>
	<g>
		<rect x="1.813" y="139.875" fill-rule="evenodd" clip-rule="evenodd" fill="none" width="172.375" height="76.25"/>
		<path fill="#231F20" stroke="#231F20" stroke-miterlimit="10" d="M25.456,154.505c0-1.772,0.344-3.453,1.033-5.04
			c0.688-1.586,1.622-2.975,2.8-4.165s2.555-2.135,4.13-2.835c1.575-0.699,3.26-1.05,5.057-1.05c1.773,0,3.453,0.351,5.04,1.05
			c1.586,0.7,2.975,1.645,4.165,2.835s2.129,2.579,2.818,4.165c0.688,1.587,1.032,3.268,1.032,5.04c0,1.797-0.345,3.482-1.032,5.058
			c-0.689,1.575-1.628,2.952-2.818,4.13c-1.19,1.179-2.579,2.106-4.165,2.782c-1.587,0.678-3.267,1.016-5.04,1.016
			c-1.797,0-3.482-0.338-5.057-1.016c-1.575-0.676-2.952-1.604-4.13-2.782c-1.178-1.178-2.112-2.555-2.8-4.13
			C25.8,157.987,25.456,156.302,25.456,154.505z M29.761,154.505c0,1.237,0.228,2.397,0.683,3.482s1.085,2.03,1.89,2.835
			c0.805,0.805,1.738,1.441,2.8,1.907c1.062,0.468,2.21,0.7,3.447,0.7c1.19,0,2.316-0.232,3.378-0.7
			c1.062-0.466,1.983-1.103,2.765-1.907s1.4-1.75,1.855-2.835c0.455-1.085,0.683-2.245,0.683-3.482c0-1.236-0.233-2.397-0.7-3.482
			c-0.467-1.085-1.097-2.036-1.89-2.853c-0.793-0.816-1.721-1.458-2.783-1.925c-1.062-0.467-2.199-0.7-3.413-0.7
			s-2.351,0.233-3.412,0.7c-1.062,0.467-1.984,1.108-2.765,1.925c-0.782,0.816-1.4,1.768-1.855,2.853S29.761,153.269,29.761,154.505
			z"/>
		<path fill="#231F20" stroke="#231F20" stroke-miterlimit="10" d="M60.806,168.085c-1.4-2.637-2.73-5.256-3.99-7.857
			c-1.26-2.602-2.555-5.232-3.885-7.893h3.64c0.887,1.728,1.581,3.115,2.083,4.165c0.501,1.05,0.893,1.902,1.173,2.555
			c0.28,0.654,0.484,1.173,0.612,1.558c0.128,0.386,0.25,0.788,0.368,1.208c0.14-0.42,0.274-0.822,0.402-1.208
			c0.128-0.385,0.333-0.903,0.612-1.558c0.28-0.652,0.671-1.505,1.173-2.555c0.501-1.05,1.195-2.438,2.083-4.165h3.605
			c-1.33,2.66-2.637,5.291-3.92,7.893C63.477,162.829,62.159,165.448,60.806,168.085z"/>
		<path fill="#231F20" stroke="#231F20" stroke-miterlimit="10" d="M83.065,165.495c-0.723,0.653-1.598,1.167-2.625,1.54
			s-2.077,0.56-3.15,0.56c-1.097,0-2.129-0.204-3.098-0.612s-1.808-0.968-2.52-1.68s-1.277-1.54-1.697-2.485
			c-0.42-0.944-0.63-1.954-0.63-3.027s0.21-2.083,0.63-3.027c0.42-0.945,0.985-1.773,1.697-2.485c0.712-0.711,1.54-1.271,2.485-1.68
			c0.945-0.408,1.942-0.613,2.992-0.613c1.68,0,3.156,0.508,4.428,1.523c1.271,1.015,2.175,2.351,2.712,4.008
			c-0.7,0.256-1.511,0.565-2.433,0.927c-0.922,0.362-1.884,0.741-2.887,1.138c-1.003,0.396-2.007,0.799-3.01,1.207
			c-1.003,0.408-1.925,0.776-2.765,1.104c0.396,0.723,0.945,1.307,1.645,1.749c0.7,0.443,1.493,0.665,2.38,0.665
			c0.606,0,1.219-0.11,1.837-0.332c0.618-0.222,1.125-0.52,1.522-0.893L83.065,165.495z M80.125,156.745
			c-0.28-0.513-0.7-0.893-1.26-1.138s-1.109-0.367-1.645-0.367c-0.63,0-1.225,0.122-1.785,0.367s-1.039,0.572-1.435,0.98
			c-0.397,0.408-0.712,0.875-0.945,1.399c-0.233,0.525-0.35,1.067-0.35,1.628v0.14c0.583-0.233,1.208-0.483,1.873-0.753
			c0.665-0.268,1.33-0.542,1.995-0.822c0.665-0.279,1.3-0.542,1.907-0.787C79.087,157.147,79.636,156.932,80.125,156.745z"/>
		<path fill="#231F20" stroke="#231F20" stroke-miterlimit="10" d="M95.21,156.29c-0.653,0-1.276,0.082-1.872,0.245
			c-0.595,0.163-1.12,0.414-1.575,0.752c-0.454,0.339-0.822,0.759-1.103,1.26c-0.279,0.502-0.42,1.092-0.42,1.768v6.896h-3.36
			v-14.875h2.94c0.047,0.84,0.1,1.522,0.158,2.048c0.058,0.524,0.109,1.114,0.156,1.768c0.304-0.653,0.712-1.236,1.226-1.75
			c0.513-0.514,1.044-0.951,1.593-1.313c0.548-0.361,1.09-0.643,1.627-0.84c0.537-0.199,0.992-0.298,1.365-0.298L95.21,156.29z"/>
		<path fill="#231F20" stroke="#231F20" stroke-miterlimit="10" d="M101.545,167.21h-3.324v-27.335h3.324V167.21z"/>
		<path fill="#231F20" stroke="#231F20" stroke-miterlimit="10" d="M104.73,159.755c0-1.073,0.204-2.083,0.612-3.027
			c0.408-0.945,0.974-1.768,1.697-2.468c0.724-0.699,1.569-1.254,2.538-1.662c0.968-0.408,2-0.613,3.098-0.613
			c1.119,0,2.157,0.205,3.114,0.613s1.779,0.963,2.468,1.662c0.688,0.7,1.23,1.522,1.628,2.468c0.396,0.944,0.595,1.954,0.595,3.027
			s-0.192,2.089-0.577,3.045c-0.386,0.957-0.928,1.791-1.628,2.503s-1.528,1.271-2.485,1.68s-2.007,0.612-3.149,0.612
			c-1.098,0-2.124-0.187-3.08-0.56c-0.957-0.373-1.791-0.904-2.503-1.593c-0.712-0.688-1.277-1.517-1.697-2.485
			C104.94,161.989,104.73,160.922,104.73,159.755z M108.056,159.79c0,0.63,0.116,1.22,0.35,1.768s0.554,1.027,0.963,1.435
			c0.407,0.409,0.886,0.729,1.435,0.963c0.548,0.233,1.138,0.35,1.768,0.35s1.219-0.116,1.768-0.35
			c0.548-0.233,1.026-0.554,1.435-0.963c0.408-0.407,0.735-0.887,0.98-1.435s0.367-1.138,0.367-1.768s-0.122-1.22-0.367-1.768
			s-0.572-1.026-0.98-1.435s-0.887-0.735-1.435-0.98c-0.549-0.245-1.138-0.367-1.768-0.367s-1.22,0.122-1.768,0.367
			c-0.549,0.245-1.027,0.572-1.435,0.98c-0.409,0.408-0.729,0.887-0.963,1.435S108.056,159.16,108.056,159.79z"/>
		<path fill="#231F20" stroke="#231F20" stroke-miterlimit="10" d="M131.994,156.29c-0.653,0-1.277,0.082-1.872,0.245
			s-1.12,0.414-1.575,0.752c-0.455,0.339-0.822,0.759-1.103,1.26c-0.279,0.502-0.42,1.092-0.42,1.768v6.896h-3.359v-14.875h2.939
			c0.047,0.84,0.099,1.522,0.157,2.048c0.059,0.524,0.111,1.114,0.158,1.768c0.303-0.653,0.711-1.236,1.225-1.75
			c0.513-0.514,1.044-0.951,1.593-1.313c0.548-0.361,1.09-0.643,1.627-0.84c0.537-0.199,0.992-0.298,1.365-0.298L131.994,156.29z"/>
		<path fill="#231F20" stroke="#231F20" stroke-miterlimit="10" d="M133.814,159.79c0-1.167,0.192-2.228,0.577-3.185
			s0.922-1.779,1.61-2.468c0.688-0.688,1.493-1.226,2.415-1.61c0.921-0.385,1.93-0.577,3.027-0.577c0.746,0,1.399,0.082,1.96,0.245
			c0.56,0.163,1.038,0.361,1.435,0.595s0.718,0.484,0.963,0.753c0.245,0.268,0.438,0.496,0.577,0.682v-14.35h3.36v27.335h-3.36
			v-0.98c0-0.116,0.012-0.244,0.035-0.385c0.023-0.14,0.035-0.245,0.035-0.314c-0.21,0.21-0.467,0.438-0.771,0.683
			c-0.303,0.244-0.664,0.472-1.085,0.682c-0.42,0.21-0.892,0.38-1.417,0.508s-1.126,0.192-1.803,0.192
			c-1.189,0-2.258-0.204-3.202-0.612c-0.945-0.408-1.738-0.968-2.38-1.68c-0.643-0.712-1.133-1.54-1.471-2.485
			C133.983,161.873,133.814,160.863,133.814,159.79z M137.174,159.72c0,0.653,0.11,1.261,0.333,1.82
			c0.222,0.56,0.536,1.045,0.945,1.452c0.407,0.409,0.892,0.729,1.452,0.963c0.56,0.233,1.178,0.35,1.854,0.35
			s1.301-0.116,1.873-0.35c0.571-0.233,1.062-0.561,1.47-0.98s0.723-0.91,0.945-1.47c0.222-0.56,0.332-1.155,0.332-1.785
			s-0.11-1.219-0.332-1.767c-0.223-0.549-0.537-1.021-0.945-1.418s-0.898-0.712-1.47-0.945c-0.572-0.232-1.196-0.35-1.873-0.35
			s-1.295,0.111-1.854,0.332c-0.561,0.223-1.045,0.537-1.452,0.945c-0.409,0.408-0.724,0.887-0.945,1.436
			C137.284,158.501,137.174,159.09,137.174,159.72z"/>
	</g>
	<g>
		<path fill-rule="evenodd" clip-rule="evenodd" d="M69.732,33.674c-1.051-0.15-1.577-0.183-2.083-0.303
			c-5.514-1.32-10.898-0.866-16.121,1.282c-8.654,3.559-13.143,10.256-14.267,19.357c-0.105,0.851,0.215,2.198,0.804,2.561
			c0.548,0.337,1.794-0.176,2.596-0.586c2.315-1.181,4.455-2.768,6.853-3.713c6.898-2.717,12.655-0.887,17.119,5.041
			c0.965,1.282,1.234,2.361,0.51,3.902c-2,4.259-2.66,8.84-1.915,13.44c1.74,10.737,7.765,18.137,18.285,21.174
			s19.755,0.159,26.708-8.21c6.961-8.38,7.709-17.891,3.21-27.813c-0.438-0.966-0.989-2.01-0.995-3.021
			c-0.05-8.133,2.768-14.925,10.241-18.818c3.281-1.709,7.071-2.474,10.67-3.533c2.286-0.672,2.698-1.49,1.349-3.346
			c-8.186-11.25-25.756-12.782-35.875-3.131c-0.671,0.641-1.352,1.271-2.185,2.053c-1.547-4.945-3.881-9.082-7.58-12.272
			C74.66,7.048,60.582,7.103,45.899,11.542c-0.645,0.194-1.032,1.238-1.539,1.887c0.678,0.479,1.293,1.182,2.046,1.395
			c2.327,0.657,4.784,0.906,7.052,1.708C61.588,19.403,67.162,24.807,69.732,33.674z M33.587,76.458
			c4.878,0.006,8.688-3.781,8.718-8.666c0.03-4.882-3.748-8.761-8.595-8.822c-4.902-0.062-8.998,3.981-8.947,8.831
			C24.814,72.588,28.752,76.452,33.587,76.458z M33.731,22.441c4.927-0.034,8.629-3.808,8.575-8.74
			c-0.053-4.843-3.932-8.709-8.732-8.707c-4.736,0.002-8.762,3.989-8.805,8.721C24.725,18.569,28.738,22.476,33.731,22.441z
			 M142.186,47.83c5.01,0.073,9.005-3.749,9.051-8.661c0.045-4.707-3.926-8.709-8.716-8.787c-4.843-0.078-8.707,3.68-8.823,8.579
			C133.581,43.836,137.336,47.759,142.186,47.83z"/>
		<path fill-rule="evenodd" clip-rule="evenodd" fill="#FFFFFF" d="M69.732,33.674c-2.57-8.868-8.145-14.271-16.274-17.144
			c-2.268-0.801-4.725-1.051-7.052-1.708c-0.753-0.212-1.368-0.915-2.046-1.395c0.507-0.648,0.895-1.692,1.539-1.887
			C60.582,7.103,74.66,7.048,87.057,17.74c3.699,3.19,6.033,7.327,7.58,12.272c0.833-0.782,1.514-1.412,2.185-2.053
			c10.119-9.651,27.689-8.119,35.875,3.131c1.35,1.855,0.938,2.673-1.349,3.346c-3.599,1.059-7.389,1.824-10.67,3.533
			c-7.474,3.893-10.291,10.685-10.241,18.818c0.006,1.011,0.557,2.055,0.995,3.021c4.499,9.922,3.751,19.433-3.21,27.813
			c-6.953,8.369-16.188,11.247-26.708,8.21S64.969,85.393,63.229,74.655c-0.746-4.601-0.085-9.182,1.915-13.44
			c0.724-1.541,0.455-2.62-0.51-3.902c-4.464-5.928-10.221-7.758-17.119-5.041c-2.398,0.945-4.538,2.532-6.853,3.713
			c-0.801,0.41-2.048,0.923-2.596,0.586c-0.588-0.362-0.909-1.71-0.804-2.561c1.124-9.101,5.613-15.798,14.267-19.357
			c5.223-2.148,10.607-2.602,16.121-1.282C68.155,33.492,68.682,33.524,69.732,33.674z M128.253,31.363
			c-8.981-9.792-25.246-8.292-32.333,2.757c-0.555,0.865-1.627,1.398-2.458,2.085c-0.487-0.863-1.255-1.676-1.419-2.598
			c-1.548-8.694-6.662-14.539-14.419-18.301c-6.914-3.354-17.929-4.341-23.43-2.107c10.035,3.738,16.625,10.542,19.013,21.061
			c0.259,1.141-0.043,2.411-0.085,3.621c-1.162-0.135-2.424-0.025-3.473-0.444c-8.986-3.594-20.025-0.701-25.412,6.952
			c-1.409,2.002-2.246,4.408-3.355,6.648c4.114-1.184,7.646-2.719,11.307-3.138c6.615-0.758,11.48,2.638,15.358,7.765
			c0.576,0.762,1.881,1.601,2.69,1.464c10.185-1.725,20.4-1.77,30.653-0.931c2.018,0.165,4.041,0.271,6.037,0.403
			C109.341,40.667,111.743,37.828,128.253,31.363z M89.885,58.831c-0.004,0.131-0.007,0.262-0.012,0.392
			c-3.417,0-6.841-0.131-10.25,0.041c-2.683,0.137-5.342,0.715-8.023,0.966c-2.03,0.189-3.13,1.16-3.861,3.084
			c-3.511,9.251-0.489,19.896,7.47,25.849c8.103,6.059,18.965,5.956,27.08-0.256c7.722-5.911,10.599-16.586,7.118-25.712
			c-0.896-2.349-2.241-3.397-4.719-3.494C99.749,59.507,94.818,59.131,89.885,58.831z"/>
		<path fill-rule="evenodd" clip-rule="evenodd" fill="#FFFFFF" d="M33.587,76.458c-4.835-0.006-8.773-3.87-8.823-8.657
			c-0.051-4.85,4.045-8.893,8.947-8.831c4.847,0.062,8.625,3.94,8.595,8.822C42.275,72.677,38.465,76.464,33.587,76.458z
			 M33.612,73.139c3.027-0.006,5.51-2.456,5.499-5.425c-0.011-2.91-2.578-5.42-5.536-5.41c-3.024,0.01-5.471,2.445-5.465,5.439
			C28.115,70.717,30.591,73.145,33.612,73.139z"/>
		<path fill-rule="evenodd" clip-rule="evenodd" fill="#FFFFFF" d="M33.731,22.441c-4.994,0.035-9.007-3.872-8.962-8.726
			c0.043-4.732,4.068-8.719,8.805-8.721c4.8-0.002,8.679,3.864,8.732,8.707C42.36,18.633,38.658,22.407,33.731,22.441z
			 M33.719,19.175c3.003-0.05,5.495-2.612,5.39-5.538C39,10.646,36.489,8.296,33.457,8.35c-2.987,0.054-5.413,2.574-5.346,5.554
			C28.179,16.933,30.621,19.227,33.719,19.175z"/>
		<path fill-rule="evenodd" clip-rule="evenodd" fill="#FFFFFF" d="M142.186,47.83c-4.85-0.071-8.604-3.994-8.488-8.869
			c0.116-4.899,3.98-8.657,8.823-8.579c4.79,0.077,8.761,4.08,8.716,8.787C151.19,44.081,147.195,47.903,142.186,47.83z
			 M142.494,44.517c3.081-0.026,5.443-2.417,5.397-5.461c-0.048-3.049-2.445-5.347-5.551-5.319
			c-3.021,0.028-5.492,2.511-5.445,5.471C136.942,42.196,139.417,44.542,142.494,44.517z"/>
		<path fill-rule="evenodd" clip-rule="evenodd" d="M128.253,31.363c-16.51,6.465-18.912,9.304-21.325,25.236
			c-1.996-0.132-4.02-0.238-6.037-0.403c-10.253-0.839-20.468-0.794-30.653,0.931c-0.809,0.137-2.114-0.702-2.69-1.464
			c-3.878-5.127-8.743-8.522-15.358-7.765c-3.66,0.419-7.193,1.955-11.307,3.138c1.109-2.24,1.946-4.646,3.355-6.648
			c5.387-7.653,16.426-10.545,25.412-6.952c1.049,0.419,2.311,0.309,3.473,0.444c0.042-1.21,0.344-2.479,0.085-3.621
			c-2.388-10.518-8.978-17.323-19.013-21.061c5.501-2.234,16.516-1.246,23.43,2.107c7.757,3.762,12.871,9.607,14.419,18.301
			c0.164,0.921,0.932,1.734,1.419,2.598c0.831-0.687,1.903-1.22,2.458-2.085C103.007,23.071,119.271,21.571,128.253,31.363z"/>
		<path fill-rule="evenodd" clip-rule="evenodd" d="M89.885,58.831c4.934,0.3,9.864,0.676,14.803,0.869
			c2.478,0.097,3.823,1.146,4.719,3.494c3.48,9.126,0.604,19.801-7.118,25.712c-8.114,6.212-18.977,6.314-27.08,0.256
			c-7.958-5.952-10.98-16.598-7.47-25.849c0.731-1.924,1.831-2.895,3.861-3.084c2.681-0.251,5.34-0.829,8.023-0.966
			c3.409-0.172,6.833-0.041,10.25-0.041C89.878,59.093,89.881,58.962,89.885,58.831z M87.455,91.095
			c0.241-0.177,0.993-0.727,1.746-1.276c-0.673-0.66-1.266-1.771-2.032-1.907c-6.076-1.085-9.703-4.551-11.082-10.559
			c-0.156-0.677-1.264-1.135-1.93-1.693c-0.426,0.766-1.266,1.561-1.213,2.291C73.396,84.302,80.172,90.701,87.455,91.095z
			 M104.307,67.713c-0.009-2.881-2.288-5.104-5.188-5.058c-2.745,0.044-5.002,2.25-5.072,4.959
			c-0.074,2.813,2.228,5.147,5.105,5.175C102.061,72.817,104.314,70.597,104.307,67.713z M77.809,69.359
			c0-0.006,0-0.012,0.001-0.018c1.249,0,2.529,0.165,3.732-0.069c0.603-0.117,1.464-0.954,1.477-1.483
			c0.012-0.547-0.828-1.559-1.353-1.598c-2.393-0.181-4.816-0.208-7.207-0.015c-0.571,0.046-1.056,1.152-1.58,1.771
			c0.572,0.472,1.086,1.206,1.731,1.351C75.63,69.527,76.739,69.359,77.809,69.359z"/>
		<path fill-rule="evenodd" clip-rule="evenodd" d="M33.612,73.139c-3.021,0.006-5.498-2.422-5.502-5.396
			c-0.005-2.994,2.441-5.43,5.465-5.439c2.958-0.01,5.525,2.5,5.536,5.41C39.123,70.683,36.639,73.133,33.612,73.139z"/>
		<path fill-rule="evenodd" clip-rule="evenodd" d="M33.719,19.175c-3.098,0.052-5.54-2.243-5.607-5.271
			c-0.067-2.98,2.359-5.5,5.346-5.554c3.032-0.054,5.543,2.296,5.651,5.288C39.214,16.563,36.722,19.125,33.719,19.175z"/>
		<path fill-rule="evenodd" clip-rule="evenodd" d="M142.494,44.517c-3.077,0.026-5.552-2.32-5.599-5.309
			c-0.047-2.96,2.425-5.443,5.445-5.471c3.105-0.028,5.503,2.27,5.551,5.319C147.938,42.1,145.575,44.491,142.494,44.517z"/>
		<path fill-rule="evenodd" clip-rule="evenodd" fill="#FFFFFF" d="M87.455,91.095c-7.282-0.394-14.058-6.793-14.512-13.145
			c-0.053-0.73,0.787-1.525,1.213-2.291c0.666,0.559,1.774,1.017,1.93,1.693c1.379,6.008,5.006,9.474,11.082,10.559
			c0.766,0.137,1.359,1.247,2.032,1.907C88.448,90.368,87.695,90.918,87.455,91.095z"/>
		<path fill-rule="evenodd" clip-rule="evenodd" fill="#FFFFFF" d="M104.307,67.713c0.008,2.884-2.246,5.104-5.155,5.076
			c-2.878-0.027-5.18-2.361-5.105-5.175c0.07-2.709,2.327-4.915,5.072-4.959C102.019,62.608,104.298,64.832,104.307,67.713z
			 M101.575,67.59c-1.056-0.714-1.813-1.604-2.32-1.478c-0.729,0.18-1.274,1.099-1.898,1.703c0.682,0.561,1.311,1.439,2.064,1.565
			C99.915,69.464,100.59,68.453,101.575,67.59z"/>
		<path fill-rule="evenodd" clip-rule="evenodd" fill="#FFFFFF" d="M77.809,69.359c-1.07,0-2.179,0.168-3.198-0.062
			c-0.646-0.145-1.159-0.879-1.731-1.351c0.524-0.618,1.009-1.725,1.58-1.771c2.391-0.193,4.814-0.166,7.207,0.015
			c0.525,0.039,1.365,1.051,1.353,1.598c-0.013,0.529-0.875,1.366-1.477,1.483c-1.203,0.234-2.483,0.069-3.732,0.069
			C77.809,69.348,77.809,69.354,77.809,69.359z"/>
		<path fill-rule="evenodd" clip-rule="evenodd" d="M101.575,67.59c-0.985,0.863-1.66,1.874-2.154,1.791
			c-0.754-0.126-1.383-1.005-2.064-1.565c0.624-0.604,1.17-1.523,1.898-1.703C99.762,65.986,100.52,66.876,101.575,67.59z"/>
	</g>
</g>
<g id="Layer_4">
	<g>
	</g>
	<g>
	</g>
	<g>
	</g>
	<g>
	</g>
	<g>
	</g>
	<g>
	</g>
</g>
</svg>
