<?xml version="1.0" encoding="utf-8"?>
<!DOCTYPE svg PUBLIC "-//W3C//DTD SVG 1.1//EN" "http://www.w3.org/Graphics/SVG/1.1/DTD/svg11.dtd">
<svg version="1.1" xmlns="http://www.w3.org/2000/svg" xmlns:xlink="http://www.w3.org/1999/xlink" x="0px" y="0px" width="176px"
	 height="176px" viewBox="0 0 176 176" enable-background="new 0 0 176 176" xml:space="preserve">
<g id="Layer_2">
	
		<rect x="0.5" y="0.5" fill-rule="evenodd" clip-rule="evenodd" fill="none" stroke="#E0DDC5" stroke-miterlimit="10" width="175" height="175"/>
</g>
<g id="Layer_3">
	<g>
		<rect x="6.25" y="31" fill-rule="evenodd" clip-rule="evenodd" fill="none" width="163.5" height="74"/>
		<path d="M49.188,58.677h-9.954c-0.259,0-1.184-0.074-1.184-1.147c0-0.518,0.333-0.851,0.814-0.999
			c1.295-0.407,1.258-0.629,1.258-1.999V35.143c0-1.369,0.037-1.591-1.258-1.998c-0.481-0.148-0.814-0.481-0.814-0.999
			c0-1.073,0.925-1.147,1.184-1.147h9.954V58.677z M50.854,30.999H52c2.332,0,4.7,0.037,6.846,1.073
			c2.294,1.147,3.626,3.071,3.626,5.699c0,4.07-3.404,5.957-6.993,6.512v0.074c4.107,0.666,7.363,2.479,7.363,7.104
			c0,2.627-1.147,4.699-3.478,5.994c-2.368,1.332-4.699,1.221-7.327,1.221h-1.184v-2.146c2.479-0.111,2.775-1.517,2.775-2.849
			v-4.773c0-1.702-0.407-3.293-2.775-3.479v-2.146c2.701-0.222,2.775-1.813,2.775-3.182v-3.7c0-1.554-0.555-3.034-2.775-3.256
			V30.999z"/>
		<path d="M77.234,58.677h-9.769c-0.148,0-1.369-0.074-1.369-1.147c0-0.518,0.333-0.851,0.814-0.999
			c1.295-0.407,1.258-0.629,1.258-1.999V35.143c0-1.369,0.037-1.591-1.258-1.998c-0.481-0.148-0.814-0.481-0.814-0.999
			c0-1.073,1.221-1.147,1.369-1.147h10.472c0.148,0,1.369,0.074,1.369,1.147c0,0.518-0.333,0.851-0.814,0.999
			c-1.295,0.407-1.258,0.629-1.258,1.998V58.677z M78.899,56.531c2.997-0.407,4.699-2.998,5.476-6.438
			c0.185-0.814,0.629-1.036,1.406-1.036c0.851,0,0.925,0.703,0.925,1.406v8.214h-7.807V56.531z"/>
		<path d="M101.913,59.232c-2.924,0-5.181-0.037-7.734-1.443c-3.33-1.85-3.773-3.256-3.773-5.106V35.143
			c0-1.369,0.036-1.591-1.259-1.998c-0.481-0.148-0.814-0.481-0.814-0.999c0-1.073,1.221-1.147,1.369-1.147h10.473
			c0.147,0,1.369,0.074,1.369,1.147c0,0.518-0.333,0.851-0.814,0.999c-1.295,0.407-1.258,0.629-1.258,1.998v17.798
			c0,0.37-0.333,3.293,2.442,4.107V59.232z M108.536,36.845c-0.592-4.625-2.96-3.182-2.96-4.773c0-1.147,1.517-1.073,1.924-1.073
			h4.219c0.406,0,1.924-0.074,1.924,1.073c0,1.591-2.368,0.148-2.96,4.773v13.95c-0.296,6.105-4.699,8.325-7.104,8.362v-2.183
			c3.404-1.036,4.736-2.96,4.958-6.253V36.845z"/>
		<path d="M117.563,30.999h9.769v27.678h-9.769c-0.148,0-1.369-0.074-1.369-1.147c0-0.518,0.333-0.851,0.814-0.999
			c1.295-0.407,1.258-0.629,1.258-1.999V35.143c0-1.369,0.037-1.591-1.258-1.998c-0.481-0.148-0.814-0.481-0.814-0.999
			C116.193,31.073,117.414,30.999,117.563,30.999z M128.996,30.999h8.252v7.511c0,0.185-0.037,0.888-1.147,0.888
			c-0.629,0-0.813-0.37-0.999-0.925c-0.962-2.997-2.85-4.81-6.105-5.328V30.999z M128.996,43.358c1.555-0.407,2.257-1.85,2.59-3.256
			c0.186-0.629,0.407-1.221,1.185-1.221c1.147,0,0.962,1.332,0.962,1.628v7.993c0,0.296,0.186,1.628-0.962,1.628
			c-0.777,0-0.999-0.592-1.185-1.221c-0.333-1.406-1.035-2.849-2.59-3.256V43.358z M128.996,56.531
			c2.997-0.37,5.291-2.405,6.291-5.366c0.259-0.555,0.48-1.147,1.146-1.147c1.185,0,1.073,1.11,1.073,1.258v7.4h-8.511V56.531z"/>
		<path d="M59.363,66.99c-1.406,0.481-2.627,1.517-2.627,3.034c0,1.813,0.999,2.923,5.402,4.625c6.55,2.516,8.03,5.994,8.03,9.398
			c0,5.735-4.773,9.473-10.25,9.584v-2.146c1.776-0.555,3.293-1.369,3.367-3.404c0.074-2.332-2.665-3.293-4.44-4.07
			c-4.663-1.961-8.992-4.07-8.992-9.88c0-5.625,4.07-9.103,9.51-9.288V66.99z M49.854,84.788c0-0.777,0.148-1.813,1.184-1.813
			c0.74,0,1.258,0.592,1.369,1.221c0.518,2.96,2.59,6.623,5.846,7.289v2.146c-3.219-0.074-3.922-1.369-5.254-1.369
			c-1.184,0-1.073,1.222-1.998,1.222c-1.147,0-1.147-1.369-1.147-1.555V84.788z M69.169,72.836c0,0.851-0.148,1.776-1.221,1.776
			c-0.888,0-1.221-0.703-1.332-1.443c-0.407-2.738-2.701-5.55-5.587-6.18v-2.146c2.331,0.037,4.811,1.443,5.217,1.443
			c0.962,0,0.888-1.332,1.85-1.332c1.147,0,1.073,1.258,1.073,1.554V72.836z"/>
		<path d="M86.891,93.632c-2.923,0-5.18-0.037-7.733-1.443c-3.331-1.851-3.774-3.256-3.774-5.106V69.543
			c0-1.369,0.037-1.591-1.258-1.998c-0.481-0.148-0.814-0.481-0.814-0.999c0-1.073,1.221-1.147,1.369-1.147h10.472
			c0.148,0,1.369,0.074,1.369,1.147c0,0.518-0.333,0.851-0.814,0.999c-1.295,0.407-1.258,0.629-1.258,1.998v17.798
			c0,0.37-0.333,3.293,2.442,4.108V93.632z M93.515,71.245c-0.592-4.625-2.96-3.182-2.96-4.773c0-1.147,1.517-1.073,1.924-1.073
			h4.219c0.406,0,1.924-0.074,1.924,1.073c0,1.591-2.368,0.148-2.96,4.773v13.95c-0.296,6.105-4.699,8.325-7.105,8.362v-2.183
			c3.405-1.037,4.737-2.96,4.958-6.254V71.245z"/>
		<path d="M104.058,72.355h0.074l2.072,3.7V87.23c0.592,4.625,2.96,3.182,2.96,4.773c0,1.146-1.517,1.072-1.924,1.072h-4.219
			c-0.406,0-1.924,0.074-1.924-1.072c0-1.592,2.368-0.148,2.96-4.773V72.355z M123.336,84.122v8.954h-5.513L104.28,69.728
			c-0.592-1.036-0.777-1.591-1.998-1.998c-0.629-0.222-1.11-0.37-1.11-1.184c0-1.11,1.11-1.11,1.887-1.147h9.51L123.336,84.122z
			 M121.19,72.096c0-5.292-3.034-3.885-3.034-5.587c0-1.036,1.221-1.11,1.591-1.11h5.032c0.37,0,1.591,0.074,1.591,1.11
			c0,1.702-3.034,0.296-3.034,5.587v8.992h-0.073l-2.072-3.737V72.096z"/>
	</g>
	<g>
		<rect x="8.5" y="117.5" fill-rule="evenodd" clip-rule="evenodd" fill="none" width="159" height="40.5"/>
		<path d="M57.45,144.03c-2.096,0.867-4.282,1.301-6.558,1.301c-3.541,0-6.429-1.188-8.663-3.567
			c-2.234-2.379-3.351-5.483-3.351-9.313c0-4.203,1.21-7.572,3.631-10.108c2.421-2.535,5.498-3.803,9.232-3.803
			c1.987,0,3.89,0.319,5.709,0.958v1.896c-1.819-0.819-3.734-1.229-5.745-1.229c-3.252,0-5.896,1.102-7.931,3.307
			c-2.036,2.203-3.053,5.137-3.053,8.798c0,3.529,0.973,6.314,2.917,8.355c1.945,2.042,4.411,3.063,7.398,3.063
			c2.385,0,4.522-0.464,6.414-1.392V144.03z"/>
		<path d="M70.277,145.331c-2.698,0-4.833-0.888-6.405-2.664c-1.571-1.776-2.357-4.086-2.357-6.929c0-3.071,0.822-5.474,2.466-7.208
			c1.645-1.734,3.809-2.602,6.495-2.602c2.638,0,4.721,0.86,6.251,2.583c1.529,1.723,2.294,4.107,2.294,7.154
			c0,2.879-0.78,5.209-2.339,6.991C75.122,144.44,72.987,145.331,70.277,145.331z M70.403,127.446c-2.18,0-3.917,0.734-5.212,2.203
			c-1.295,1.47-1.942,3.512-1.942,6.125c0,2.421,0.632,4.366,1.897,5.836c1.265,1.469,2.993,2.203,5.185,2.203
			c2.228,0,3.944-0.723,5.149-2.168c1.204-1.445,1.807-3.45,1.807-6.016c0-2.638-0.599-4.661-1.797-6.07
			C74.291,128.15,72.595,127.446,70.403,127.446z"/>
		<path d="M86.41,125.675h8.635v-4.209c0-3.264,1.531-4.896,4.59-4.896c0.229,0,0.867,0.055,1.914,0.163l-0.217,1.319
			c-0.709-0.121-1.275-0.182-1.697-0.182c-2.096,0-3.145,1.187-3.145,3.56v4.245h4.428v1.266H96.49v17.271h-1.445V126.94H86.41
			v17.271h-1.445V126.94h-3.487v-1.266h3.487v-3.775c0-1.723,0.536-3.071,1.608-4.047c0.951-0.855,2.174-1.283,3.667-1.283
			c0.771,0,1.607,0.091,2.512,0.271l-0.217,1.318c-0.734-0.192-1.5-0.289-2.295-0.289c-1.253,0-2.222,0.392-2.909,1.175
			c-0.614,0.711-0.921,1.65-0.921,2.818V125.675z"/>
		<path d="M105.091,135.702c0,2.541,0.587,4.528,1.762,5.962c1.174,1.434,2.785,2.149,4.833,2.149c2.071,0,4.095-0.765,6.07-2.294
			v1.771c-1.916,1.361-4.054,2.041-6.414,2.041c-2.385,0-4.312-0.854-5.781-2.564c-1.47-1.711-2.204-4.126-2.204-7.245
			c0-2.698,0.768-4.971,2.304-6.82c1.535-1.849,3.531-2.772,5.988-2.772c2.301,0,4.065,0.807,5.294,2.42
			c1.229,1.614,1.843,3.818,1.843,6.613v0.74H105.091z M117.051,134.185c-0.072-2.132-0.584-3.788-1.535-4.969
			c-0.952-1.18-2.265-1.77-3.939-1.77c-1.734,0-3.17,0.581-4.309,1.743c-1.138,1.162-1.84,2.827-2.104,4.995H117.051z"/>
		<path d="M123.771,135.702c0,2.541,0.587,4.528,1.762,5.962c1.174,1.434,2.785,2.149,4.833,2.149c2.071,0,4.095-0.765,6.07-2.294
			v1.771c-1.916,1.361-4.054,2.041-6.414,2.041c-2.385,0-4.312-0.854-5.781-2.564c-1.47-1.711-2.204-4.126-2.204-7.245
			c0-2.698,0.768-4.971,2.304-6.82c1.535-1.849,3.531-2.772,5.988-2.772c2.301,0,4.065,0.807,5.294,2.42
			c1.229,1.614,1.843,3.818,1.843,6.613v0.74H123.771z M135.731,134.185c-0.072-2.132-0.584-3.788-1.535-4.969
			c-0.952-1.18-2.265-1.77-3.939-1.77c-1.734,0-3.17,0.581-4.309,1.743c-1.138,1.162-1.84,2.827-2.104,4.995H135.731z"/>
	</g>
	<g>
	</g>
	<g>
	</g>
	<g>
	</g>
	<g>
	</g>
	<g>
	</g>
	<g>
	</g>
</g>
</svg>
